SplineFontDB: 3.0
FontName: HM_FTXtabasm_Shadow
FullName: HM_FTXtabasm_Shadow
FamilyName: HM_FTXtabasm_Shadow
Weight: Shadow
Copyright: Copyright (c) Hossein, 2013. All rights reserved.
Version: 0.1
ItalicAngle: 0
UnderlinePosition: -540
UnderlineWidth: 60
Ascent: 1638
Descent: 410
sfntRevision: 0x00010000
LayerCount: 2
Layer: 0 1 "Back"  1
Layer: 1 1 "Fore"  0
XUID: [1021 102 1371595031 6992056]
FSType: 0
OS2Version: 2
OS2_WeightWidthSlopeOnly: 0
OS2_UseTypoMetrics: 1
CreationTime: 1194658560
ModificationTime: 1360913113
PfmFamily: 17
TTFWeight: 400
TTFWidth: 5
LineGap: 0
VLineGap: 0
Panose: 2 0 5 3 8 0 0 2 0 3
OS2TypoAscent: 2100
OS2TypoAOffset: 0
OS2TypoDescent: -1000
OS2TypoDOffset: 0
OS2TypoLinegap: 0
OS2WinAscent: 2100
OS2WinAOffset: 0
OS2WinDescent: 1000
OS2WinDOffset: 0
HheadAscent: 2100
HheadAOffset: 0
HheadDescent: -1000
HheadDOffset: 0
OS2SubXSize: 1434
OS2SubYSize: 1331
OS2SubXOff: 0
OS2SubYOff: 293
OS2SupXSize: 1434
OS2SupYSize: 1331
OS2SupXOff: 0
OS2SupYOff: 928
OS2StrikeYSize: 102
OS2StrikeYPos: 512
OS2Vendor: 'pars'
OS2CodePages: 20000051.41000000
OS2UnicodeRanges: 00002003.80000000.00000008.00000000
Lookup: 4 0 1 "gsub_ligature_dfl_liga_arab_FAR_Lookup_01"  {"gsub_ligature_dfl_liga_arab_FAR_Lookup_01_Subtable_01"  } ['liga' ('arab' <'FAR ' > ) ]
Lookup: 4 0 1 "gsub_ligature_dfl_liga_arab_FAR_Lookup_02"  {"gsub_ligature_dfl_liga_arab_FAR_Lookup_02_Subtable_01"  } ['liga' ('arab' <'FAR ' > ) ]
Lookup: 3 0 0 "gsub_alternate_dfl_aalt_arab_FAR_Lookup_01"  {"gsub_alternate_dfl_aalt_arab_FAR_Lookup_01_Subtable_01"  } ['aalt' ('arab' <'FAR ' > ) ]
Lookup: 1 1 0 "gsub_single_rtl_fina_arab_FAR_Lookup_01"  {"gsub_single_rtl_fina_arab_FAR_Lookup_01_Subtable_01"  } ['fina' ('arab' <'FAR ' > ) ]
Lookup: 1 1 0 "gsub_single_rtl_init_arab_FAR_Lookup_01"  {"gsub_single_rtl_init_arab_FAR_Lookup_01_Subtable_01"  } ['init' ('arab' <'FAR ' > ) ]

StartChar: .notdef
Encoding: 65536 -1 0
Width: 1122
GlyphClass: 2
Flags: W
LayerCount: 2
Fore
SplineSet
624 299 m 0,0,1
 624 269 624 269 602 246.5 c 128,-1,2
 580 224 580 224 548 224 c 0,3,4
 518 224 518 224 496.5 246.5 c 128,-1,5
 475 269 475 269 475 299 c 0,6,7
 475 331 475 331 496.5 352.5 c 128,-1,8
 518 374 518 374 551 374 c 0,9,10
 581 374 581 374 602.5 352.5 c 128,-1,11
 624 331 624 331 624 299 c 0,0,1
732 780 m 0,12,13
 732 737 732 737 708.5 710 c 128,-1,14
 685 683 685 683 648 683 c 0,15,16
 616 683 616 683 597 701.5 c 128,-1,17
 578 720 578 720 578 749 c 0,18,19
 578 770 578 770 588 785 c 128,-1,20
 598 800 598 800 610.5 810.5 c 128,-1,21
 623 821 623 821 633 829 c 128,-1,22
 643 837 643 837 643 843 c 0,23,24
 643 863 643 863 623.5 875 c 128,-1,25
 604 887 604 887 574 887 c 0,26,27
 536 887 536 887 512 866 c 128,-1,28
 488 845 488 845 488 813 c 0,29,30
 488 795 488 795 498.5 769 c 128,-1,31
 509 743 509 743 521.5 718 c 128,-1,32
 534 693 534 693 545.5 673 c 128,-1,33
 557 653 557 653 559 648 c 0,34,35
 570 619 570 619 576.5 583.5 c 128,-1,36
 583 548 583 548 583 513 c 0,37,38
 583 492 583 492 581.5 470.5 c 128,-1,39
 580 449 580 449 578 424 c 1,40,-1
 539 424 l 1,41,-1
 539 442 l 1,42,-1
 543 472 l 1,43,44
 543 505 543 505 498 544 c 0,45,46
 425 609 425 609 416 620 c 0,47,48
 371 673 371 673 371 740 c 0,49,50
 371 781 371 781 386 815.5 c 128,-1,51
 401 850 401 850 426.5 875.5 c 128,-1,52
 452 901 452 901 486.5 915 c 128,-1,53
 521 929 521 929 560 929 c 0,54,55
 595 929 595 929 626.5 918.5 c 128,-1,56
 658 908 658 908 681.5 888.5 c 128,-1,57
 705 869 705 869 718.5 841.5 c 128,-1,58
 732 814 732 814 732 780 c 0,12,13
132 31 m 1,59,-1
 992 31 l 1,60,-1
 992 1122 l 1,61,-1
 132 1122 l 1,62,-1
 132 31 l 1,59,-1
100 0 m 1,63,-1
 100 1154 l 1,64,-1
 1022 1154 l 1,65,-1
 1022 0 l 1,66,-1
 100 0 l 1,63,-1
EndSplineSet
EndChar

StartChar: exclam
Encoding: 33 33 4
Width: 645
VWidth: 1639
GlyphClass: 2
Flags: W
LayerCount: 2
Fore
SplineSet
188.681640625 1426.79980469 m 1,0,-1
 201.801757812 1397.28027344 l 1,1,-1
 203.442382812 1397.28027344 l 1,2,-1
 211.641601562 1426.79980469 l 1,3,-1
 224.76171875 1397.28027344 l 1,4,-1
 226.40234375 1397.28027344 l 1,5,-1
 234.6015625 1426.79980469 l 1,6,7
 243.89453125 1414.12890625 243.89453125 1414.12890625 271.479492188 1342.83007812 c 0,8,9
 273.077148438 1338.78808594 273.077148438 1338.78808594 273.961914062 1336.59960938 c 0,8,9
 319.701171875 1223.52050781 319.701171875 1223.52050781 344.482421875 1151.28027344 c 0,10,11
 467.720703125 777.197265625 467.720703125 777.197265625 439.6015625 350.959960938 c 0,12,13
 429.594726562 222.493164062 429.594726562 222.493164062 419.921875 159.080078125 c 0,14,15
 417.735351562 147.053710938 417.735351562 147.053710938 412.6328125 123 c 0,16,17
 402.506835938 74.3466796875 402.506835938 74.3466796875 400.2421875 50.83984375 c 1,16,-1
 398.6015625 50.83984375 l 1,17,-1
 374.001953125 129.559570312 l 1,18,-1
 372.362304688 129.559570312 l 1,19,-1
 365.801757812 93.48046875 l 1,20,-1
 364.162109375 93.48046875 l 1,21,-1
 352.681640625 142.6796875 l 1,22,-1
 351.041992188 142.6796875 l 1,23,-1
 342.841796875 93.48046875 l 1,24,-1
 341.202148438 93.48046875 l 1,25,-1
 329.721679688 142.6796875 l 1,26,-1
 328.08203125 142.6796875 l 1,27,-1
 319.881835938 93.48046875 l 1,28,-1
 318.2421875 93.48046875 l 1,29,30
 315.630859375 137.524414062 315.630859375 137.524414062 272.322265625 209.919921875 c 0,31,32
 270.052734375 213.323242188 270.052734375 213.323242188 261.642578125 222.462890625 c 0,33,34
 244.7421875 241.921875 244.7421875 241.921875 242.801757812 249.280273438 c 0,33,34
 242.801757812 255.01953125 242.801757812 255.01953125 244.442382812 267.3203125 c 0,35,36
 245.952148438 280.077148438 245.952148438 280.077148438 246.08203125 285.360351562 c 0,35,36
 246.08203125 287.383789062 246.08203125 287.383789062 244.98828125 290.826171875 c 0,37,38
 244.197265625 296.37109375 244.197265625 296.37109375 244.442382812 298.48046875 c 0,37,38
 247.305664062 308.669921875 247.305664062 308.669921875 270.681640625 352.599609375 c 1,39,40
 292.907226562 406.06640625 292.907226562 406.06640625 303.482421875 447.719726562 c 0,41,42
 319.249023438 516.99609375 319.249023438 516.99609375 288.721679688 656 c 0,43,44
 244.715820312 853.955078125 244.715820312 853.955078125 173.921875 1026.63964844 c 0,45,46
 151.782226562 1083.21972656 151.782226562 1083.21972656 124.721679688 1139.79980469 c 0,47,48
 122.326171875 1145.7890625 122.326171875 1145.7890625 114.795898438 1158.84082031 c 0,49,50
 101.163085938 1182.46875 101.163085938 1182.46875 100.122070312 1193.91992188 c 0,49,50
 100.547851562 1195.37109375 100.547851562 1195.37109375 103.40234375 1205.40039062 c 0,51,52
 103.40234375 1210.27734375 103.40234375 1210.27734375 101.618164062 1220.66992188 c 0,53,54
 99.5556640625 1235.32324219 99.5556640625 1235.32324219 100.122070312 1241.48046875 c 0,53,54
 100.122070312 1248.04003906 100.122070312 1248.04003906 112.1796875 1255.53710938 c 2,55,-1
 113.2421875 1256.24023438 l 1,55,56
 125.33984375 1269.04003906 125.33984375 1269.04003906 137.841796875 1290.6796875 c 0,57,58
 145.202148438 1304.875 145.202148438 1304.875 181.891601562 1408.546875 c 0,59,60
 185.352539062 1418.32519531 185.352539062 1418.32519531 188.681640625 1426.79980469 c 1,0,-1
216.561523438 1320.20019531 m 1,59,60
 209.181640625 1307.90039062 209.181640625 1307.90039062 198.521484375 1280.01953125 c 0,61,62
 187.403320312 1251.76367188 187.403320312 1251.76367188 180.482421875 1239.83984375 c 0,61,62
 178.888671875 1237.18457031 178.888671875 1237.18457031 173.443359375 1230.60546875 c 0,63,64
 161.696289062 1215.03027344 161.696289062 1215.03027344 160.801757812 1208.6796875 c 0,63,64
 161.612304688 1203.81933594 161.612304688 1203.81933594 170.641601562 1187.36035156 c 0,65,66
 173.921875 1179.98046875 173.921875 1179.98046875 180.482421875 1166.04003906 c 0,67,68
 187.293945312 1151.4765625 187.293945312 1151.4765625 190.322265625 1144.71972656 c 0,67,68
 233.084960938 1042.44726562 233.084960938 1042.44726562 251.001953125 990.559570312 c 0,69,70
 352.9375 701.211914062 352.9375 701.211914062 359.2421875 498.559570312 c 0,71,72
 360.930664062 426.258789062 360.930664062 426.258789062 333.001953125 349.3203125 c 0,73,74
 330.338867188 340.666015625 330.338867188 340.666015625 320.612304688 321.583984375 c 0,75,76
 306.53515625 292.731445312 306.53515625 292.731445312 305.122070312 280.440429688 c 1,75,76
 306.2109375 273.989257812 306.2109375 273.989257812 311.681640625 265.6796875 c 0,77,78
 330.706054688 232.388671875 330.706054688 232.388671875 332.030273438 231.149414062 c 0,79,80
 334.990234375 228.879882812 334.990234375 228.879882812 336.282226562 227.959960938 c 1,79,80
 337.193359375 248.916015625 337.193359375 248.916015625 344.077148438 290.827148438 c 0,81,82
 349.551757812 324.90234375 349.551757812 324.90234375 351.041992188 341.120117188 c 0,81,82
 365.966796875 501.283203125 365.966796875 501.283203125 364.162109375 605.16015625 c 0,83,84
 359.00390625 950.216796875 359.00390625 950.216796875 216.561523438 1320.20019531 c 1,59,60
251.001953125 32.7998046875 m 1,85,86
 353.33984375 37.375 353.33984375 37.375 380.561523438 -21.3203125 c 0,87,88
 383.841796875 -29.51953125 383.841796875 -29.51953125 384.662109375 -46.740234375 c 0,89,90
 386.029296875 -64.44140625 386.029296875 -64.44140625 388.76171875 -72.16015625 c 0,89,90
 391.774414062 -79.6904296875 391.774414062 -79.6904296875 402.1171875 -92.1904296875 c 0,91,92
 414.62890625 -108.442382812 414.62890625 -108.442382812 418.282226562 -118.080078125 c 0,91,92
 434.248046875 -173.075195312 434.248046875 -173.075195312 392.163085938 -211.013671875 c 0,93,94
 371.224609375 -228.356445312 371.224609375 -228.356445312 346.122070312 -231.240234375 c 1,93,94
 304.181640625 -232.884765625 304.181640625 -232.884765625 278.881835938 -213.200195312 c 0,95,96
 275.116210938 -210.1875 275.116210938 -210.1875 269.024414062 -202.161132812 c 0,97,98
 261.17578125 -192.959960938 261.17578125 -192.959960938 257.561523438 -190.240234375 c 0,97,98
 254.197265625 -188.935546875 254.197265625 -188.935546875 226.40234375 -185.3203125 c 1,99,100
 190.983398438 -171.793945312 190.983398438 -171.793945312 172.282226562 -136.120117188 c 0,101,102
 169.251953125 -127.2890625 169.251953125 -127.2890625 165.721679688 -86.919921875 c 1,103,104
 164.57421875 0.89453125 164.57421875 0.89453125 218.202148438 24.599609375 c 0,105,106
 229.716796875 29.7431640625 229.716796875 29.7431640625 251.001953125 32.7998046875 c 1,85,86
277.2421875 -18.0400390625 m 0,107,108
 248.0546875 -16.2158203125 248.0546875 -16.2158203125 224.26953125 -52.4150390625 c 0,109,110
 215.528320312 -67.216796875 215.528320312 -67.216796875 214.921875 -78.7197265625 c 0,109,110
 214.921875 -106.78125 214.921875 -106.78125 251.8671875 -130.360351562 c 0,111,112
 265.453125 -138.197265625 265.453125 -138.197265625 275.6015625 -139.400390625 c 0,111,112
 304.7890625 -141.224609375 304.7890625 -141.224609375 328.57421875 -105.025390625 c 0,113,114
 337.315429688 -90.2236328125 337.315429688 -90.2236328125 337.921875 -78.7197265625 c 0,113,114
 337.921875 -48.18359375 337.921875 -48.18359375 301.69921875 -26.0517578125 c 0,115,116
 287.971679688 -18.587890625 287.971679688 -18.587890625 277.2421875 -18.0400390625 c 0,107,108
EndSplineSet
EndChar

StartChar: percent
Encoding: 37 37 8
Width: 1082
VWidth: 1639
GlyphClass: 2
Flags: W
LayerCount: 2
Fore
SplineSet
623.771484375 967.599609375 m 1,0,1
 625.198242188 974.421875 625.198242188 974.421875 648.37109375 1033.20019531 c 0,2,3
 656.571289062 1055.33984375 656.571289062 1055.33984375 672.970703125 1098.79980469 c 0,4,5
 689.576171875 1142.83300781 689.576171875 1142.83300781 697.571289062 1164.40039062 c 0,4,5
 700.8515625 1171.78027344 700.8515625 1171.78027344 706.590820312 1187.36035156 c 0,6,7
 712.618164062 1203.41503906 712.618164062 1203.41503906 715.611328125 1210.3203125 c 0,6,7
 721.702148438 1225.17382812 721.702148438 1225.17382812 723.811523438 1226.71972656 c 0,8,9
 733.2109375 1230.765625 733.2109375 1230.765625 787.771484375 1230 c 1,10,11
 880.203125 1233.2421875 880.203125 1233.2421875 923.890625 1233.28027344 c 1,12,-1
 912.411132812 1210.3203125 l 1,13,-1
 923.890625 1210.3203125 l 1,14,-1
 912.411132812 1187.36035156 l 1,15,-1
 923.890625 1187.36035156 l 1,16,-1
 900.930664062 1143.08007812 l 1,17,-1
 958.331054688 1144.71972656 l 1,18,19
 948.860351562 1122.86328125 948.860351562 1122.86328125 891.090820312 1020.08007812 c 0,20,21
 873.178710938 986.725585938 873.178710938 986.725585938 837.7890625 919.495117188 c 0,22,23
 778.754882812 807.435546875 778.754882812 807.435546875 748.411132812 752.759765625 c 0,22,23
 486.448242188 263.138671875 486.448242188 263.138671875 356.451171875 -31.16015625 c 0,24,25
 271.421875 -222.672851562 271.421875 -222.672851562 259.69140625 -252.559570312 c 1,26,-1
 256.411132812 -252.559570312 l 1,27,-1
 230.170898438 -196.799804688 l 1,28,-1
 225.250976562 -209.919921875 l 1,29,-1
 221.970703125 -209.919921875 l 1,30,-1
 212.130859375 -186.959960938 l 1,31,-1
 202.291015625 -209.919921875 l 1,32,-1
 199.010742188 -209.919921875 l 1,33,-1
 189.170898438 -186.959960938 l 1,34,-1
 179.331054688 -209.919921875 l 1,35,-1
 176.05078125 -209.919921875 l 1,36,37
 174.081054688 -205.2734375 174.081054688 -205.2734375 141.611328125 -136.120117188 c 0,38,39
 125.961914062 -103.782226562 125.961914062 -103.782226562 125.2109375 -100.040039062 c 0,40,41
 124.141601562 -90.716796875 124.141601562 -90.716796875 128.491210938 -65.599609375 c 0,42,43
 128.491210938 -63.4912109375 128.491210938 -63.4912109375 126.68359375 -59.2744140625 c 0,44,45
 125.061523438 -53.1044921875 125.061523438 -53.1044921875 125.2109375 -50.83984375 c 0,44,45
 126.7109375 -45.8759765625 126.7109375 -45.8759765625 141.611328125 -22.9599609375 c 0,46,47
 147.3515625 -13.1201171875 147.3515625 -13.1201171875 159.651367188 5.740234375 c 0,48,49
 172.236328125 25.205078125 172.236328125 25.205078125 177.69140625 34.4404296875 c 0,48,49
 252.704101562 154.666992188 252.704101562 154.666992188 297.411132812 236.16015625 c 0,50,51
 384.380859375 394.473632812 384.380859375 394.473632812 404.010742188 434.599609375 c 0,52,53
 448.942382812 529.723632812 448.942382812 529.723632812 523.731445312 718.3203125 c 0,54,55
 531.173828125 736.462890625 531.173828125 736.462890625 547.157226562 773.106445312 c 0,56,57
 587.865234375 867.037109375 587.865234375 867.037109375 600.811523438 913.48046875 c 1,56,57
 554.206054688 866.875 554.206054688 866.875 499.358398438 889.498046875 c 0,58,59
 492.564453125 892.59375 492.564453125 892.59375 487.651367188 895.440429688 c 0,58,59
 482.3359375 899.236328125 482.3359375 899.236328125 473.1640625 909.583984375 c 0,60,61
 462.65625 921.4375 462.65625 921.4375 456.491210938 924.959960938 c 0,60,61
 450.555664062 927.077148438 450.555664062 927.077148438 436.811523438 926.599609375 c 1,62,63
 415.102539062 933.3203125 415.102539062 933.3203125 402.37109375 941.360351562 c 0,64,65
 366.41015625 968.9296875 366.41015625 968.9296875 366.291015625 1039.75976562 c 0,66,67
 366.77734375 1078.04003906 366.77734375 1078.04003906 369.571289062 1087.3203125 c 0,68,69
 389.997070312 1145.97363281 389.997070312 1145.97363281 481.090820312 1146.36035156 c 0,70,71
 529.08203125 1145.33105469 529.08203125 1145.33105469 549.970703125 1131.59960938 c 1,72,73
 577.814453125 1109.75878906 577.814453125 1109.75878906 586.05078125 1077.48046875 c 0,74,75
 586.752929688 1073.27050781 586.752929688 1073.27050781 586.353515625 1062.40625 c 0,76,77
 586.291992188 1047.73242188 586.291992188 1047.73242188 587.69140625 1043.04003906 c 0,76,77
 590.65234375 1038.10546875 590.65234375 1038.10546875 599.065429688 1029.30273438 c 0,78,79
 604.758789062 1023.34570312 604.758789062 1023.34570312 607.37109375 1020.08007812 c 0,78,79
 621.6328125 997.013671875 621.6328125 997.013671875 622.130859375 967.599609375 c 1,80,-1
 623.771484375 967.599609375 l 1,0,1
851.731445312 1185.71972656 m 1,81,-1
 791.05078125 1182.44042969 l 1,82,-1
 768.090820312 1179.16015625 l 1,83,-1
 753.331054688 1143.08007812 l 1,84,-1
 718.890625 1052.87988281 l 1,85,-1
 604.090820312 756.040039062 l 1,86,-1
 564.731445312 659.280273438 l 1,87,-1
 549.970703125 616.639648438 l 1,88,-1
 735.291015625 967.599609375 l 1,89,-1
 810.731445312 1108.63964844 l 1,90,-1
 851.731445312 1185.71972656 l 1,81,-1
477.811523438 1097.16015625 m 0,91,92
 448.624023438 1098.984375 448.624023438 1098.984375 424.838867188 1062.78515625 c 0,93,94
 416.09765625 1047.98339844 416.09765625 1047.98339844 415.491210938 1036.48046875 c 0,93,94
 415.491210938 1006.83105469 415.491210938 1006.83105469 451.713867188 984.534179688 c 0,95,96
 465.366210938 976.966796875 465.366210938 976.966796875 476.170898438 975.799804688 c 0,95,96
 503.754882812 973.9609375 503.754882812 973.9609375 528.807617188 1010.90234375 c 0,97,98
 537.841796875 1025.66699219 537.841796875 1025.66699219 538.491210938 1036.48046875 c 0,97,98
 538.491210938 1064.54101562 538.491210938 1064.54101562 501.545898438 1088.12011719 c 0,99,100
 488.499023438 1096.44726562 488.499023438 1096.44726562 477.811523438 1097.16015625 c 0,91,92
602.451171875 915.120117188 m 1,99,-1
 600.811523438 913.48046875 l 1,100,-1
 602.451171875 915.120117188 l 1,99,-1
548.331054688 615 m 1,101,-1
 546.69140625 613.360351562 l 1,102,-1
 548.331054688 615 l 1,101,-1
527.010742188 439.51953125 m 1,103,-1
 525.37109375 437.879882812 l 1,104,-1
 527.010742188 439.51953125 l 1,103,-1
525.37109375 436.240234375 m 1,105,-1
 523.731445312 434.599609375 l 1,106,-1
 525.37109375 436.240234375 l 1,105,-1
523.731445312 432.959960938 m 1,107,-1
 522.090820312 431.3203125 l 1,108,-1
 523.731445312 432.959960938 l 1,107,-1
522.090820312 429.6796875 m 1,109,-1
 520.451171875 428.040039062 l 1,110,-1
 522.090820312 429.6796875 l 1,109,-1
520.451171875 426.400390625 m 1,111,-1
 481.090820312 352.599609375 l 1,112,-1
 417.130859375 221.400390625 l 1,113,-1
 418.771484375 221.400390625 l 1,114,-1
 489.291015625 355.879882812 l 1,115,-1
 520.451171875 426.400390625 l 1,111,-1
307.250976562 126.280273438 m 1,116,-1
 305.611328125 124.639648438 l 1,117,-1
 307.250976562 126.280273438 l 1,116,-1
305.611328125 123 m 1,118,-1
 303.970703125 121.360351562 l 1,119,-1
 305.611328125 123 l 1,118,-1
303.970703125 119.719726562 m 1,120,-1
 302.331054688 118.080078125 l 1,121,-1
 303.970703125 119.719726562 l 1,120,-1
302.331054688 116.440429688 m 2,122,123
 298.290039062 111.250976562 298.290039062 111.250976562 272.811523438 70.51953125 c 0,124,125
 263.791015625 54.9404296875 263.791015625 54.9404296875 244.930664062 23.7802734375 c 0,126,127
 225.782226562 -7.9267578125 225.782226562 -7.9267578125 217.05078125 -22.9599609375 c 0,126,127
 214.202148438 -27.234375 214.202148438 -27.234375 206.33203125 -37.193359375 c 0,128,129
 184.94140625 -64.263671875 184.94140625 -64.263671875 182.611328125 -77.080078125 c 0,128,129
 182.485351562 -84.0859375 182.485351562 -84.0859375 199.010742188 -114.799804688 c 1,130,-1
 200.651367188 -114.799804688 l 1,131,-1
 302.331054688 116.440429688 l 2,122,123
464.69140625 60.6796875 m 1,132,133
 563.842773438 68.9921875 563.842773438 68.9921875 594.250976562 11.48046875 c 0,134,135
 595.685546875 8.3232421875 595.685546875 8.3232421875 601.046875 -31.31640625 c 0,136,137
 602.458984375 -39.26171875 602.458984375 -39.26171875 604.090820312 -44.2802734375 c 0,136,137
 606.451171875 -51.3603515625 606.451171875 -51.3603515625 616.561523438 -62.62109375 c 0,138,139
 627.541992188 -76.080078125 627.541992188 -76.080078125 630.331054688 -83.6396484375 c 0,138,139
 653.138671875 -150.163085938 653.138671875 -150.163085938 604.108398438 -185.48046875 c 0,140,141
 584.999023438 -198.130859375 584.999023438 -198.130859375 561.451171875 -201.719726562 c 1,140,141
 519.416992188 -203.366210938 519.416992188 -203.366210938 494.2109375 -185.3203125 c 0,142,143
 491.076171875 -182.185546875 491.076171875 -182.185546875 485.341796875 -175.026367188 c 0,144,145
 475.6171875 -163.891601562 475.6171875 -163.891601562 471.250976562 -160.719726562 c 0,144,145
 466.708007812 -157.994140625 466.708007812 -157.994140625 453.8125 -157.583007812 c 0,146,147
 443.571289062 -156.830078125 443.571289062 -156.830078125 440.090820312 -155.799804688 c 0,146,147
 406.567382812 -143.888671875 406.567382812 -143.888671875 389.250976562 -111.51953125 c 1,148,149
 381.065429688 -91.826171875 381.065429688 -91.826171875 381.05078125 -59.0400390625 c 1,150,151
 378.315429688 -22.544921875 378.315429688 -22.544921875 382.69140625 -6.5595703125 c 0,152,153
 396.48828125 50.96484375 396.48828125 50.96484375 464.69140625 60.6796875 c 1,132,133
490.930664062 9.83984375 m 0,154,155
 461.16796875 9.83984375 461.16796875 9.83984375 438.568359375 -25.091796875 c 0,156,157
 430.828125 -38.5869140625 430.828125 -38.5869140625 430.250976562 -49.2001953125 c 0,156,157
 430.250976562 -79.736328125 430.250976562 -79.736328125 466.473632812 -101.868164062 c 0,158,159
 480.201171875 -109.33203125 480.201171875 -109.33203125 490.930664062 -109.879882812 c 0,158,159
 527.267578125 -109.879882812 527.267578125 -109.879882812 546.842773438 -76.3251953125 c 0,160,161
 552.784179688 -64.4912109375 552.784179688 -64.4912109375 553.250976562 -54.1201171875 c 0,160,161
 551.818359375 -27.3076171875 551.818359375 -27.3076171875 522.090820312 -3.2802734375 c 0,162,163
 502.831054688 10.5 502.831054688 10.5 490.930664062 9.83984375 c 0,154,155
EndSplineSet
EndChar

StartChar: parenleft
Encoding: 40 40 11
Width: 616
VWidth: 1639
GlyphClass: 2
Flags: W
LayerCount: 2
Fore
SplineSet
432.838867188 1436.63964844 m 1,0,-1
 434.479492188 1410.40039062 l 1,1,-1
 436.119140625 1410.40039062 l 1,2,-1
 455.798828125 1436.63964844 l 1,3,-1
 457.439453125 1436.63964844 l 1,4,-1
 457.439453125 1410.40039062 l 1,5,-1
 459.079101562 1410.40039062 l 1,6,-1
 478.758789062 1436.63964844 l 1,7,-1
 480.399414062 1436.63964844 l 1,8,-1
 480.399414062 1307.08007812 l 1,9,-1
 482.0390625 1307.08007812 l 1,10,-1
 513.19921875 1348.08007812 l 1,11,-1
 514.838867188 1348.08007812 l 1,12,-1
 514.838867188 1231.63964844 l 2,13,14
 514.838867188 1227.47363281 514.838867188 1227.47363281 515.646484375 1217.54882812 c 0,15,16
 517.233398438 1189.63574219 517.233398438 1189.63574219 513.19921875 1179.16015625 c 0,15,16
 507.357421875 1167.8125 507.357421875 1167.8125 477.119140625 1139.79980469 c 1,17,18
 398.46484375 1047.88867188 398.46484375 1047.88867188 386.918945312 1033.20019531 c 0,19,20
 251.88671875 850.607421875 251.88671875 850.607421875 237.678710938 657.639648438 c 0,21,22
 234.047851562 588.459960938 234.047851562 588.459960938 249.159179688 482.16015625 c 0,23,24
 273.930664062 300.057617188 273.930664062 300.057617188 352.479492188 124.639648438 c 1,25,26
 398.9453125 31.70703125 398.9453125 31.70703125 413.159179688 6.5595703125 c 0,27,28
 417.456054688 -1.419921875 417.456054688 -1.419921875 427.514648438 -17.982421875 c 0,29,30
 444.772460938 -46.8662109375 444.772460938 -46.8662109375 450.87890625 -60.6796875 c 0,29,30
 452.364257812 -65.134765625 452.364257812 -65.134765625 451.965820312 -74.197265625 c 0,31,32
 452.190429688 -86.2216796875 452.190429688 -86.2216796875 454.159179688 -91.83984375 c 0,31,32
 456.940429688 -100.182617188 456.940429688 -100.182617188 469.104492188 -117.627929688 c 0,33,34
 485.41796875 -142.430664062 485.41796875 -142.430664062 486.958984375 -154.16015625 c 1,33,34
 485.631835938 -161.669921875 485.631835938 -161.669921875 468.918945312 -195.16015625 c 0,35,36
 439.227539062 -258.100585938 439.227539062 -258.100585938 426.279296875 -290.280273438 c 1,37,-1
 422.999023438 -290.280273438 l 1,38,-1
 393.479492188 -242.719726562 l 1,39,-1
 391.838867188 -247.639648438 l 1,40,-1
 388.559570312 -247.639648438 l 1,41,-1
 375.439453125 -229.599609375 l 1,42,-1
 368.87890625 -247.639648438 l 1,43,-1
 365.598632812 -247.639648438 l 1,44,-1
 352.479492188 -229.599609375 l 1,45,-1
 345.918945312 -247.639648438 l 1,46,-1
 342.638671875 -247.639648438 l 1,47,48
 120.567382812 89.4560546875 120.567382812 89.4560546875 101.559570312 537.919921875 c 0,49,50
 91.39453125 760.778320312 91.39453125 760.778320312 147.479492188 941.360351562 c 1,51,52
 209.01171875 1126.66113281 209.01171875 1126.66113281 331.159179688 1303.79980469 c 0,53,54
 349.720703125 1331.15429688 349.720703125 1331.15429688 391.401367188 1383.41015625 c 0,55,56
 419.939453125 1419.3046875 419.939453125 1419.3046875 432.838867188 1436.63964844 c 1,0,-1
434.479492188 1333.3203125 m 1,55,56
 415.18359375 1316.89941406 415.18359375 1316.89941406 368.87890625 1244.75976562 c 0,57,58
 282.885742188 1115.13476562 282.885742188 1115.13476562 252.439453125 1043.04003906 c 1,59,-1
 254.079101562 1043.04003906 l 1,60,61
 303.279296875 1124.21972656 303.279296875 1124.21972656 367.239257812 1195.55957031 c 0,62,63
 397.268554688 1228.76171875 397.268554688 1228.76171875 411.51953125 1243.12011719 c 0,64,65
 431.134765625 1263.92089844 431.134765625 1263.92089844 432.838867188 1267.71972656 c 0,66,67
 435.684570312 1278.65136719 435.684570312 1278.65136719 434.479492188 1333.3203125 c 1,55,56
252.439453125 1041.40039062 m 1,68,-1
 250.798828125 1039.75976562 l 1,69,-1
 252.439453125 1041.40039062 l 1,68,-1
250.798828125 1038.12011719 m 1,70,-1
 249.159179688 1036.48046875 l 1,71,-1
 250.798828125 1038.12011719 l 1,70,-1
157.319335938 731.440429688 m 1,72,73
 153.080078125 720.001953125 153.080078125 720.001953125 149.119140625 662.559570312 c 0,74,75
 144.711914062 583.556640625 144.711914062 583.556640625 152.399414062 495.280273438 c 0,76,77
 187.278320312 127.977539062 187.278320312 127.977539062 362.319335938 -159.080078125 c 1,78,-1
 365.598632812 -159.080078125 l 1,79,80
 368.163085938 -151.38671875 368.163085938 -151.38671875 378.458984375 -133.221679688 c 0,81,82
 394.484375 -103.578125 394.484375 -103.578125 395.119140625 -91.83984375 c 0,81,82
 393.7734375 -87.43359375 393.7734375 -87.43359375 383.638671875 -68.8798828125 c 0,83,84
 378.71875 -59.8603515625 378.71875 -59.8603515625 368.87890625 -42.6396484375 c 0,85,86
 358.731445312 -24.8095703125 358.731445312 -24.8095703125 354.119140625 -16.400390625 c 0,85,86
 311.0625 65.5205078125 311.0625 65.5205078125 268.838867188 165.639648438 c 0,87,88
 157.633789062 435.692382812 157.633789062 435.692382812 157.319335938 731.440429688 c 1,72,73
EndSplineSet
EndChar

StartChar: parenright
Encoding: 41 41 12
Width: 716
VWidth: 1639
GlyphClass: 2
Flags: W
LayerCount: 2
Fore
SplineSet
190.42578125 1435 m 1,0,-1
 203.544921875 1415.3203125 l 1,1,-1
 205.185546875 1415.3203125 l 1,2,-1
 215.025390625 1435 l 1,3,-1
 226.505859375 1415.3203125 l 1,4,-1
 228.145507812 1415.3203125 l 1,5,-1
 237.985351562 1435 l 1,6,7
 318.78125 1311.07226562 318.78125 1311.07226562 393.78515625 1115.20019531 c 1,8,9
 602.204101562 586.850585938 602.204101562 586.850585938 456.10546875 164 c 1,10,11
 398.036132812 3.283203125 398.036132812 3.283203125 295.385742188 -145.959960938 c 0,12,13
 278.165039062 -171.379882812 278.165039062 -171.379882812 239.625 -219.759765625 c 0,14,15
 200.791015625 -268.7578125 200.791015625 -268.7578125 183.865234375 -293.559570312 c 1,14,-1
 182.225585938 -293.559570312 l 1,15,-1
 182.225585938 -209.919921875 l 1,16,-1
 180.584960938 -209.919921875 l 1,17,-1
 149.42578125 -250.919921875 l 1,18,-1
 147.78515625 -250.919921875 l 1,19,-1
 147.78515625 -224.6796875 l 1,20,-1
 126.465820312 -250.919921875 l 1,21,-1
 124.825195312 -250.919921875 l 1,22,-1
 124.825195312 -224.6796875 l 1,23,-1
 103.505859375 -250.919921875 l 1,24,-1
 101.865234375 -250.919921875 l 1,25,-1
 101.865234375 -96.759765625 l 2,26,27
 101.865234375 -92.126953125 101.865234375 -92.126953125 100.775390625 -80.0283203125 c 0,28,29
 98.3505859375 -45.220703125 98.3505859375 -45.220703125 103.505859375 -34.4404296875 c 0,28,29
 109.127929688 -24.6484375 109.127929688 -24.6484375 146.145507812 11.48046875 c 0,30,31
 170.474609375 36.1298828125 170.474609375 36.1298828125 211.745117188 86.919921875 c 1,32,33
 368.286132812 291.196289062 368.286132812 291.196289062 377.385742188 470.6796875 c 1,34,35
 386.963867188 705.919921875 386.963867188 705.919921875 246.185546875 1021.71972656 c 0,36,37
 212.5703125 1100.42871094 212.5703125 1100.42871094 167.465820312 1180.79980469 c 0,38,39
 163.365234375 1189 163.365234375 1189 154.345703125 1204.58007812 c 0,40,41
 145.09375 1220.77636719 145.09375 1220.77636719 141.225585938 1228.36035156 c 2,40,41
 129.745117188 1251.3203125 l 1,42,43
 128.80859375 1257.87988281 128.80859375 1257.87988281 131.217773438 1271 c 0,44,45
 132.856445312 1281.38671875 132.856445312 1281.38671875 133.025390625 1285.75976562 c 0,44,45
 133.025390625 1288.82714844 133.025390625 1288.82714844 130.971679688 1293.31445312 c 0,46,47
 129.655273438 1298.63085938 129.655273438 1298.63085938 129.745117188 1300.51953125 c 0,46,47
 132.551757812 1308.13574219 132.551757812 1308.13574219 144.505859375 1331.6796875 c 0,48,49
 149.9453125 1344.37207031 149.9453125 1344.37207031 162.171875 1369.33496094 c 0,50,51
 183.200195312 1412.84863281 183.200195312 1412.84863281 190.42578125 1435 c 1,0,-1
218.305664062 1346.44042969 m 1,50,51
 209.243164062 1332.18652344 209.243164062 1332.18652344 195.345703125 1297.24023438 c 0,52,53
 187.62109375 1280.41796875 187.62109375 1280.41796875 187.145507812 1275.91992188 c 0,54,55
 188.131835938 1273.6796875 188.131835938 1273.6796875 198.625 1254.59960938 c 0,56,57
 202.725585938 1247.21972656 202.725585938 1247.21972656 210.92578125 1231.63964844 c 0,58,59
 219.41796875 1215.58496094 219.41796875 1215.58496094 223.225585938 1208.6796875 c 0,58,59
 244.182617188 1170.68652344 244.182617188 1170.68652344 290.465820312 1070.91992188 c 0,60,61
 424.581054688 773.66015625 424.581054688 773.66015625 424.9453125 457.559570312 c 1,62,-1
 426.584960938 457.559570312 l 1,63,64
 427.244140625 479.29296875 427.244140625 479.29296875 430.672851562 522.178710938 c 0,65,66
 435.6328125 586.465820312 435.6328125 586.465820312 434.78515625 618.280273438 c 0,65,66
 415.75390625 1021.31347656 415.75390625 1021.31347656 218.305664062 1346.44042969 c 1,50,51
329.825195312 144.3203125 m 1,67,-1
 292.10546875 86.919921875 l 1,68,-1
 213.385742188 -11.48046875 l 1,69,-1
 170.745117188 -57.400390625 l 1,70,-1
 149.42578125 -82 l 1,71,-1
 147.78515625 -147.599609375 l 1,72,-1
 149.42578125 -147.599609375 l 1,73,74
 247.982421875 -12.4365234375 247.982421875 -12.4365234375 287.185546875 60.6796875 c 0,75,76
 325.541992188 129.72265625 325.541992188 129.72265625 329.825195312 144.3203125 c 1,67,-1
EndSplineSet
EndChar

StartChar: plus
Encoding: 43 43 14
Width: 1251
VWidth: 1639
GlyphClass: 2
Flags: W
LayerCount: 2
Fore
SplineSet
577.080078125 1067.63964844 m 1,0,-1
 600.040039062 1056.16015625 l 1,1,-1
 600.040039062 1067.63964844 l 1,2,-1
 623 1056.16015625 l 1,3,-1
 623 1067.63964844 l 1,4,-1
 718.120117188 1016.79980469 l 1,5,-1
 713.200195312 995.48046875 l 1,6,-1
 718.120117188 993.83984375 l 1,7,-1
 713.200195312 972.51953125 l 1,8,-1
 718.120117188 970.879882812 l 1,9,-1
 713.200195312 947.919921875 l 1,10,-1
 752.560546875 928.240234375 l 1,11,-1
 727.959960938 775.719726562 l 1,12,-1
 706.640625 605.16015625 l 1,13,-1
 703.360351562 528.080078125 l 1,14,-1
 706.640625 501.83984375 l 1,15,-1
 739.440429688 498.559570312 l 1,16,-1
 832.919921875 498.559570312 l 1,17,-1
 1208.48046875 498.559570312 l 1,18,-1
 1197 475.599609375 l 1,19,-1
 1208.48046875 475.599609375 l 1,20,-1
 1197 452.639648438 l 1,21,-1
 1208.48046875 452.639648438 l 1,22,-1
 1187.16015625 410 l 1,23,-1
 1242.91992188 410 l 1,24,-1
 1206.84082031 341.120117188 l 1,25,-1
 1192.08007812 318.16015625 l 1,26,-1
 1146.16015625 323.080078125 l 1,27,-1
 1041.20019531 336.200195312 l 1,28,-1
 842.760742188 354.240234375 l 1,29,-1
 713.200195312 349.3203125 l 1,30,-1
 726.3203125 234.51953125 l 1,31,-1
 760.760742188 6.5595703125 l 1,32,-1
 777.16015625 -80.3603515625 l 1,33,-1
 780.440429688 -114.799804688 l 1,34,-1
 750.919921875 -132.83984375 l 1,35,-1
 657.440429688 -180.400390625 l 1,36,-1
 657.440429688 -119.719726562 l 1,37,-1
 623 -137.759765625 l 1,38,-1
 623 -126.280273438 l 1,39,-1
 600.040039062 -137.759765625 l 1,40,-1
 600.040039062 -126.280273438 l 1,41,-1
 577.080078125 -137.759765625 l 1,42,-1
 577.080078125 336.200195312 l 1,43,44
 563.229492188 335.938476562 563.229492188 335.938476562 483.600585938 323.080078125 c 0,45,46
 417.787109375 313.8203125 417.787109375 313.8203125 273.680664062 287 c 0,47,48
 210.83984375 275.818359375 210.83984375 275.818359375 188.400390625 270.599609375 c 0,49,50
 157.650390625 264.450195312 157.650390625 264.450195312 153.959960938 265.6796875 c 0,51,52
 147.045898438 267.984375 147.045898438 267.984375 137.318359375 294.159179688 c 0,53,54
 132.962890625 303.303710938 132.962890625 303.303710938 129.360351562 306.6796875 c 0,53,54
 124.63671875 309.041992188 124.63671875 309.041992188 88.6171875 305.966796875 c 0,55,56
 77.8505859375 305.047851562 77.8505859375 305.047851562 71.9599609375 308.3203125 c 0,55,56
 68.6806640625 309.959960938 68.6806640625 309.959960938 65.400390625 314.879882812 c 0,57,58
 62.1201171875 319.799804688 62.1201171875 319.799804688 60.48046875 323.900390625 c 0,59,60
 58.8408203125 328 58.8408203125 328 56.3798828125 335.379882812 c 2,61,-1
 53.919921875 342.759765625 l 1,57,58
 48.26171875 354.077148438 48.26171875 354.077148438 35.9609375 376.264648438 c 0,59,60
 15.9560546875 412.749023438 15.9560546875 412.749023438 8 431.3203125 c 1,59,-1
 19.48046875 431.3203125 l 1,60,-1
 8 454.280273438 l 1,61,-1
 19.48046875 454.280273438 l 1,62,-1
 8 477.240234375 l 1,63,-1
 577.080078125 498.559570312 l 1,64,-1
 577.080078125 1067.63964844 l 1,0,-1
624.640625 997.120117188 m 1,65,-1
 623 964.3203125 l 1,66,-1
 623 897.080078125 l 1,67,-1
 623 662.559570312 l 1,68,-1
 624.640625 662.559570312 l 1,69,70
 624.640625 706.916015625 624.640625 706.916015625 648.577148438 879.14453125 c 0,71,72
 649.024414062 882.390625 649.024414062 882.390625 649.240234375 883.959960938 c 0,71,72
 650.879882812 894.620117188 650.879882812 894.620117188 654.98046875 915.940429688 c 0,73,74
 659.125976562 937.806640625 659.125976562 937.806640625 660.720703125 947.919921875 c 2,73,74
 662.360351562 961.040039062 l 2,75,76
 664 974.16015625 664 974.16015625 662.360351562 974.16015625 c 0,75,76
 660.720703125 979.080078125 660.720703125 979.080078125 654.98046875 983.1796875 c 0,77,78
 649.240234375 987.280273438 649.240234375 987.280273438 636.940429688 992.200195312 c 2,79,-1
 624.640625 997.120117188 l 1,65,-1
624.640625 544.48046875 m 1,77,-1
 623 514.959960938 l 1,78,-1
 623 452.639648438 l 1,79,-1
 76.8798828125 432.959960938 l 1,80,-1
 112.959960938 360.799804688 l 1,81,-1
 288.440429688 393.599609375 l 1,82,-1
 559.040039062 432.959960938 l 1,83,-1
 623 434.599609375 l 1,84,-1
 623 -67.240234375 l 1,85,-1
 695.16015625 -31.16015625 l 1,86,-1
 647.600585938 264.040039062 l 1,87,-1
 632.840820312 391.959960938 l 1,88,89
 637.760742188 396.879882812 637.760742188 396.879882812 633.133789062 413.7578125 c 2,90,-1
 632.840820312 414.919921875 l 1,90,91
 637.760742188 419.83984375 637.760742188 419.83984375 633.133789062 436.717773438 c 2,92,-1
 632.840820312 437.879882812 l 1,92,-1
 809.959960938 442.799804688 l 1,93,-1
 987.080078125 426.400390625 l 1,94,-1
 1116.640625 410 l 1,95,-1
 1137.95996094 452.639648438 l 1,96,-1
 627.919921875 452.639648438 l 1,97,-1
 624.640625 544.48046875 l 1,77,-1
EndSplineSet
EndChar

StartChar: hyphen
Encoding: 45 45 16
AltUni2: 002212.ffffffff.0 0000ad.ffffffff.0
Width: 1473
VWidth: 1639
GlyphClass: 2
Flags: W
LayerCount: 2
Fore
SplineSet
120 360.799804688 m 1,0,1
 129.010742188 385.375 129.010742188 385.375 151.159179688 429.6796875 c 2,2,3
 164.279296875 455.919921875 l 2,4,5
 165.919921875 457.559570312 165.919921875 457.559570312 169.19921875 457.559570312 c 0,6,7
 172.479492188 457.559570312 172.479492188 457.559570312 178.219726562 457.559570312 c 2,8,-1
 183.959960938 457.559570312 l 2,6,7
 218.829101562 457.40625 218.829101562 457.40625 234.799804688 455.919921875 c 0,8,9
 330.115234375 444.564453125 330.115234375 444.564453125 402.079101562 444.440429688 c 0,10,11
 423.727539062 444.440429688 423.727539062 444.440429688 467.0234375 441.291015625 c 0,12,13
 532.514648438 436.791992188 532.514648438 436.791992188 564.439453125 439.51953125 c 0,12,13
 700.733398438 453.044921875 700.733398438 453.044921875 1025.96875 528.017578125 c 0,14,15
 1132.99511719 552.62890625 1132.99511719 552.62890625 1200.75976562 565.799804688 c 1,14,-1
 1202.39941406 560.879882812 l 1,15,-1
 1223.71972656 565.799804688 l 1,16,-1
 1225.359375 560.879882812 l 1,17,-1
 1246.6796875 565.799804688 l 1,18,-1
 1318.83984375 441.16015625 l 1,19,-1
 1305.71972656 441.16015625 l 1,20,-1
 1318.83984375 418.200195312 l 1,21,-1
 1315.55957031 418.200195312 l 1,22,-1
 1353.27929688 352.599609375 l 1,23,-1
 1094.15917969 334.559570312 l 1,24,-1
 498.83984375 293.559570312 l 1,25,-1
 200.359375 272.240234375 l 1,26,-1
 220.0390625 318.16015625 l 1,27,-1
 120 314.879882812 l 1,28,-1
 129.83984375 337.83984375 l 1,29,-1
 120 337.83984375 l 1,30,-1
 129.83984375 360.799804688 l 1,31,-1
 120 360.799804688 l 1,0,1
1246.6796875 439.51953125 m 1,32,-1
 1217.15917969 490.360351562 l 1,33,-1
 1204.0390625 508.400390625 l 1,34,-1
 1161.39941406 500.200195312 l 1,35,-1
 1063 478.879882812 l 1,36,-1
 803.879882812 423.120117188 l 1,37,-1
 715.319335938 408.360351562 l 1,38,-1
 671.0390625 400.16015625 l 1,39,-1
 838.319335938 411.639648438 l 1,40,-1
 1107.27929688 429.6796875 l 1,41,-1
 1246.6796875 439.51953125 l 1,32,-1
551.319335938 391.959960938 m 1,42,43
 548.029296875 392.025390625 548.029296875 392.025390625 302.0390625 401.799804688 c 0,44,45
 290.559570312 402.620117188 290.559570312 402.620117188 268.419921875 404.259765625 c 0,46,47
 245.682617188 405.940429688 245.682617188 405.940429688 234.799804688 406.719726562 c 2,46,47
 208.559570312 406.719726562 l 2,48,49
 206.919921875 406.719726562 206.919921875 406.719726562 205.279296875 404.259765625 c 0,50,51
 203.639648438 401.799804688 203.639648438 401.799804688 202 398.51953125 c 0,52,53
 200.359375 395.240234375 200.359375 395.240234375 198.719726562 391.959960938 c 0,54,55
 197.079101562 388.6796875 197.079101562 388.6796875 195.439453125 384.580078125 c 0,56,57
 193.799804688 380.48046875 193.799804688 380.48046875 192.979492188 378.01953125 c 0,58,59
 192.159179688 375.559570312 192.159179688 375.559570312 190.51953125 370.639648438 c 2,60,-1
 188.879882812 365.719726562 l 1,50,-1
 551.319335938 390.3203125 l 1,51,-1
 551.319335938 391.959960938 l 1,42,43
667.759765625 400.16015625 m 1,52,-1
 659.559570312 398.51953125 l 1,53,-1
 667.759765625 398.51953125 l 1,54,-1
 667.759765625 400.16015625 l 1,52,-1
EndSplineSet
EndChar

StartChar: period
Encoding: 46 46 17
Width: 556
VWidth: 1639
GlyphClass: 2
Flags: W
LayerCount: 2
Fore
SplineSet
170.52734375 188.599609375 m 1,0,1
 278.79296875 204.178710938 278.79296875 204.178710938 313.20703125 141.040039062 c 0,2,3
 317.306640625 132.01953125 317.306640625 132.01953125 318.126953125 113.16015625 c 0,4,5
 319.584960938 93.8134765625 319.584960938 93.8134765625 323.046875 85.2802734375 c 0,4,5
 325.418945312 77.375 325.418945312 77.375 336.368164062 64.4833984375 c 0,6,7
 348.116210938 49.4150390625 348.116210938 49.4150390625 350.926757812 41 c 0,6,7
 368.873046875 -12.8369140625 368.873046875 -12.8369140625 326.564453125 -52.5439453125 c 0,8,9
 308.74609375 -69.267578125 308.74609375 -69.267578125 285.327148438 -73.7998046875 c 1,8,9
 242.483398438 -78.724609375 242.483398438 -78.724609375 214.806640625 -57.400390625 c 0,10,11
 211.061523438 -54.4033203125 211.061523438 -54.4033203125 204.284179688 -45.7119140625 c 0,12,13
 195.635742188 -35.63671875 195.635742188 -35.63671875 191.846679688 -32.7998046875 c 0,12,13
 187.301757812 -30.0732421875 187.301757812 -30.0732421875 175.3515625 -29.6630859375 c 0,14,15
 165.724609375 -28.888671875 165.724609375 -28.888671875 162.327148438 -27.8798828125 c 0,14,15
 124.947265625 -15.53515625 124.947265625 -15.53515625 108.20703125 18.0400390625 c 0,16,17
 100.021484375 37.7333984375 100.021484375 37.7333984375 100.006835938 70.51953125 c 0,18,19
 99.3076171875 173.405273438 99.3076171875 173.405273438 170.52734375 188.599609375 c 1,0,1
211.52734375 139.400390625 m 0,20,21
 181.868164062 141.25390625 181.868164062 141.25390625 157.881835938 103.416015625 c 0,22,23
 150.383789062 90.279296875 150.383789062 90.279296875 149.20703125 80.3603515625 c 0,22,23
 149.20703125 50.0751953125 149.20703125 50.0751953125 185.169921875 26.66015625 c 0,24,25
 199.559570312 17.2919921875 199.559570312 17.2919921875 211.52734375 18.0400390625 c 0,24,25
 241.17578125 18.0400390625 241.17578125 18.0400390625 263.473632812 54.2626953125 c 0,26,27
 271.040039062 67.9150390625 271.040039062 67.9150390625 272.20703125 78.7197265625 c 0,26,27
 272.20703125 105.997070312 272.20703125 105.997070312 237.461914062 129.63671875 c 0,28,29
 223.11328125 139.400390625 223.11328125 139.400390625 211.52734375 139.400390625 c 0,20,21
EndSplineSet
EndChar

StartChar: slash
Encoding: 47 47 18
Width: 729
VWidth: 1639
GlyphClass: 2
Flags: W
LayerCount: 2
Fore
SplineSet
483.899414062 1249.6796875 m 1,0,-1
 685.619140625 1267.71972656 l 1,1,-1
 675.779296875 1244.75976562 l 1,2,-1
 685.619140625 1244.75976562 l 1,3,-1
 675.779296875 1221.79980469 l 1,4,-1
 685.619140625 1221.79980469 l 1,5,-1
 664.298828125 1172.59960938 l 1,6,-1
 720.059570312 1179.16015625 l 1,7,8
 713.568359375 1156.1953125 713.568359375 1156.1953125 688.899414062 1107 c 1,9,10
 677.418945312 1079.94042969 677.418945312 1079.94042969 653.639648438 1025 c 0,11,12
 629.645507812 969.53515625 629.645507812 969.53515625 618.37890625 943 c 0,11,12
 450.676757812 543.748046875 450.676757812 543.748046875 410.099609375 449.360351562 c 1,13,14
 307.154296875 197.16796875 307.154296875 197.16796875 234.619140625 -11.48046875 c 2,15,-1
 173.939453125 -186.959960938 l 2,16,17
 145.639648438 -271.232421875 145.639648438 -271.232421875 144.418945312 -273.879882812 c 1,18,-1
 142.779296875 -273.879882812 l 1,19,-1
 111.619140625 -224.6796875 l 1,20,-1
 109.979492188 -231.240234375 l 1,21,-1
 108.338867188 -231.240234375 l 1,22,-1
 96.859375 -209.919921875 l 1,23,-1
 95.21875 -209.919921875 l 1,24,-1
 87.01953125 -231.240234375 l 1,25,-1
 85.37890625 -231.240234375 l 1,26,-1
 73.8994140625 -209.919921875 l 1,27,-1
 72.2587890625 -209.919921875 l 1,28,-1
 64.0595703125 -231.240234375 l 1,29,-1
 62.4189453125 -231.240234375 l 1,30,31
 32.677734375 -181.493164062 32.677734375 -181.493164062 19.779296875 -157.440429688 c 0,32,33
 18.0859375 -154.0546875 18.0859375 -154.0546875 13.10546875 -146.833984375 c 0,34,35
 4.07421875 -132.317382812 4.07421875 -132.317382812 3.37890625 -126.280273438 c 0,34,35
 2.3876953125 -119.340820312 2.3876953125 -119.340820312 3.9873046875 -104.388671875 c 0,36,37
 5.01953125 -94.740234375 5.01953125 -94.740234375 5.01953125 -90.2001953125 c 0,36,37
 5.01953125 -88.232421875 5.01953125 -88.232421875 3.9697265625 -84.2958984375 c 0,38,39
 3.0625 -77.845703125 3.0625 -77.845703125 3.37890625 -75.4404296875 c 0,38,39
 6.537109375 -61.2275390625 6.537109375 -61.2275390625 41.927734375 0.8408203125 c 0,40,41
 45.546875 7.3662109375 45.546875 7.3662109375 47.6591796875 11.48046875 c 0,40,41
 120.016601562 156.432617188 120.016601562 156.432617188 159.178710938 247.639648438 c 0,42,43
 227.522460938 402.6015625 227.522460938 402.6015625 249.37890625 462.48046875 c 0,44,45
 295.865234375 592.408203125 295.865234375 592.408203125 390.418945312 921.6796875 c 1,46,47
 468.106445312 1178.04785156 468.106445312 1178.04785156 480.346679688 1233.19824219 c 0,48,49
 482.354492188 1242.33496094 482.354492188 1242.33496094 483.899414062 1249.6796875 c 1,0,-1
616.739257812 1213.59960938 m 1,48,-1
 529.819335938 1203.75976562 l 1,49,-1
 485.5390625 1047.95996094 l 1,50,-1
 396.979492188 739.639648438 l 1,51,-1
 355.979492188 601.879882812 l 1,52,-1
 357.619140625 601.879882812 l 1,53,-1
 431.418945312 779 l 1,54,-1
 616.739257812 1213.59960938 l 1,48,-1
342.859375 410 m 1,55,-1
 341.21875 408.360351562 l 1,56,-1
 342.859375 410 l 1,55,-1
341.21875 405.080078125 m 1,57,-1
 339.579101562 405.080078125 l 1,58,-1
 341.21875 405.080078125 l 1,57,-1
339.579101562 401.799804688 m 1,59,-1
 318.258789062 350.959960938 l 1,60,-1
 282.178710938 257.48046875 l 1,61,-1
 283.819335938 257.48046875 l 1,62,-1
 339.579101562 401.799804688 l 1,59,-1
282.178710938 255.83984375 m 1,63,-1
 280.5390625 254.200195312 l 1,64,-1
 282.178710938 255.83984375 l 1,63,-1
280.5390625 250.919921875 m 1,65,-1
 278.899414062 249.280273438 l 1,66,-1
 280.5390625 250.919921875 l 1,65,-1
278.899414062 247.639648438 m 1,67,-1
 277.258789062 246 l 1,68,-1
 278.899414062 247.639648438 l 1,67,-1
172.298828125 126.280273438 m 1,69,-1
 170.659179688 124.639648438 l 1,70,-1
 172.298828125 126.280273438 l 1,69,-1
170.659179688 123 m 1,71,72
 162.954101562 113.193359375 162.954101562 113.193359375 134.807617188 48.7958984375 c 0,73,74
 131.739257812 41.9814453125 131.739257812 41.9814453125 129.659179688 37.7197265625 c 0,73,74
 104.31640625 -10.5908203125 104.31640625 -10.5908203125 82.099609375 -57.400390625 c 0,75,76
 79.4755859375 -62.6484375 79.4755859375 -62.6484375 73.177734375 -73.1435546875 c 0,77,78
 63.7470703125 -89.4345703125 63.7470703125 -89.4345703125 60.779296875 -96.759765625 c 1,77,78
 58.0546875 -113.10546875 58.0546875 -113.10546875 78.76171875 -133.419921875 c 0,79,80
 80.591796875 -135.215820312 80.591796875 -135.215820312 82.099609375 -136.120117188 c 1,79,-1
 170.659179688 123 l 1,71,72
EndSplineSet
EndChar

StartChar: colon
Encoding: 58 58 29
Width: 557
VWidth: 1639
GlyphClass: 2
Flags: W
LayerCount: 2
Fore
SplineSet
173.805664062 782.280273438 m 1,0,1
 281.799804688 794.325195312 281.799804688 794.325195312 313.206054688 733.080078125 c 0,2,3
 317.296875 724.081054688 317.296875 724.081054688 318.123046875 704.65234375 c 0,4,5
 319.588867188 685.181640625 319.588867188 685.181640625 323.045898438 677.3203125 c 0,4,5
 326.690429688 670.03125 326.690429688 670.03125 336.571289062 658.044921875 c 0,6,7
 348.860351562 642.104492188 348.860351562 642.104492188 352.56640625 633.040039062 c 0,6,7
 369.004882812 578.245117188 369.004882812 578.245117188 325.537109375 539.782226562 c 0,8,9
 306.889648438 524.561523438 306.889648438 524.561523438 285.326171875 519.879882812 c 1,8,9
 242.9765625 515.869140625 242.9765625 515.869140625 213.166015625 537.919921875 c 0,10,11
 209.485351562 540.864257812 209.485351562 540.864257812 203.513671875 547.994140625 c 0,12,13
 195.5078125 556.571289062 195.5078125 556.571289062 191.845703125 559.240234375 c 0,12,13
 186.92578125 562.51953125 186.92578125 562.51953125 174.625976562 563.33984375 c 2,14,-1
 162.326171875 564.16015625 l 1,14,15
 123.0390625 579.9296875 123.0390625 579.9296875 108.206054688 611.719726562 c 0,16,17
 100.020507812 631.4140625 100.020507812 631.4140625 100.005859375 664.200195312 c 0,18,19
 99.322265625 768.709960938 99.322265625 768.709960938 173.805664062 782.280273438 c 1,0,1
206.606445312 733.080078125 m 0,20,21
 174.908203125 726.287109375 174.908203125 726.287109375 155.846679688 693.84375 c 0,22,23
 149.708984375 681.840820312 149.708984375 681.840820312 149.206054688 672.400390625 c 0,22,23
 149.206054688 645.147460938 149.206054688 645.147460938 182.745117188 621.291015625 c 0,24,25
 200.2265625 610.18359375 200.2265625 610.18359375 213.166015625 611.719726562 c 0,24,25
 245.409179688 616.01953125 245.409179688 616.01953125 265.533203125 650.693359375 c 0,26,27
 271.705078125 662.869140625 271.705078125 662.869140625 272.206054688 672.400390625 c 0,26,27
 270.323242188 700.640625 270.323242188 700.640625 236.337890625 724.041992188 c 0,28,29
 219.170898438 734.57421875 219.170898438 734.57421875 206.606445312 733.080078125 c 0,20,21
173.805664062 177.120117188 m 1,28,29
 280.541992188 189.451171875 280.541992188 189.451171875 313.206054688 129.559570312 c 0,30,31
 317.296875 120.560546875 317.296875 120.560546875 318.123046875 100.3125 c 0,32,33
 319.571289062 80.0751953125 319.571289062 80.0751953125 323.045898438 72.16015625 c 0,32,33
 326.690429688 64.87109375 326.690429688 64.87109375 336.571289062 52.884765625 c 0,34,35
 348.860351562 36.9453125 348.860351562 36.9453125 352.56640625 27.8798828125 c 0,34,35
 369.004882812 -26.9150390625 369.004882812 -26.9150390625 325.537109375 -65.3779296875 c 0,36,37
 306.889648438 -80.59765625 306.889648438 -80.59765625 285.326171875 -85.2802734375 c 1,36,37
 240.961914062 -89.4638671875 240.961914062 -89.4638671875 211.526367188 -65.599609375 c 0,38,39
 208.658203125 -63.44921875 208.658203125 -63.44921875 203.452148438 -57.1484375 c 0,40,41
 195.572265625 -48.6455078125 195.572265625 -48.6455078125 191.845703125 -45.919921875 c 0,40,41
 187.978515625 -44.34765625 187.978515625 -44.34765625 162.326171875 -41 c 1,42,43
 123.0390625 -25.23046875 123.0390625 -25.23046875 108.206054688 6.5595703125 c 0,44,45
 100.020507812 26.25390625 100.020507812 26.25390625 100.005859375 59.0400390625 c 0,46,47
 99.41796875 163.622070312 99.41796875 163.622070312 173.805664062 177.120117188 c 1,28,29
206.606445312 127.919921875 m 0,48,49
 174.159179688 121.430664062 174.159179688 121.430664062 155.583984375 88.68359375 c 0,50,51
 149.6875 76.7314453125 149.6875 76.7314453125 149.206054688 67.240234375 c 0,50,51
 149.206054688 38.94921875 149.206054688 38.94921875 184.921875 15.3671875 c 0,52,53
 200.633789062 4.9931640625 200.633789062 4.9931640625 213.166015625 6.5595703125 c 0,52,53
 245.409179688 10.859375 245.409179688 10.859375 265.533203125 45.5341796875 c 0,54,55
 271.705078125 57.708984375 271.705078125 57.708984375 272.206054688 67.240234375 c 0,54,55
 270.323242188 95.48046875 270.323242188 95.48046875 236.337890625 118.8828125 c 0,56,57
 219.170898438 129.4140625 219.170898438 129.4140625 206.606445312 127.919921875 c 0,48,49
EndSplineSet
EndChar

StartChar: equal
Encoding: 61 61 32
Width: 1257
VWidth: 1639
GlyphClass: 2
Flags: W
LayerCount: 2
Fore
SplineSet
14.5595703125 451 m 1,0,1
 20.0068359375 463.904296875 20.0068359375 463.904296875 52.2802734375 519.879882812 c 0,2,3
 64.2119140625 540.874023438 64.2119140625 540.874023438 68.6796875 542.83984375 c 0,4,5
 72.6875 543.696289062 72.6875 543.696289062 104.759765625 542.83984375 c 0,6,7
 141.66015625 540.379882812 141.66015625 540.379882812 178.559570312 533 c 0,8,9
 278.650390625 516.395507812 278.650390625 516.395507812 386.83984375 503.48046875 c 0,10,11
 483.177734375 492.11328125 483.177734375 492.11328125 509.83984375 492 c 0,12,13
 583.849609375 492 583.849609375 492 816.749023438 521.587890625 c 0,14,15
 831.328125 523.428710938 831.328125 523.428710938 842.759765625 524.799804688 c 0,14,15
 919.598632812 536.004882812 919.598632812 536.004882812 1042.83984375 551.040039062 c 0,16,17
 1051.04003906 552.6796875 1051.04003906 552.6796875 1067.43945312 555.139648438 c 0,18,19
 1084.38671875 557.758789062 1084.38671875 557.758789062 1092.04003906 559.240234375 c 1,18,19
 1109.3515625 558.092773438 1109.3515625 558.092773438 1110.08007812 557.599609375 c 0,20,21
 1128.04589844 560.87109375 1128.04589844 560.87109375 1133.04003906 557.599609375 c 1,22,-1
 1154.359375 559.240234375 l 1,23,-1
 1172.39941406 524.799804688 l 1,24,-1
 1215.04003906 431.3203125 l 1,25,-1
 1208.47949219 431.3203125 l 1,26,27
 1240.66210938 373.291992188 1240.66210938 373.291992188 1249.47949219 342.759765625 c 1,28,-1
 94.919921875 362.440429688 l 1,29,-1
 117.879882812 403.440429688 l 1,30,-1
 14.5595703125 405.080078125 l 1,31,-1
 26.0400390625 428.040039062 l 1,32,-1
 14.5595703125 428.040039062 l 1,33,-1
 26.0400390625 451 l 1,34,-1
 14.5595703125 451 l 1,0,1
1147.79980469 432.959960938 m 1,35,-1
 1121.55957031 488.719726562 l 1,36,-1
 1108.43945312 508.400390625 l 1,37,-1
 1064.16015625 501.83984375 l 1,38,-1
 975.599609375 490.360351562 l 1,39,-1
 660.719726562 452.639648438 l 1,40,-1
 549.200195312 444.440429688 l 1,41,-1
 500 442.799804688 l 1,42,-1
 1147.79980469 432.959960938 l 1,35,-1
463.919921875 446.080078125 m 1,43,44
 422.748046875 446.3046875 422.748046875 446.3046875 283.51953125 465.759765625 c 1,45,46
 150.779296875 481.157226562 150.779296875 481.157226562 108.040039062 492 c 1,47,-1
 86.7197265625 451 l 1,48,-1
 463.919921875 444.440429688 l 1,49,-1
 463.919921875 446.080078125 l 1,43,44
8 309.959960938 m 1,50,51
 254.015625 309.916015625 254.015625 309.916015625 744.359375 296.83984375 c 1,52,53
 745.990234375 296.811523438 l 1,54,-1
 747.62109375 296.783203125 l 1,55,-1
 749.251953125 296.75390625 l 1,56,-1
 750.883789062 296.725585938 l 1,57,-1
 752.515625 296.697265625 l 1,58,-1
 754.146484375 296.66796875 l 1,59,-1
 755.778320312 296.639648438 l 1,60,-1
 757.411132812 296.611328125 l 1,61,-1
 759.04296875 296.583007812 l 1,62,-1
 760.67578125 296.553710938 l 1,63,-1
 762.30859375 296.525390625 l 1,64,-1
 763.94140625 296.497070312 l 1,65,-1
 765.57421875 296.46875 l 1,66,-1
 767.208007812 296.439453125 l 1,67,-1
 768.840820312 296.411132812 l 1,68,-1
 770.474609375 296.3828125 l 1,69,-1
 772.108398438 296.353515625 l 1,70,-1
 773.7421875 296.325195312 l 1,71,-1
 775.376953125 296.296875 l 1,72,-1
 777.010742188 296.268554688 l 1,73,-1
 778.645507812 296.239257812 l 1,74,-1
 780.280273438 296.2109375 l 1,75,-1
 781.915039062 296.182617188 l 1,76,-1
 783.549804688 296.154296875 l 1,77,-1
 785.185546875 296.125 l 1,78,-1
 786.8203125 296.096679688 l 1,79,-1
 788.456054688 296.068359375 l 1,80,-1
 790.091796875 296.040039062 l 1,81,-1
 791.727539062 296.010742188 l 1,82,-1
 793.36328125 295.982421875 l 1,83,-1
 795 295.954101562 l 1,84,-1
 796.635742188 295.92578125 l 1,85,-1
 798.272460938 295.896484375 l 1,86,-1
 799.908203125 295.868164062 l 1,87,-1
 801.544921875 295.83984375 l 1,88,-1
 803.181640625 295.811523438 l 1,89,-1
 804.818359375 295.783203125 l 1,90,-1
 806.456054688 295.75390625 l 1,91,-1
 808.092773438 295.725585938 l 1,92,-1
 809.73046875 295.697265625 l 1,93,-1
 811.3671875 295.668945312 l 1,94,-1
 813.004882812 295.639648438 l 1,95,-1
 814.642578125 295.611328125 l 1,96,-1
 816.280273438 295.583007812 l 1,97,-1
 817.91796875 295.5546875 l 1,98,-1
 819.555664062 295.525390625 l 1,99,-1
 821.194335938 295.497070312 l 1,100,-1
 822.83203125 295.46875 l 1,101,-1
 824.470703125 295.440429688 l 1,102,-1
 826.108398438 295.412109375 l 1,103,-1
 827.747070312 295.3828125 l 1,104,-1
 829.385742188 295.354492188 l 1,105,-1
 831.024414062 295.326171875 l 1,106,-1
 832.663085938 295.297851562 l 1,107,-1
 834.301757812 295.268554688 l 1,108,-1
 835.940429688 295.240234375 l 1,109,-1
 837.579101562 295.211914062 l 1,110,-1
 839.217773438 295.18359375 l 1,111,-1
 840.857421875 295.155273438 l 1,112,-1
 842.49609375 295.125976562 l 1,113,-1
 844.135742188 295.09765625 l 1,114,-1
 845.774414062 295.069335938 l 1,115,-1
 847.4140625 295.041015625 l 1,116,-1
 849.053710938 295.012695312 l 1,117,-1
 850.692382812 294.983398438 l 1,118,-1
 852.33203125 294.955078125 l 1,119,-1
 853.971679688 294.926757812 l 1,120,-1
 855.611328125 294.8984375 l 1,121,-1
 857.250976562 294.869140625 l 1,122,-1
 858.890625 294.840820312 l 1,123,-1
 860.530273438 294.8125 l 1,124,-1
 862.169921875 294.784179688 l 1,125,-1
 863.809570312 294.755859375 l 1,126,-1
 865.44921875 294.7265625 l 1,127,-1
 867.08984375 294.698242188 l 1,128,-1
 868.729492188 294.669921875 l 1,129,-1
 870.369140625 294.641601562 l 1,130,-1
 872.008789062 294.61328125 l 1,131,-1
 873.649414062 294.583984375 l 1,132,-1
 875.2890625 294.555664062 l 1,133,-1
 876.928710938 294.52734375 l 1,134,-1
 878.569335938 294.499023438 l 1,135,-1
 880.208984375 294.470703125 l 1,136,-1
 881.848632812 294.44140625 l 1,137,-1
 883.489257812 294.413085938 l 1,138,-1
 885.399414062 294.379882812 l 1,139,-1
 887.044921875 294.3515625 l 1,140,-1
 888.689453125 294.323242188 l 1,141,-1
 890.333984375 294.293945312 l 1,142,-1
 891.979492188 294.265625 l 1,143,-1
 893.624023438 294.237304688 l 1,144,-1
 895.26953125 294.208007812 l 1,145,-1
 896.9140625 294.1796875 l 1,146,-1
 898.559570312 294.151367188 l 1,147,-1
 900.204101562 294.122070312 l 1,148,-1
 901.849609375 294.09375 l 1,149,-1
 903.495117188 294.065429688 l 1,150,-1
 905.139648438 294.037109375 l 1,151,-1
 906.78515625 294.0078125 l 1,152,-1
 908.430664062 293.979492188 l 1,153,-1
 910.075195312 293.951171875 l 1,154,-1
 911.720703125 293.921875 l 1,155,-1
 913.366210938 293.893554688 l 1,156,-1
 915.01171875 293.865234375 l 1,157,-1
 916.657226562 293.8359375 l 1,158,-1
 918.301757812 293.807617188 l 1,159,-1
 919.947265625 293.779296875 l 1,160,-1
 921.592773438 293.75 l 1,161,-1
 923.23828125 293.721679688 l 1,162,-1
 924.883789062 293.693359375 l 1,163,-1
 926.529296875 293.6640625 l 1,164,-1
 928.173828125 293.635742188 l 1,165,-1
 929.819335938 293.607421875 l 1,166,-1
 931.46484375 293.579101562 l 1,167,-1
 933.110351562 293.549804688 l 1,168,-1
 934.754882812 293.521484375 l 1,169,-1
 936.400390625 293.493164062 l 1,170,-1
 938.045898438 293.463867188 l 1,171,-1
 939.690429688 293.435546875 l 1,172,-1
 941.3359375 293.407226562 l 1,173,-1
 942.981445312 293.377929688 l 1,174,-1
 944.625976562 293.349609375 l 1,175,-1
 946.271484375 293.3203125 l 1,176,-1
 947.916015625 293.291992188 l 1,177,-1
 949.560546875 293.263671875 l 1,178,-1
 951.206054688 293.234375 l 1,179,-1
 952.850585938 293.206054688 l 1,180,-1
 954.495117188 293.177734375 l 1,181,-1
 956.140625 293.1484375 l 1,182,-1
 957.78515625 293.120117188 l 1,183,-1
 959.4296875 293.091796875 l 1,184,-1
 961.07421875 293.0625 l 1,185,-1
 962.71875 293.034179688 l 1,186,-1
 964.36328125 293.005859375 l 1,187,-1
 966.0078125 292.9765625 l 1,188,-1
 967.651367188 292.948242188 l 1,189,-1
 969.295898438 292.919921875 l 1,190,-1
 970.940429688 292.890625 l 1,191,-1
 972.583984375 292.862304688 l 1,192,-1
 974.228515625 292.833007812 l 1,193,-1
 975.872070312 292.8046875 l 1,194,-1
 977.515625 292.776367188 l 1,195,-1
 979.16015625 292.747070312 l 1,196,-1
 980.803710938 292.71875 l 1,197,-1
 982.447265625 292.689453125 l 1,198,-1
 984.08984375 292.661132812 l 1,199,-1
 985.733398438 292.6328125 l 1,200,-1
 987.376953125 292.603515625 l 1,201,-1
 989.020507812 292.575195312 l 1,202,-1
 990.663085938 292.545898438 l 1,203,-1
 992.305664062 292.517578125 l 1,204,-1
 993.94921875 292.489257812 l 1,205,-1
 995.591796875 292.459960938 l 1,206,-1
 997.234375 292.431640625 l 1,207,-1
 998.875976562 292.40234375 l 1,208,-1
 1000.51855469 292.374023438 l 1,209,-1
 1002.16113281 292.345703125 l 1,210,-1
 1003.80273438 292.31640625 l 1,211,-1
 1005.4453125 292.288085938 l 1,212,-1
 1007.08691406 292.258789062 l 1,213,-1
 1008.72851562 292.23046875 l 1,214,-1
 1010.37011719 292.201171875 l 1,215,-1
 1012.01171875 292.172851562 l 1,216,-1
 1013.65234375 292.14453125 l 1,217,-1
 1015.29394531 292.115234375 l 1,218,-1
 1016.93457031 292.086914062 l 1,219,-1
 1018.57519531 292.057617188 l 1,220,-1
 1020.21582031 292.029296875 l 1,221,-1
 1021.85644531 292 l 1,222,-1
 1023.49707031 291.971679688 l 1,223,-1
 1026.43945312 291.919921875 l 1,54,55
 1177.38183594 291.919921875 1177.38183594 291.919921875 1187.54980469 291.009765625 c 0,56,57
 1199.16992188 289.893554688 1199.16992188 289.893554688 1208.47949219 288.639648438 c 1,56,-1
 1198.63964844 267.3203125 l 1,57,-1
 1208.47949219 265.6796875 l 1,58,-1
 1198.63964844 244.360351562 l 1,59,-1
 1208.47949219 242.719726562 l 1,60,-1
 1187.16015625 201.719726562 l 1,61,-1
 1242.91992188 200.080078125 l 1,62,-1
 1193.71972656 106.599609375 l 1,63,64
 1142.75976562 112.891601562 1142.75976562 112.891601562 1041.28613281 130.307617188 c 0,65,66
 878.090820312 158.31640625 878.090820312 158.31640625 795.200195312 162.360351562 c 0,65,66
 696.528320312 167.115234375 696.528320312 167.115234375 459.881835938 133.079101562 c 0,67,68
 414.889648438 126.642578125 414.889648438 126.642578125 385.200195312 123 c 0,67,68
 268.759765625 108.885742188 268.759765625 108.885742188 221.200195312 101.6796875 c 0,69,70
 201.697265625 97.9482421875 201.697265625 97.9482421875 173.639648438 95.1201171875 c 0,71,72
 156.818359375 91.9443359375 156.818359375 91.9443359375 152.3203125 93.48046875 c 0,73,74
 145.298828125 95.486328125 145.298828125 95.486328125 131.133789062 131.998046875 c 0,75,76
 129.858398438 134.984375 129.858398438 134.984375 129.359375 136.120117188 c 2,75,-1
 86.7197265625 136.120117188 l 1,76,-1
 70.3203125 136.120117188 l 1,77,-1
 52.2802734375 172.200195312 l 1,78,-1
 8 264.040039062 l 1,79,-1
 19.4794921875 264.040039062 l 1,80,-1
 8 287 l 1,81,-1
 19.4794921875 287 l 1,82,-1
 8 309.959960938 l 1,50,51
688.599609375 252.559570312 m 1,83,-1
 76.8798828125 262.400390625 l 1,84,-1
 112.959960938 185.3203125 l 1,85,86
 159.899414062 194.263671875 159.899414062 194.263671875 395.040039062 223.040039062 c 0,87,88
 617.579101562 249.443359375 617.579101562 249.443359375 665.512695312 250.62890625 c 0,89,90
 678.053710938 250.900390625 678.053710938 250.900390625 688.599609375 250.919921875 c 1,89,-1
 688.599609375 252.559570312 l 1,83,-1
782.080078125 250.919921875 m 1,90,-1
 768.959960938 249.280273438 l 1,91,-1
 782.080078125 249.280273438 l 1,92,-1
 782.080078125 250.919921875 l 1,90,-1
1139.59960938 244.360351562 m 1,93,-1
 887.040039062 247.639648438 l 1,94,-1
 818.16015625 249.280273438 l 1,95,-1
 787 247.639648438 l 1,96,97
 852.161132812 247.362304688 852.161132812 247.362304688 1019.87988281 218.120117188 c 0,98,99
 1031.359375 216.48046875 1031.359375 216.48046875 1053.5 213.200195312 c 0,100,101
 1076.23730469 209.83984375 1076.23730469 209.83984375 1087.12011719 208.280273438 c 0,100,101
 1111.17285156 203.469726562 1111.17285156 203.469726562 1115 205 c 0,102,103
 1119.91992188 206.639648438 1119.91992188 206.639648438 1124.83984375 213.200195312 c 0,104,105
 1129.75976562 219.759765625 1129.75976562 219.759765625 1134.6796875 232.059570312 c 2,106,-1
 1139.59960938 244.360351562 l 1,93,-1
EndSplineSet
EndChar

StartChar: bracketleft
Encoding: 91 91 62
Width: 667
VWidth: 1639
GlyphClass: 2
Flags: W
LayerCount: 2
Fore
SplineSet
100 1859.75976562 m 1,0,-1
 532.959960938 1859.75976562 l 1,1,-1
 532.959960938 1771.20019531 l 1,2,-1
 567.399414062 1771.20019531 l 1,3,-1
 567.399414062 1697.40039062 l 1,4,-1
 350.919921875 1697.40039062 l 1,5,-1
 350.919921875 -24.599609375 l 1,6,-1
 532.959960938 -24.599609375 l 1,7,-1
 532.959960938 -113.16015625 l 1,8,-1
 567.399414062 -113.16015625 l 1,9,-1
 567.399414062 -186.959960938 l 1,10,-1
 180.359375 -186.959960938 l 1,11,-1
 180.359375 -144.3203125 l 1,12,-1
 100 -144.3203125 l 1,13,-1
 100 1859.75976562 l 1,0,-1
487.040039062 1813.83984375 m 1,14,-1
 145.919921875 1813.83984375 l 1,15,-1
 145.919921875 -98.400390625 l 1,16,-1
 487.040039062 -98.400390625 l 1,17,-1
 487.040039062 -70.51953125 l 1,18,-1
 270.559570312 -70.51953125 l 1,19,-1
 270.559570312 1785.95996094 l 1,20,-1
 487.040039062 1785.95996094 l 1,21,-1
 487.040039062 1813.83984375 l 1,14,-1
EndSplineSet
EndChar

StartChar: bracketright
Encoding: 93 93 64
Width: 718
VWidth: 1639
GlyphClass: 2
Flags: W
LayerCount: 2
Fore
SplineSet
100 1858.12011719 m 1,0,-1
 483.759765625 1858.12011719 l 1,1,-1
 483.759765625 1769.55957031 l 1,2,-1
 518.200195312 1769.55957031 l 1,3,-1
 518.200195312 -186.959960938 l 1,4,-1
 180.360351562 -186.959960938 l 1,5,-1
 180.360351562 -144.3203125 l 1,6,-1
 100 -144.3203125 l 1,7,-1
 100 -24.599609375 l 1,8,-1
 267.280273438 -24.599609375 l 1,9,-1
 267.280273438 1697.40039062 l 1,10,-1
 180.360351562 1697.40039062 l 1,11,-1
 180.360351562 1740.04003906 l 1,12,-1
 100 1740.04003906 l 1,13,-1
 100 1858.12011719 l 1,0,-1
437.83984375 1812.20019531 m 1,14,-1
 145.919921875 1812.20019531 l 1,15,-1
 145.919921875 1785.95996094 l 1,16,-1
 313.200195312 1785.95996094 l 1,17,-1
 313.200195312 -70.51953125 l 1,18,-1
 145.919921875 -70.51953125 l 1,19,-1
 145.919921875 -98.400390625 l 1,20,-1
 437.83984375 -98.400390625 l 1,21,-1
 437.83984375 1812.20019531 l 1,14,-1
EndSplineSet
EndChar

StartChar: guillemotleft
Encoding: 171 171 175
Width: 728
VWidth: 1639
GlyphClass: 2
Flags: W
LayerCount: 2
Fore
SplineSet
243.959960938 562.51953125 m 1,0,-1
 250.520507812 546.120117188 l 1,1,-1
 268.560546875 562.51953125 l 1,2,-1
 273.48046875 546.120117188 l 1,3,-1
 291.520507812 562.51953125 l 1,4,-1
 319.400390625 469.040039062 l 1,5,-1
 325.959960938 473.959960938 l 1,6,-1
 329.240234375 459.200195312 l 1,7,8
 336.352539062 465.842773438 336.352539062 465.842773438 352.200195312 490.360351562 c 1,9,10
 392.970703125 544.923828125 392.970703125 544.923828125 416.16015625 562.51953125 c 1,11,-1
 421.080078125 544.48046875 l 1,12,-1
 422.719726562 544.48046875 l 1,13,-1
 439.120117188 562.51953125 l 1,14,-1
 444.040039062 544.48046875 l 1,15,-1
 445.6796875 544.48046875 l 1,16,-1
 462.080078125 562.51953125 l 1,17,18
 485.698242188 504.04296875 485.698242188 504.04296875 489.959960938 469.040039062 c 1,19,-1
 496.520507812 473.959960938 l 1,20,21
 498.350585938 469.484375 498.350585938 469.484375 521.120117188 395.240234375 c 0,22,23
 529.610351562 371.573242188 529.610351562 371.573242188 527.6796875 364.080078125 c 0,24,25
 525.874023438 355.952148438 525.874023438 355.952148438 495.876953125 330.334960938 c 0,26,27
 490.65234375 325.53125 490.65234375 325.53125 488.3203125 323.080078125 c 0,26,27
 429.166992188 256.815429688 429.166992188 256.815429688 406.3203125 208.280273438 c 0,28,29
 405.418945312 205.576171875 405.418945312 205.576171875 401.932617188 197.7421875 c 0,30,31
 391.75390625 173.055664062 391.75390625 173.055664062 393.200195312 165.639648438 c 1,30,31
 401.573242188 147.7109375 401.573242188 147.7109375 437.48046875 129.559570312 c 0,32,33
 461.50390625 116.65234375 461.50390625 116.65234375 483.400390625 109.879882812 c 1,34,35
 480.985351562 90.2001953125 480.985351562 90.2001953125 483.400390625 86.919921875 c 1,36,37
 480.985351562 67.240234375 480.985351562 67.240234375 483.400390625 63.9599609375 c 1,38,39
 478.280273438 41.1318359375 478.280273438 41.1318359375 478.48046875 39.3603515625 c 0,40,41
 483.213867188 32.0830078125 483.213867188 32.0830078125 517.83984375 21.3203125 c 1,42,-1
 494.879882812 -67.240234375 l 1,43,-1
 439.120117188 -14.759765625 l 1,44,-1
 437.48046875 -24.599609375 l 1,45,-1
 417.799804688 -9.83984375 l 1,46,-1
 414.520507812 -24.599609375 l 1,47,48
 333.739257812 33.9814453125 333.739257812 33.9814453125 309.560546875 98.400390625 c 1,49,-1
 307.919921875 98.400390625 l 1,50,-1
 306.280273438 88.5595703125 l 1,51,-1
 311.200195312 86.919921875 l 1,52,-1
 306.280273438 65.599609375 l 1,53,-1
 311.200195312 63.9599609375 l 1,54,-1
 304.639648438 37.7197265625 l 1,55,-1
 345.639648438 21.3203125 l 1,56,-1
 324.3203125 -67.240234375 l 1,57,-1
 268.560546875 -16.400390625 l 1,58,-1
 266.919921875 -24.599609375 l 1,59,-1
 247.240234375 -8.2001953125 l 1,60,-1
 243.959960938 -24.599609375 l 1,61,62
 213.076171875 -5.5419921875 213.076171875 -5.5419921875 171.799804688 45.919921875 c 0,63,64
 81.0654296875 160.850585938 81.0654296875 160.850585938 104.993164062 316.302734375 c 0,65,66
 110.921875 352.686523438 110.921875 352.686523438 122.599609375 385.400390625 c 0,65,66
 159.40234375 477.504882812 159.40234375 477.504882812 243.959960938 562.51953125 c 1,0,-1
257.080078125 478.879882812 m 2,67,-1
 253.799804688 478.879882812 l 1,68,69
 179.53125 378.778320312 179.53125 378.778320312 164.412109375 326.504882812 c 0,70,71
 161.904296875 317.375 161.904296875 317.375 160.3203125 309.959960938 c 1,70,-1
 161.959960938 309.959960938 l 1,71,72
 180.36328125 351.232421875 180.36328125 351.232421875 227.560546875 401.799804688 c 0,73,74
 230.887695312 405.682617188 230.887695312 405.682617188 241.212890625 414.446289062 c 0,75,76
 262.25 433.599609375 262.25 433.599609375 265.280273438 442.799804688 c 0,75,76
 266.62109375 446.822265625 266.62109375 446.822265625 258.154296875 474.521484375 c 0,77,78
 257.373046875 477.615234375 257.373046875 477.615234375 257.080078125 478.879882812 c 2,67,-1
427.639648438 478.879882812 m 1,77,78
 419.624023438 472.001953125 419.624023438 472.001953125 389.919921875 432.959960938 c 1,79,80
 339.296875 352.116210938 339.296875 352.116210938 332.520507812 311.599609375 c 1,81,-1
 334.16015625 311.599609375 l 1,82,83
 350.560546875 346.040039062 350.560546875 346.040039062 400.409179688 402.317382812 c 2,84,-1
 401.400390625 403.440429688 l 2,84,85
 427.803710938 433.616210938 427.803710938 433.616210938 439.120117188 441.16015625 c 1,86,-1
 427.639648438 478.879882812 l 1,77,78
332.520507812 309.959960938 m 1,87,-1
 330.879882812 308.3203125 l 1,88,-1
 332.520507812 309.959960938 l 1,87,-1
160.3203125 308.3203125 m 1,89,-1
 158.6796875 306.6796875 l 1,90,-1
 160.3203125 308.3203125 l 1,89,-1
275.120117188 273.879882812 m 1,91,92
 253.930664062 251.763671875 253.930664062 251.763671875 229.200195312 195.16015625 c 1,93,94
 220.709960938 171.493164062 220.709960938 171.493164062 222.639648438 164 c 0,95,96
 224.998046875 158.133789062 224.998046875 158.133789062 239.040039062 145.959960938 c 0,97,98
 268.21875 123.0390625 268.21875 123.0390625 301.360351562 113.16015625 c 1,99,100
 275.237304688 176.48828125 275.237304688 176.48828125 275.120117188 273.879882812 c 1,91,92
404.6796875 77.080078125 m 2,101,-1
 424.360351562 55.759765625 l 1,102,103
 425.611328125 67.025390625 425.611328125 67.025390625 409.826171875 74.4404296875 c 0,104,105
 406.201171875 76.2763671875 406.201171875 76.2763671875 404.6796875 77.080078125 c 2,101,-1
235.759765625 75.4404296875 m 1,104,105
 235.759765625 67.240234375 235.759765625 67.240234375 250.505859375 56.990234375 c 2,106,-1
 252.16015625 55.759765625 l 1,106,-1
 255.440429688 67.240234375 l 1,107,-1
 235.759765625 75.4404296875 l 1,104,105
EndSplineSet
EndChar

StartChar: guillemotright
Encoding: 187 187 176
Width: 726
VWidth: 1639
GlyphClass: 2
Flags: W
LayerCount: 2
Fore
SplineSet
135.143554688 562.51953125 m 1,0,-1
 154.823242188 547.759765625 l 1,1,-1
 158.103515625 562.51953125 l 1,2,-1
 177.783203125 547.759765625 l 1,3,-1
 181.063476562 562.51953125 l 1,4,5
 219.861328125 537.03515625 219.861328125 537.03515625 259.783203125 482.16015625 c 0,6,7
 263.9453125 477.3046875 263.9453125 477.3046875 271.12890625 465.190429688 c 0,8,9
 281.739257812 448.418945312 281.739257812 448.418945312 287.6640625 442.799804688 c 1,8,-1
 289.303710938 451 l 1,9,-1
 282.743164062 452.639648438 l 1,10,-1
 289.303710938 473.959960938 l 1,11,-1
 282.743164062 475.599609375 l 1,12,-1
 305.704101562 562.51953125 l 1,13,-1
 325.383789062 547.759765625 l 1,14,-1
 328.6640625 562.51953125 l 1,15,-1
 348.34375 547.759765625 l 1,16,-1
 351.624023438 562.51953125 l 1,17,18
 364.065429688 555.528320312 364.065429688 555.528320312 394.263671875 524.799804688 c 0,19,20
 458.689453125 459.01171875 458.689453125 459.01171875 486.103515625 365.719726562 c 0,21,22
 487.979492188 361.286132812 487.979492188 361.286132812 505.783203125 326.360351562 c 1,23,24
 520.096679688 290.578125 520.096679688 290.578125 525.463867188 247.639648438 c 1,25,26
 535.325195312 123.829101562 535.325195312 123.829101562 441.823242188 -1.6396484375 c 0,27,28
 405.147460938 -51.8369140625 405.147460938 -51.8369140625 384.423828125 -67.240234375 c 1,29,-1
 366.383789062 -8.2001953125 l 1,30,-1
 349.983398438 -24.599609375 l 1,31,-1
 345.063476562 -6.5595703125 l 1,32,-1
 327.0234375 -24.599609375 l 1,33,-1
 322.103515625 -6.5595703125 l 1,34,-1
 304.063476562 -24.599609375 l 1,35,-1
 289.303710938 22.9599609375 l 1,36,-1
 287.6640625 22.9599609375 l 1,37,38
 260.57421875 -32.1005859375 260.57421875 -32.1005859375 212.223632812 -67.240234375 c 1,39,-1
 195.823242188 -8.2001953125 l 1,40,-1
 177.783203125 -24.599609375 l 1,41,-1
 174.50390625 -8.2001953125 l 1,42,-1
 154.823242188 -24.599609375 l 1,43,-1
 151.543945312 -8.2001953125 l 1,44,-1
 131.86328125 -24.599609375 l 1,45,46
 128.681640625 -8.6884765625 128.681640625 -8.6884765625 118.401367188 22.0361328125 c 0,47,48
 102.690429688 70.6474609375 102.690429688 70.6474609375 102.34375 95.1201171875 c 0,47,48
 102.34375 98.5595703125 102.34375 98.5595703125 101.100585938 107.744140625 c 0,49,50
 99.119140625 126.452148438 99.119140625 126.452148438 100.704101562 132.83984375 c 0,49,50
 104.032226562 140.329101562 104.032226562 140.329101562 138.893554688 171.319335938 c 0,51,52
 142.04296875 174.247070312 142.04296875 174.247070312 143.34375 175.48046875 c 0,51,52
 196.80859375 232.734375 196.80859375 232.734375 220.423828125 285.360351562 c 1,53,54
 236.086914062 314.4921875 236.086914062 314.4921875 235.18359375 329.639648438 c 0,55,56
 232.9765625 341.16796875 232.9765625 341.16796875 208.943359375 369 c 1,57,58
 188.013671875 389.306640625 188.013671875 389.306640625 171.223632812 400.16015625 c 0,59,60
 138.41796875 423.154296875 138.41796875 423.154296875 112.18359375 429.6796875 c 1,61,-1
 117.103515625 452.639648438 l 1,62,-1
 112.18359375 452.639648438 l 1,63,-1
 117.103515625 475.599609375 l 1,64,-1
 112.18359375 475.599609375 l 1,65,-1
 135.143554688 562.51953125 l 1,0,-1
172.86328125 483.799804688 m 1,66,67
 167.388671875 472.850585938 167.388671875 472.850585938 186.108398438 464.67578125 c 0,68,69
 189.29296875 463.28515625 189.29296875 463.28515625 190.903320312 462.48046875 c 2,68,-1
 172.86328125 483.799804688 l 1,66,67
345.063476562 482.16015625 m 1,69,-1
 340.143554688 472.3203125 l 1,70,-1
 363.103515625 462.48046875 l 1,71,-1
 345.063476562 482.16015625 l 1,69,-1
295.86328125 426.400390625 m 1,72,73
 295.649414062 419.196289062 295.649414062 419.196289062 312.263671875 377.200195312 c 1,74,75
 317.145507812 359.841796875 317.145507812 359.841796875 329.731445312 327.046875 c 0,76,77
 354.51953125 260.66796875 354.51953125 260.66796875 354.903320312 223.040039062 c 1,76,-1
 356.543945312 223.040039062 l 1,77,78
 360.345703125 229.26171875 360.345703125 229.26171875 369.471679688 242.893554688 c 0,79,80
 407.383789062 299.524414062 407.383789062 299.524414062 407.383789062 328 c 0,79,80
 406.130859375 341.97265625 406.130859375 341.97265625 387.704101562 360.799804688 c 1,81,82
 358.41015625 396.450195312 358.41015625 396.450195312 295.86328125 426.400390625 c 1,72,73
492.6640625 282.080078125 m 1,83,-1
 491.0234375 267.3203125 l 1,84,-1
 492.6640625 267.3203125 l 1,85,-1
 492.6640625 282.080078125 l 1,83,-1
322.103515625 280.440429688 m 1,86,-1
 320.463867188 272.240234375 l 1,87,-1
 322.103515625 272.240234375 l 1,88,-1
 322.103515625 280.440429688 l 1,86,-1
492.6640625 262.400390625 m 1,89,-1
 491.0234375 260.759765625 l 1,90,-1
 492.6640625 262.400390625 l 1,89,-1
435.263671875 229.599609375 m 1,91,-1
 433.624023438 227.959960938 l 1,92,-1
 435.263671875 229.599609375 l 1,91,-1
263.063476562 227.959960938 m 1,93,-1
 236.823242188 186.959960938 l 1,94,-1
 190.903320312 131.200195312 l 1,95,-1
 158.103515625 95.1201171875 l 1,96,-1
 166.303710938 59.0400390625 l 1,97,98
 171.223632812 62.3203125 171.223632812 62.3203125 176.963867188 68.0595703125 c 0,99,100
 182.704101562 73.7998046875 182.704101562 73.7998046875 185.1640625 77.080078125 c 0,101,102
 187.624023438 80.3603515625 187.624023438 80.3603515625 194.18359375 91.01953125 c 2,103,-1
 200.743164062 101.6796875 l 1,99,100
 250.063476562 169.666015625 250.063476562 169.666015625 263.063476562 227.959960938 c 1,93,-1
433.624023438 226.3203125 m 1,101,102
 421.323242188 213.200195312 421.323242188 213.200195312 401.643554688 182.860351562 c 0,103,104
 381.32421875 152.170898438 381.32421875 152.170898438 369.6640625 139.400390625 c 0,103,104
 366.188476562 135.345703125 366.188476562 135.345703125 354.763671875 125.685546875 c 0,105,106
 332.588867188 105.833984375 332.588867188 105.833984375 328.6640625 96.759765625 c 1,105,106
 326.227539062 80.3349609375 326.227539062 80.3349609375 340.143554688 59.0400390625 c 1,107,108
 406.526367188 149.5625 406.526367188 149.5625 420.314453125 181.678710938 c 0,109,110
 430.110351562 205.53515625 430.110351562 205.53515625 433.624023438 226.3203125 c 1,101,102
EndSplineSet
EndChar

StartChar: guilsinglleft
Encoding: 8249 8249 195
Width: 566
GlyphClass: 2
Flags: W
LayerCount: 2
Fore
SplineSet
350 70 m 1,0,1
 363 48 363 48 363 35 c 0,2,3
 363 26 363 26 352 26 c 0,4,5
 343 26 343 26 326 33 c 1,6,7
 273 73 273 73 230 128 c 128,-1,8
 187 183 187 183 155 255 c 0,9,10
 126 321 126 321 113.5 385 c 128,-1,11
 101 449 101 449 100 513 c 1,12,13
 100 656 100 656 164 783 c 1,14,15
 231 904 231 904 327 958 c 1,16,17
 354 969 354 969 358 969 c 0,18,19
 366 969 366 969 366 963 c 0,20,21
 366 953 366 953 343 912 c 1,22,23
 224 746 224 746 224 513 c 0,24,25
 224 249 224 249 350 70 c 1,0,1
EndSplineSet
EndChar

StartChar: guilsinglright
Encoding: 8250 8250 196
Width: 569
GlyphClass: 2
Flags: W
LayerCount: 2
Fore
SplineSet
115 70 m 1,0,1
 244 249 244 249 244 513 c 0,2,3
 244 751 244 751 122 913 c 1,4,5
 100 954 100 954 100 963 c 0,6,7
 100 969 100 969 108 969 c 0,8,9
 110 969 110 969 118 966.5 c 128,-1,10
 126 964 126 964 137 958 c 0,11,12
 188 931 188 931 228.5 887 c 128,-1,13
 269 843 269 843 301 783 c 0,14,15
 336 718 336 718 352 650.5 c 128,-1,16
 368 583 368 583 369 513 c 0,17,18
 369 450 369 450 353.5 385 c 128,-1,19
 338 320 338 320 309 255 c 0,20,21
 279 188 279 188 235 130 c 128,-1,22
 191 72 191 72 138 33 c 1,23,24
 124 26 124 26 113 26 c 0,25,26
 101 26 101 26 101 35 c 0,27,28
 101 47 101 47 115 70 c 1,0,1
EndSplineSet
EndChar

StartChar: afii57451
Encoding: 1611 1611 311
AltUni2: 00fe70.ffffffff.0
Width: 82
VWidth: 1639
GlyphClass: 2
Flags: HW
AnchorPoint: "GposMark2BaseAnchorHamzaErabAbove_01_01" 217.9 1480.92 mark 0
AnchorPoint: "GposMark2BaseAnchorHamzaErabBelow_01_01" 217.9 1892.56 mark 0
AnchorPoint: "GposMark2BaseAnchorClassErabAbove_01_02" 217.9 1480.92 mark 0
AnchorPoint: "GposMark2MarkAnchorHamzaErabAbove_01_01" 217.9 1480.92 mark 0
AnchorPoint: "GposMark2MarkAnchorHamzaErabBelow_01_01" 217.9 1892.56 mark 0
AnchorPoint: "GposMark2MarkAnchorShaddaErabAbove_01_02" 217.9 1480.92 mark 0
AnchorPoint: "GposMark2MarkAnchorShaddaErabBelow_01_02" 217.9 1892.56 mark 0
LayerCount: 2
Fore
SplineSet
-58.4404296875 1785.95996094 m 1,0,-1
 89.16015625 1800.71972656 l 1,1,-1
 187.559570312 1813.83984375 l 1,2,-1
 346.639648438 1866.3203125 l 1,3,-1
 420.440429688 1892.55957031 l 1,4,-1
 418.799804688 1884.36035156 l 1,5,-1
 443.400390625 1892.55957031 l 1,6,-1
 441.759765625 1884.36035156 l 1,7,-1
 466.360351562 1892.55957031 l 1,8,-1
 461.440429688 1867.95996094 l 1,9,-1
 466.360351562 1869.59960938 l 1,10,-1
 461.440429688 1845 l 1,11,-1
 466.360351562 1846.63964844 l 1,12,-1
 453.240234375 1787.59960938 l 1,13,-1
 500.799804688 1804 l 1,14,-1
 482.759765625 1718.71972656 l 1,15,-1
 461.440429688 1715.44042969 l 1,16,-1
 461.440429688 1643.28027344 l 1,17,-1
 495.879882812 1649.83984375 l 1,18,-1
 495.879882812 1587.51953125 l 1,19,20
 491.159179688 1587.36132812 491.159179688 1587.36132812 392.559570312 1577.6796875 c 0,21,22
 273.973632812 1567.47558594 273.973632812 1567.47558594 217.080078125 1551.44042969 c 0,23,24
 201.873046875 1546.85253906 201.873046875 1546.85253906 87.51953125 1507.16015625 c 0,25,26
 79.5244140625 1504.3046875 79.5244140625 1504.3046875 63.0048828125 1497.74609375 c 0,27,28
 30.8408203125 1485.18457031 30.8408203125 1485.18457031 15.3603515625 1480.91992188 c 1,29,-1
 28.4794921875 1539.95996094 l 1,30,-1
 -19.080078125 1523.55957031 l 1,31,-1
 -17.4404296875 1531.75976562 l 1,32,-1
 -42.0400390625 1523.55957031 l 1,33,-1
 -40.400390625 1531.75976562 l 1,34,-1
 -65 1523.55957031 l 1,35,-1
 -60.080078125 1548.16015625 l 1,36,-1
 -65 1546.51953125 l 1,37,-1
 -60.080078125 1571.12011719 l 1,38,-1
 -65 1569.48046875 l 1,39,-1
 -46.9599609375 1654.75976562 l 1,40,-1
 21.919921875 1666.24023438 l 1,41,-1
 21.919921875 1684.28027344 l 1,42,-1
 -12.5205078125 1677.71972656 l 1,43,44
 -17.9951171875 1682.65429688 -17.9951171875 1682.65429688 -35.48046875 1677.71972656 c 1,45,46
 -40.955078125 1682.65429688 -40.955078125 1682.65429688 -58.4404296875 1677.71972656 c 1,47,-1
 -58.4404296875 1785.95996094 l 1,0,-1
405.6796875 1823.6796875 m 1,48,-1
 348.280273438 1804 l 1,49,-1
 317.120117188 1792.51953125 l 1,50,-1
 402.400390625 1807.28027344 l 1,51,-1
 405.6796875 1823.6796875 l 1,48,-1
313.83984375 1792.51953125 m 1,52,-1
 313.83984375 1790.87988281 l 1,53,-1
 313.83984375 1792.51953125 l 1,52,-1
69.4794921875 1748.24023438 m 1,54,-1
 69.4794921875 1746.59960938 l 1,55,-1
 69.4794921875 1748.24023438 l 1,54,-1
61.2802734375 1746.59960938 m 1,56,-1
 -12.5205078125 1740.04003906 l 1,57,-1
 -12.5205078125 1731.83984375 l 1,58,-1
 61.2802734375 1744.95996094 l 1,59,-1
 61.2802734375 1746.59960938 l 1,56,-1
299.080078125 1735.12011719 m 1,60,-1
 299.080078125 1733.48046875 l 1,61,62
 299.080078125 1735.12011719 l 1,60,-1
294.16015625 1733.48046875 m 1,63,-1
 230.200195312 1722 l 1,64,-1
 189.200195312 1713.79980469 l 1,65,-1
 294.16015625 1731.83984375 l 1,66,-1
 294.16015625 1733.48046875 l 1,63,-1
181 1713.79980469 m 1,67,-1
 181 1712.16015625 l 1,68,69
 181 1713.79980469 l 1,67,-1
415.51953125 1684.28027344 m 1,70,-1
 340.080078125 1669.51953125 l 1,71,-1
 415.51953125 1676.08007812 l 1,72,-1
 415.51953125 1684.28027344 l 1,70,-1
331.879882812 1669.51953125 m 1,73,-1
 330.240234375 1667.87988281 l 1,74,-1
 331.879882812 1669.51953125 l 1,73,-1
87.51953125 1625.24023438 m 1,75,-1
 87.51953125 1623.59960938 l 1,76,77
 87.51953125 1625.24023438 l 1,75,-1
84.240234375 1623.59960938 m 1,78,-1
 -1.0400390625 1608.83984375 l 1,79,-1
 -4.3203125 1592.44042969 l 1,80,-1
 84.240234375 1621.95996094 l 1,81,-1
 84.240234375 1623.59960938 l 1,78,-1
300.719726562 1615.40039062 m 1,82,-1
 299.080078125 1613.75976562 l 1,83,-1
 300.719726562 1615.40039062 l 1,82,-1
292.51953125 1613.75976562 m 1,84,85
 219.381835938 1613.00097656 219.381835938 1613.00097656 187.559570312 1594.08007812 c 1,86,-1
 292.51953125 1612.12011719 l 1,87,-1
 292.51953125 1613.75976562 l 1,84,85
182.639648438 1594.08007812 m 1,88,-1
 181 1592.44042969 l 1,89,-1
 182.639648438 1594.08007812 l 1,88,-1
EndSplineSet
EndChar

StartChar: afii57452
Encoding: 1612 1612 312
AltUni2: 00fe72.ffffffff.0
Width: 221
VWidth: 1639
GlyphClass: 2
Flags: HW
AnchorPoint: "GposMark2BaseAnchorHamzaErabAbove_01_01" 261.053 1482.56 mark 0
AnchorPoint: "GposMark2BaseAnchorHamzaErabBelow_01_01" 261.053 1943.4 mark 0
AnchorPoint: "GposMark2BaseAnchorClassErabAbove_01_02" 261.053 1482.56 mark 0
AnchorPoint: "GposMark2MarkAnchorHamzaErabAbove_01_01" 261.053 1482.56 mark 0
AnchorPoint: "GposMark2MarkAnchorHamzaErabBelow_01_01" 261.053 1943.4 mark 0
AnchorPoint: "GposMark2MarkAnchorShaddaErabAbove_01_02" 261.053 1482.56 mark 0
AnchorPoint: "GposMark2MarkAnchorShaddaErabBelow_01_02" 261.053 1943.4 mark 0
LayerCount: 2
Fore
SplineSet
226.759765625 1808.91992188 m 1,0,1
 223.109375 1857.45898438 223.109375 1857.45898438 289.080078125 1897.48046875 c 0,2,3
 366.809570312 1943.06738281 366.809570312 1943.06738281 472.759765625 1943.40039062 c 0,4,5
 527.849609375 1942.76074219 527.849609375 1942.76074219 546.559570312 1935.20019531 c 1,6,7
 580.423828125 1916.13183594 580.423828125 1916.13183594 585.919921875 1879.44042969 c 1,8,9
 586.541015625 1845.88574219 586.541015625 1845.88574219 587.559570312 1843.36035156 c 0,10,11
 590.59375 1838.80957031 590.59375 1838.80957031 599.571289062 1831.73046875 c 0,12,13
 610.314453125 1822.24023438 610.314453125 1822.24023438 613.799804688 1817.12011719 c 0,14,15
 638.106445312 1760.76953125 638.106445312 1760.76953125 592.479492188 1694.12011719 c 0,16,17
 557.17578125 1644.58203125 557.17578125 1644.58203125 517.040039062 1623.59960938 c 1,18,-1
 533.440429688 1617.04003906 l 1,19,-1
 500.639648438 1599 l 1,20,-1
 500.639648438 1597.36035156 l 1,21,-1
 536.719726562 1584.24023438 l 1,22,-1
 567.879882812 1574.40039062 l 1,23,24
 535.911132812 1554.84863281 535.911132812 1554.84863281 502.280273438 1536.6796875 c 0,25,26
 476.50390625 1522.15625 476.50390625 1522.15625 474.400390625 1521.91992188 c 0,27,28
 454.733398438 1522.85449219 454.733398438 1522.85449219 420.280273438 1556.36035156 c 1,29,-1
 418.639648438 1556.36035156 l 1,30,-1
 384.200195312 1533.40039062 l 1,31,-1
 312.040039062 1495.6796875 l 1,32,-1
 277.599609375 1482.55957031 l 1,33,-1
 223.479492188 1500.59960938 l 1,34,-1
 111.959960938 1526.83984375 l 1,35,-1
 111.959960938 1528.48046875 l 1,36,-1
 144.759765625 1543.24023438 l 1,37,-1
 31.599609375 1569.48046875 l 1,38,-1
 31.599609375 1571.12011719 l 1,39,-1
 66.0400390625 1584.24023438 l 1,40,-1
 66.0400390625 1585.87988281 l 1,41,-1
 31.599609375 1592.44042969 l 1,42,-1
 31.599609375 1594.08007812 l 1,43,-1
 66.0400390625 1607.20019531 l 1,44,-1
 66.0400390625 1608.83984375 l 1,45,-1
 31.599609375 1615.40039062 l 1,46,-1
 31.599609375 1617.04003906 l 1,47,48
 99.8349609375 1633.91113281 99.8349609375 1633.91113281 146.400390625 1687.55957031 c 1,49,50
 106.295898438 1677.47460938 106.295898438 1677.47460938 11.919921875 1630.16015625 c 0,51,52
 -29.4658203125 1607.578125 -29.4658203125 1607.578125 -35.6396484375 1605.55957031 c 1,53,-1
 -7.759765625 1679.36035156 l 1,54,-1
 -70.080078125 1648.20019531 l 1,55,-1
 -65.16015625 1661.3203125 l 1,56,-1
 -93.0400390625 1648.20019531 l 1,57,-1
 -88.1201171875 1661.3203125 l 1,58,-1
 -116 1648.20019531 l 1,59,-1
 -106.16015625 1674.44042969 l 1,60,-1
 -116 1671.16015625 l 1,61,-1
 -106.16015625 1697.40039062 l 1,62,-1
 -116 1694.12011719 l 1,63,64
 -97.9541015625 1739.44042969 -97.9541015625 1739.44042969 -79.919921875 1790.87988281 c 0,65,66
 -78.30078125 1794.65820312 -78.30078125 1794.65820312 -75.361328125 1804.53515625 c 0,67,68
 -68.4130859375 1825.35449219 -68.4130859375 1825.35449219 -63.5205078125 1830.24023438 c 0,69,70
 -57.095703125 1835.09863281 -57.095703125 1835.09863281 -42.2001953125 1835.16015625 c 2,71,-1
 7 1840.08007812 l 1,72,73
 145.3359375 1849.51171875 145.3359375 1849.51171875 203.515625 1822.17578125 c 0,74,75
 216.556640625 1815.72363281 216.556640625 1815.72363281 226.759765625 1808.91992188 c 1,0,1
536.719726562 1835.16015625 m 1,76,77
 540.013671875 1862.69042969 540.013671875 1862.69042969 512.120117188 1882.71972656 c 1,78,79
 465.866210938 1907.17871094 465.866210938 1907.17871094 421.919921875 1887.63964844 c 1,80,81
 464.736328125 1884.46289062 464.736328125 1884.46289062 508.83984375 1861.40039062 c 1,82,83
 531.07421875 1846.71484375 531.07421875 1846.71484375 535.080078125 1835.16015625 c 1,84,-1
 536.719726562 1835.16015625 l 1,76,77
417 1833.51953125 m 1,85,86
 376.615234375 1844.53417969 376.615234375 1844.53417969 359.599609375 1836.79980469 c 1,87,88
 346.177734375 1827.67578125 346.177734375 1827.67578125 344.83984375 1822.04003906 c 1,89,90
 345.58984375 1815.75976562 345.58984375 1815.75976562 354.6796875 1799.08007812 c 1,91,-1
 417 1831.87988281 l 1,92,-1
 417 1833.51953125 l 1,85,86
294 1820.40039062 m 1,93,94
 259.559570312 1794.16015625 259.559570312 1794.16015625 308.359375 1719.33886719 c 0,95,96
 310.494140625 1716.29199219 310.494140625 1716.29199219 315.58984375 1710.52050781 c 0,97,98
 333.913085938 1686.171875 333.913085938 1686.171875 321.879882812 1679.36035156 c 1,99,100
 332.465820312 1663.48144531 332.465820312 1663.48144531 326.872070312 1659.22070312 c 0,101,102
 323.672851562 1657.33007812 323.672851562 1657.33007812 321.879882812 1656.40039062 c 1,103,-1
 333.360351562 1640 l 1,104,-1
 338.280273438 1644.91992188 l 1,105,-1
 339.919921875 1644.91992188 l 1,106,107
 351.125 1634.58789062 351.125 1634.58789062 361.240234375 1644.91992188 c 1,108,-1
 362.879882812 1644.91992188 l 1,109,110
 374.084960938 1634.58789062 374.084960938 1634.58789062 384.200195312 1644.91992188 c 1,111,-1
 385.83984375 1644.91992188 l 1,112,-1
 417 1621.95996094 l 1,113,-1
 418.639648438 1621.95996094 l 1,114,-1
 435.040039062 1635.08007812 l 1,115,-1
 408.799804688 1646.55957031 l 1,116,-1
 426.83984375 1658.04003906 l 1,117,-1
 426.83984375 1661.3203125 l 1,118,-1
 408.799804688 1669.51953125 l 1,119,-1
 426.83984375 1681 l 1,120,-1
 426.83984375 1684.28027344 l 1,121,-1
 395.6796875 1690.83984375 l 1,122,123
 379.08203125 1685.30761719 379.08203125 1685.30761719 376.057617188 1687.56933594 c 0,124,125
 373.556640625 1690.01855469 373.556640625 1690.01855469 372.719726562 1690.83984375 c 2,126,-1
 356.3203125 1685.91992188 l 2,127,128
 353.040039062 1685.91992188 353.040039062 1685.91992188 350.580078125 1688.37988281 c 128,-1,129
 348.120117188 1690.83984375 348.120117188 1690.83984375 344.83984375 1695.75976562 c 128,-1,130
 341.559570312 1700.6796875 341.559570312 1700.6796875 339.099609375 1703.95996094 c 128,-1,131
 336.639648438 1707.24023438 336.639648438 1707.24023438 333.360351562 1712.98046875 c 2,132,-1
 330.080078125 1718.71972656 l 1,133,134
 292.192382812 1777.00878906 292.192382812 1777.00878906 294 1820.40039062 c 1,93,94
464.559570312 1799.08007812 m 1,135,136
 406.899414062 1801.99316406 406.899414062 1801.99316406 389.120117188 1792.51953125 c 1,137,138
 367.008789062 1777.77929688 367.008789062 1777.77929688 377.079101562 1758.46582031 c 0,139,140
 381.5078125 1752.84765625 381.5078125 1752.84765625 385.83984375 1749.87988281 c 0,141,142
 390.759765625 1746.59960938 390.759765625 1746.59960938 404.8984375 1756.50878906 c 2,143,-1
 407.16015625 1758.08007812 l 1,144,145
 446.703125 1781.71777344 446.703125 1781.71777344 464.559570312 1799.08007812 c 1,135,136
134.919921875 1785.95996094 m 1,146,147
 50.8115234375 1796.05273438 50.8115234375 1796.05273438 18.4794921875 1790.87988281 c 1,148,149
 -8.9541015625 1790.02539062 -8.9541015625 1790.02539062 -17.599609375 1784.3203125 c 1,150,151
 -23.203125 1777.66113281 -23.203125 1777.66113281 -37.2802734375 1735.12011719 c 1,152,153
 -22.5126953125 1739.33886719 -22.5126953125 1739.33886719 5.859375 1753.30078125 c 0,154,155
 22.3505859375 1761.31640625 22.3505859375 1761.31640625 29.9599609375 1764.63964844 c 0,156,157
 82.623046875 1784.03417969 82.623046875 1784.03417969 134.919921875 1784.3203125 c 1,158,-1
 134.919921875 1785.95996094 l 1,146,147
569.51953125 1751.51953125 m 1,159,-1
 566.240234375 1751.51953125 l 1,160,-1
 507.200195312 1682.63964844 l 1,161,162
 571.842773438 1724.68652344 571.842773438 1724.68652344 569.51953125 1751.51953125 c 1,159,-1
148.040039062 1689.20019531 m 1,163,-1
 146.400390625 1687.55957031 l 1,164,-1
 148.040039062 1689.20019531 l 1,163,-1
505.559570312 1682.63964844 m 1,165,-1
 502.280273438 1679.36035156 l 1,166,-1
 505.559570312 1682.63964844 l 1,165,-1
202.16015625 1654.75976562 m 1,167,-1
 175.919921875 1623.59960938 l 1,168,-1
 146.400390625 1599 l 1,169,-1
 218.559570312 1579.3203125 l 1,170,-1
 248.080078125 1592.44042969 l 1,171,-1
 313.6796875 1626.87988281 l 1,172,-1
 313.6796875 1628.51953125 l 1,173,-1
 244.799804688 1599 l 1,174,-1
 248.080078125 1608.83984375 l 1,175,-1
 221.83984375 1599 l 1,176,-1
 225.120117188 1608.83984375 l 1,177,-1
 198.879882812 1599 l 1,178,-1
 208.719726562 1625.24023438 l 1,179,-1
 198.879882812 1621.95996094 l 1,180,-1
 208.719726562 1648.20019531 l 1,181,-1
 198.879882812 1644.91992188 l 1,182,-1
 202.16015625 1654.75976562 l 1,167,-1
316.959960938 1630.16015625 m 1,183,-1
 315.3203125 1628.51953125 l 1,184,-1
 316.959960938 1630.16015625 l 1,183,-1
EndSplineSet
EndChar

StartChar: afii57453
Encoding: 1613 1613 313
AltUni2: 00fe74.ffffffff.0
Width: 80
VWidth: 1639
GlyphClass: 2
Flags: HW
AnchorPoint: "GposMark2BaseAnchorClassErabBelow_01_02" -5.1001 -119.72 mark 0
LayerCount: 2
Fore
SplineSet
-281.440429688 -226.3203125 m 1,0,-1
 -133.83984375 -211.559570312 l 1,1,-1
 -35.4404296875 -198.440429688 l 1,2,-1
 123.639648438 -145.959960938 l 1,3,-1
 197.440429688 -119.719726562 l 1,4,-1
 195.799804688 -127.919921875 l 1,5,-1
 220.400390625 -119.719726562 l 1,6,-1
 218.759765625 -127.919921875 l 1,7,-1
 243.360351562 -119.719726562 l 1,8,-1
 238.440429688 -144.3203125 l 1,9,-1
 243.360351562 -142.6796875 l 1,10,-1
 238.440429688 -167.280273438 l 1,11,-1
 243.360351562 -165.639648438 l 1,12,-1
 230.240234375 -224.6796875 l 1,13,-1
 277.799804688 -208.280273438 l 1,14,-1
 259.759765625 -293.559570312 l 1,15,-1
 238.440429688 -296.83984375 l 1,16,-1
 238.440429688 -369 l 1,17,-1
 272.879882812 -362.440429688 l 1,18,-1
 272.879882812 -424.759765625 l 1,19,20
 268.159179688 -424.918945312 268.159179688 -424.918945312 169.559570312 -434.599609375 c 0,21,22
 50.9736328125 -444.8046875 50.9736328125 -444.8046875 -5.919921875 -460.83984375 c 0,23,24
 -21.126953125 -465.427734375 -21.126953125 -465.427734375 -135.48046875 -505.120117188 c 0,25,26
 -143.475585938 -507.975585938 -143.475585938 -507.975585938 -159.995117188 -514.534179688 c 0,27,28
 -192.159179688 -527.095703125 -192.159179688 -527.095703125 -207.639648438 -531.360351562 c 1,29,-1
 -194.520507812 -472.3203125 l 1,30,-1
 -242.080078125 -488.719726562 l 1,31,-1
 -240.440429688 -480.51953125 l 1,32,-1
 -265.040039062 -488.719726562 l 1,33,-1
 -263.400390625 -480.51953125 l 1,34,-1
 -288 -488.719726562 l 1,35,-1
 -283.080078125 -464.120117188 l 1,36,-1
 -288 -465.759765625 l 1,37,-1
 -283.080078125 -441.16015625 l 1,38,-1
 -288 -442.799804688 l 1,39,-1
 -269.959960938 -357.51953125 l 1,40,-1
 -201.080078125 -346.040039062 l 1,41,-1
 -201.080078125 -328 l 1,42,-1
 -235.520507812 -334.559570312 l 1,43,44
 -240.995117188 -329.625 -240.995117188 -329.625 -258.48046875 -334.559570312 c 1,45,46
 -263.955078125 -329.625 -263.955078125 -329.625 -281.440429688 -334.559570312 c 1,47,-1
 -281.440429688 -226.3203125 l 1,0,-1
182.6796875 -188.599609375 m 1,48,-1
 125.280273438 -208.280273438 l 1,49,-1
 94.1201171875 -219.759765625 l 1,50,-1
 179.400390625 -205 l 1,51,-1
 182.6796875 -188.599609375 l 1,48,-1
90.83984375 -219.759765625 m 1,52,-1
 90.83984375 -221.400390625 l 1,53,-1
 90.83984375 -219.759765625 l 1,52,-1
-153.520507812 -264.040039062 m 1,54,-1
 -153.520507812 -265.6796875 l 1,55,-1
 -153.520507812 -264.040039062 l 1,54,-1
-161.719726562 -265.6796875 m 1,56,-1
 -235.520507812 -272.240234375 l 1,57,-1
 -235.520507812 -280.440429688 l 1,58,-1
 -161.719726562 -267.3203125 l 1,59,-1
 -161.719726562 -265.6796875 l 1,56,-1
76.080078125 -277.16015625 m 1,60,-1
 76.080078125 -278.799804688 l 1,61,62
 76.080078125 -277.16015625 l 1,60,-1
71.16015625 -278.799804688 m 1,63,-1
 7.2001953125 -290.280273438 l 1,64,-1
 -33.7998046875 -298.48046875 l 1,65,-1
 71.16015625 -280.440429688 l 1,66,-1
 71.16015625 -278.799804688 l 1,63,-1
-42 -298.48046875 m 1,67,-1
 -42 -300.120117188 l 1,68,69
 -42 -298.48046875 l 1,67,-1
192.51953125 -328 m 1,70,-1
 117.080078125 -342.759765625 l 1,71,-1
 192.51953125 -336.200195312 l 1,72,-1
 192.51953125 -328 l 1,70,-1
108.879882812 -342.759765625 m 1,73,-1
 107.240234375 -344.400390625 l 1,74,-1
 108.879882812 -342.759765625 l 1,73,-1
-135.48046875 -387.040039062 m 1,75,-1
 -135.48046875 -388.6796875 l 1,76,77
 -135.48046875 -387.040039062 l 1,75,-1
-138.759765625 -388.6796875 m 1,78,-1
 -224.040039062 -403.440429688 l 1,79,-1
 -227.3203125 -419.83984375 l 1,80,-1
 -138.759765625 -390.3203125 l 1,81,-1
 -138.759765625 -388.6796875 l 1,78,-1
77.7197265625 -396.879882812 m 1,82,-1
 76.080078125 -398.51953125 l 1,83,-1
 77.7197265625 -396.879882812 l 1,82,-1
69.51953125 -398.51953125 m 1,84,85
 -3.6181640625 -399.279296875 -3.6181640625 -399.279296875 -35.4404296875 -418.200195312 c 1,86,-1
 69.51953125 -400.16015625 l 1,87,-1
 69.51953125 -398.51953125 l 1,84,85
-40.3603515625 -418.200195312 m 1,88,-1
 -42 -419.83984375 l 1,89,-1
 -40.3603515625 -418.200195312 l 1,88,-1
EndSplineSet
EndChar

StartChar: afii57454
Encoding: 1614 1614 314
AltUni2: 00fe76.ffffffff.0
Width: 88
VWidth: 1639
GlyphClass: 2
Flags: HW
AnchorPoint: "GposMark2BaseAnchorHamzaErabAbove_01_01" 187.44 1480.92 mark 0
AnchorPoint: "GposMark2BaseAnchorHamzaErabBelow_01_01" 187.44 1738.4 mark 0
AnchorPoint: "GposMark2BaseAnchorClassErabAbove_01_02" 187.44 1480.92 mark 0
AnchorPoint: "GposMark2MarkAnchorHamzaErabAbove_01_01" 187.44 1480.92 mark 0
AnchorPoint: "GposMark2MarkAnchorHamzaErabBelow_01_01" 187.44 1738.4 mark 0
AnchorPoint: "GposMark2MarkAnchorShaddaErabAbove_01_02" 187.44 1480.92 mark 0
AnchorPoint: "GposMark2MarkAnchorShaddaErabBelow_01_02" 187.44 1738.4 mark 0
LayerCount: 2
Fore
SplineSet
385.879882812 1738.40039062 m 1,0,-1
 385.879882812 1730.20019531 l 1,1,-1
 410.479492188 1738.40039062 l 1,2,-1
 408.83984375 1730.20019531 l 1,3,-1
 433.440429688 1738.40039062 l 1,4,-1
 428.51953125 1713.79980469 l 1,5,-1
 433.440429688 1715.44042969 l 1,6,-1
 428.51953125 1690.83984375 l 1,7,-1
 433.440429688 1692.48046875 l 1,8,-1
 420.3203125 1631.79980469 l 1,9,-1
 467.879882812 1649.83984375 l 1,10,-1
 454.759765625 1589.16015625 l 1,11,-1
 446.559570312 1566.20019531 l 1,12,-1
 413.759765625 1558 l 1,13,-1
 325.200195312 1541.59960938 l 1,14,-1
 103.799804688 1502.24023438 l 1,15,-1
 -12.6396484375 1480.91992188 l 1,16,-1
 -12.6396484375 1528.48046875 l 1,17,-1
 -93 1523.55957031 l 1,18,-1
 -93 1631.79980469 l 1,19,-1
 15.240234375 1641.63964844 l 1,20,-1
 131.6796875 1654.75976562 l 1,21,-1
 262.879882812 1694.12011719 l 1,22,-1
 385.879882812 1738.40039062 l 1,0,-1
371.120117188 1669.51953125 m 1,23,-1
 280.919921875 1638.36035156 l 1,24,-1
 280.919921875 1636.71972656 l 1,25,-1
 339.959960938 1646.55957031 l 1,26,-1
 366.200195312 1653.12011719 l 1,27,-1
 371.120117188 1669.51953125 l 1,23,-1
31.6396484375 1592.44042969 m 1,28,-1
 25.080078125 1590.79980469 l 1,29,-1
 31.6396484375 1590.79980469 l 1,30,-1
 31.6396484375 1592.44042969 l 1,28,-1
21.7998046875 1590.79980469 m 1,31,-1
 -47.080078125 1585.87988281 l 1,32,-1
 -47.080078125 1577.6796875 l 1,33,-1
 21.7998046875 1589.16015625 l 1,34,-1
 21.7998046875 1590.79980469 l 1,31,-1
262.879882812 1579.3203125 m 1,35,-1
 195.639648438 1567.83984375 l 1,36,-1
 159.559570312 1559.63964844 l 1,37,-1
 262.879882812 1577.6796875 l 1,38,-1
 262.879882812 1579.3203125 l 1,35,-1
154.639648438 1559.63964844 m 1,39,-1
 149.719726562 1558 l 1,40,-1
 154.639648438 1558 l 1,41,-1
 154.639648438 1559.63964844 l 1,39,-1
EndSplineSet
EndChar

StartChar: afii57455
Encoding: 1615 1615 315
AltUni2: 00fe78.ffffffff.0
Width: -48
VWidth: 1639
GlyphClass: 2
Flags: HW
AnchorPoint: "GposMark2BaseAnchorHamzaErabAbove_01_01" 81.2402 1480.92 mark 0
AnchorPoint: "GposMark2BaseAnchorHamzaErabBelow_01_01" 81.2402 2118.88 mark 0
AnchorPoint: "GposMark2BaseAnchorClassErabAbove_01_02" 81.2402 1480.92 mark 0
AnchorPoint: "GposMark2MarkAnchorHamzaErabAbove_01_01" 81.2402 1480.92 mark 0
AnchorPoint: "GposMark2MarkAnchorHamzaErabBelow_01_01" 81.2402 2118.88 mark 0
AnchorPoint: "GposMark2MarkAnchorShaddaErabAbove_01_02" 81.2402 1480.92 mark 0
AnchorPoint: "GposMark2MarkAnchorShaddaErabBelow_01_02" 81.2402 2118.88 mark 0
LayerCount: 2
Fore
SplineSet
9.080078125 1738.40039062 m 1,0,1
 -76.4345703125 1769.61523438 -76.4345703125 1769.61523438 -104.080078125 1828.59960938 c 1,2,3
 -109.1796875 1845.51074219 -109.1796875 1845.51074219 -109 1889.28027344 c 0,4,5
 -109 1980.8671875 -109 1980.8671875 -25.6796875 2057.40820312 c 0,6,7
 42.0546875 2118.04296875 42.0546875 2118.04296875 114.040039062 2118.87988281 c 0,8,9
 166.772460938 2118.27148438 166.772460938 2118.27148438 178 2113.95996094 c 0,10,11
 219.107421875 2092.83691406 219.107421875 2092.83691406 233.760742188 2043.44042969 c 0,12,13
 234.866210938 2039.01464844 234.866210938 2039.01464844 235.966796875 2029.359375 c 0,14,15
 238.9765625 2009.82324219 238.9765625 2009.82324219 243.600585938 2002.44042969 c 0,16,17
 286.51953125 1935.67675781 286.51953125 1935.67675781 264.919921875 1856.48046875 c 1,18,-1
 278.040039062 1861.40039062 l 1,19,-1
 261.640625 1831.87988281 l 1,20,-1
 278.040039062 1838.44042969 l 1,21,-1
 261.640625 1808.91992188 l 1,22,-1
 278.040039062 1815.48046875 l 1,23,-1
 243.600585938 1756.44042969 l 1,24,25
 276.270507812 1759.09960938 276.270507812 1759.09960938 312.48046875 1772.83984375 c 1,26,-1
 253.440429688 1669.51953125 l 1,27,-1
 182.919921875 1677.71972656 l 1,28,29
 174.697265625 1650.70117188 174.697265625 1650.70117188 118.821289062 1572.28515625 c 0,30,31
 116.639648438 1569.20117188 116.639648438 1569.20117188 115.680664062 1567.83984375 c 0,32,33
 86.701171875 1528.9609375 86.701171875 1528.9609375 86.16015625 1528.48046875 c 0,34,35
 82.0126953125 1527.00976562 82.0126953125 1527.00976562 32.0400390625 1513.71972656 c 0,36,37
 18.919921875 1509.78417969 18.919921875 1509.78417969 -7.3193359375 1500.86230469 c 0,38,39
 -47.2265625 1487.4375 -47.2265625 1487.4375 -66.359375 1482.55957031 c 1,40,-1
 10.720703125 1559.63964844 l 1,41,-1
 -100.799804688 1525.20019531 l 1,42,-1
 -90.9599609375 1535.04003906 l 1,43,-1
 -123.759765625 1525.20019531 l 1,44,-1
 -113.919921875 1535.04003906 l 1,45,-1
 -146.719726562 1525.20019531 l 1,46,-1
 -113.919921875 1558 l 1,47,-1
 -146.719726562 1548.16015625 l 1,48,-1
 -113.919921875 1580.95996094 l 1,49,-1
 -146.719726562 1571.12011719 l 1,50,-1
 -102.439453125 1612.12011719 l 1,51,-1
 9.080078125 1738.40039062 l 1,0,1
168.16015625 2035.24023438 m 1,52,53
 146.798828125 2084.06640625 146.798828125 2084.06640625 88.7109375 2058.56445312 c 0,54,55
 65.400390625 2047.43457031 65.400390625 2047.43457031 50.080078125 2030.3203125 c 1,56,57
 108.35546875 2042.43066406 108.35546875 2042.43066406 168.16015625 2035.24023438 c 1,52,53
187.83984375 1999.16015625 m 1,58,-1
 186.200195312 1997.51953125 l 1,59,-1
 187.83984375 1999.16015625 l 1,58,-1
189.48046875 1992.59960938 m 1,60,61
 186.494140625 1987.82128906 186.494140625 1987.82128906 183.975585938 1951.25878906 c 0,62,63
 183.665039062 1946.75292969 183.665039062 1946.75292969 182.919921875 1943.40039062 c 0,64,65
 172.251953125 1907.39550781 172.251953125 1907.39550781 140.280273438 1846.63964844 c 0,66,67
 138.958007812 1843.99609375 138.958007812 1843.99609375 135.926757812 1836.43847656 c 0,68,69
 125.567382812 1812.70410156 125.567382812 1812.70410156 118.959960938 1807.28027344 c 0,70,71
 116.260742188 1805.48046875 116.260742188 1805.48046875 109.922851562 1807.78808594 c 0,72,73
 104.78125 1809.66015625 104.78125 1809.66015625 102.560546875 1808.91992188 c 0,74,75
 98.7236328125 1808.91992188 98.7236328125 1808.91992188 89.9443359375 1807.91015625 c 0,76,77
 75.763671875 1806.27929688 75.763671875 1806.27929688 69.7607421875 1807.28027344 c 0,78,79
 52.9150390625 1809.6875 52.9150390625 1809.6875 -2.3994140625 1838.44042969 c 1,80,81
 -42.3212890625 1864.05761719 -42.3212890625 1864.05761719 -58.16015625 1886 c 1,82,-1
 -59.7998046875 1886 l 1,83,84
 -58.16015625 1869.59960938 -58.16015625 1869.59960938 -37.376953125 1845.62597656 c 0,85,86
 9.1728515625 1790.36035156 9.1728515625 1790.36035156 70.4169921875 1777.89257812 c 0,87,88
 77.6025390625 1776.62011719 77.6025390625 1776.62011719 82.8798828125 1776.12011719 c 1,89,-1
 69.7607421875 1756.44042969 l 1,90,-1
 82.8798828125 1753.16015625 l 1,91,-1
 69.7607421875 1733.48046875 l 1,92,93
 89.181640625 1727.29882812 89.181640625 1727.29882812 102.560546875 1766.28027344 c 1,94,95
 120.526367188 1763.00878906 120.526367188 1763.00878906 125.520507812 1766.28027344 c 1,96,97
 143.486328125 1763.00878906 143.486328125 1763.00878906 148.48046875 1766.28027344 c 1,98,99
 174.231445312 1760.55761719 174.231445312 1760.55761719 188.53515625 1785.59863281 c 0,100,101
 189.655273438 1787.55957031 189.655273438 1787.55957031 191.967773438 1791.76855469 c 0,102,103
 194.954101562 1797.15039062 194.954101562 1797.15039062 196.040039062 1799.08007812 c 1,104,-1
 143.560546875 1799.08007812 l 1,105,-1
 155.040039062 1822.04003906 l 1,106,-1
 143.560546875 1822.04003906 l 1,107,-1
 155.040039062 1845 l 1,108,-1
 143.560546875 1845 l 1,109,110
 196.265625 1934.828125 196.265625 1934.828125 189.48046875 1992.59960938 c 1,60,61
64.83984375 1974.55957031 m 1,111,112
 12.740234375 1958.06933594 12.740234375 1958.06933594 -10.599609375 1927 c 1,113,-1
 5.80078125 1908.95996094 l 1,114,-1
 7.4404296875 1908.95996094 l 1,115,-1
 64.83984375 1974.55957031 l 1,111,112
117.3203125 1938.48046875 m 1,116,117
 47.3466796875 1914.03417969 47.3466796875 1914.03417969 30.400390625 1890.91992188 c 1,118,-1
 82.8798828125 1866.3203125 l 1,119,-1
 117.3203125 1938.48046875 l 1,116,117
74.6806640625 1717.08007812 m 1,120,-1
 73.0400390625 1715.44042969 l 1,121,-1
 74.6806640625 1717.08007812 l 1,120,-1
71.400390625 1712.16015625 m 1,122,-1
 68.1201171875 1708.87988281 l 1,123,-1
 71.400390625 1712.16015625 l 1,122,-1
68.1201171875 1707.24023438 m 1,124,-1
 22.2001953125 1653.12011719 l 1,125,-1
 -12.2392578125 1612.12011719 l 1,126,127
 8.6552734375 1616.29882812 8.6552734375 1616.29882812 26.5615234375 1644.61621094 c 0,128,129
 30.4833984375 1650.74414062 30.4833984375 1650.74414062 32.0400390625 1653.12011719 c 0,130,131
 61.1103515625 1693.62890625 61.1103515625 1693.62890625 68.1201171875 1707.24023438 c 1,124,-1
-112.279296875 1582.59960938 m 1,132,-1
 -113.919921875 1580.95996094 l 1,133,-1
 -112.279296875 1582.59960938 l 1,132,-1
-150 1571.12011719 m 1,134,-1
 -148.359375 1569.48046875 l 1,135,-1
 -150 1571.12011719 l 1,134,-1
-127.040039062 1571.12011719 m 1,136,-1
 -125.399414062 1569.48046875 l 1,137,-1
 -127.040039062 1571.12011719 l 1,136,-1
-112.279296875 1559.63964844 m 1,138,-1
 -113.919921875 1558 l 1,139,-1
 -112.279296875 1559.63964844 l 1,138,-1
-150 1548.16015625 m 1,140,-1
 -148.359375 1546.51953125 l 1,141,-1
 -150 1548.16015625 l 1,140,-1
-127.040039062 1548.16015625 m 1,142,-1
 -125.399414062 1546.51953125 l 1,143,-1
 -127.040039062 1548.16015625 l 1,142,-1
-112.279296875 1536.6796875 m 1,144,-1
 -113.919921875 1535.04003906 l 1,145,-1
 -112.279296875 1536.6796875 l 1,144,-1
-89.3193359375 1536.6796875 m 1,146,-1
 -90.9599609375 1535.04003906 l 1,147,-1
 -89.3193359375 1536.6796875 l 1,146,-1
-150 1525.20019531 m 1,148,-1
 -148.359375 1523.55957031 l 1,149,-1
 -150 1525.20019531 l 1,148,-1
-127.040039062 1525.20019531 m 1,150,-1
 -125.399414062 1523.55957031 l 1,151,-1
 -127.040039062 1525.20019531 l 1,150,-1
-104.080078125 1525.20019531 m 1,152,-1
 -102.439453125 1523.55957031 l 1,153,-1
 -104.080078125 1525.20019531 l 1,152,-1
-69.6396484375 1482.55957031 m 1,154,-1
 -68 1480.91992188 l 1,155,-1
 -69.6396484375 1482.55957031 l 1,154,-1
EndSplineSet
EndChar

StartChar: afii57456
Encoding: 1616 1616 316
AltUni2: 00fe7a.ffffffff.0
Width: 86
VWidth: 1639
GlyphClass: 2
Flags: HW
AnchorPoint: "GposMark2BaseAnchorClassErabBelow_01_02" -1.56006 -119.72 mark 0
LayerCount: 2
Fore
SplineSet
-282 -226.3203125 m 1,0,1
 -274.282226562 -226.166015625 -274.282226562 -226.166015625 -175.400390625 -216.48046875 c 0,2,3
 -59.9091796875 -205.392578125 -59.9091796875 -205.392578125 -19.599609375 -195.16015625 c 0,4,5
 15.3076171875 -185.075195312 15.3076171875 -185.075195312 83.6162109375 -159.05078125 c 0,6,7
 160.208007812 -130.057617188 160.208007812 -130.057617188 198.51953125 -119.719726562 c 1,8,-1
 196.879882812 -127.919921875 l 1,9,-1
 221.479492188 -119.719726562 l 1,10,-1
 219.83984375 -127.919921875 l 1,11,-1
 244.440429688 -119.719726562 l 1,12,-1
 237.879882812 -144.3203125 l 1,13,-1
 244.440429688 -142.6796875 l 1,14,-1
 237.879882812 -167.280273438 l 1,15,-1
 244.440429688 -165.639648438 l 1,16,-1
 231.3203125 -226.3203125 l 1,17,-1
 278.879882812 -208.280273438 l 1,18,-1
 265.759765625 -267.3203125 l 1,19,-1
 257.559570312 -291.919921875 l 1,20,-1
 226.400390625 -300.120117188 l 1,21,-1
 139.479492188 -316.51953125 l 1,22,-1
 -77 -354.240234375 l 1,23,-1
 -201.639648438 -377.200195312 l 1,24,-1
 -201.639648438 -328 l 1,25,26
 -219.6796875 -332.919921875 -219.6796875 -332.919921875 -258.009765625 -333.969726562 c 0,27,28
 -273.799804688 -334.559570312 -273.799804688 -334.559570312 -282 -334.559570312 c 1,29,-1
 -282 -226.3203125 l 1,0,1
196.879882812 -127.919921875 m 1,30,-1
 195.240234375 -129.559570312 l 1,31,-1
 196.879882812 -127.919921875 l 1,30,-1
219.83984375 -127.919921875 m 1,32,-1
 218.200195312 -129.559570312 l 1,33,-1
 219.83984375 -127.919921875 l 1,32,-1
182.120117188 -188.599609375 m 1,34,-1
 90.2802734375 -219.759765625 l 1,35,-1
 90.2802734375 -221.400390625 l 1,36,-1
 150.959960938 -209.919921875 l 1,37,-1
 177.200195312 -205 l 1,38,-1
 182.120117188 -188.599609375 l 1,34,-1
87 -221.400390625 m 1,39,-1
 85.3603515625 -223.040039062 l 1,40,-1
 87 -221.400390625 l 1,39,-1
-159 -265.6796875 m 1,41,-1
 -165.559570312 -267.3203125 l 1,42,-1
 -159 -267.3203125 l 1,43,-1
 -159 -265.6796875 l 1,41,-1
-167.200195312 -267.3203125 m 1,44,-1
 -236.080078125 -272.240234375 l 1,45,-1
 -236.080078125 -280.440429688 l 1,46,-1
 -167.200195312 -268.959960938 l 1,47,-1
 -167.200195312 -267.3203125 l 1,44,-1
78.7998046875 -277.16015625 m 1,48,-1
 77.16015625 -278.799804688 l 1,49,-1
 78.7998046875 -277.16015625 l 1,48,-1
73.8798828125 -278.799804688 m 1,50,-1
 68.9599609375 -280.440429688 l 1,51,-1
 73.8798828125 -280.440429688 l 1,52,-1
 73.8798828125 -278.799804688 l 1,50,-1
67.3203125 -280.440429688 m 1,53,-1
 9.919921875 -290.280273438 l 1,54,-1
 -31.080078125 -298.48046875 l 1,55,-1
 67.3203125 -282.080078125 l 1,56,-1
 67.3203125 -280.440429688 l 1,53,-1
-37.6396484375 -298.48046875 m 1,57,-1
 -37.6396484375 -300.120117188 l 1,58,-1
 -37.6396484375 -298.48046875 l 1,57,-1
EndSplineSet
EndChar

StartChar: afii57457
Encoding: 1617 1617 317
AltUni2: 00fe7c.ffffffff.0
Width: 264
VWidth: 1639
GlyphClass: 2
Flags: HW
AnchorPoint: "GposMark2BaseAnchorHamzaErabAbove_01_01" 294.91 1460.65 mark 0
AnchorPoint: "GposMark2BaseAnchorHamzaErabBelow_01_01" 294.91 2002.44 mark 0
AnchorPoint: "GposMark2BaseAnchorClassErabAbove_01_02" 294.91 1460.65 mark 0
AnchorPoint: "GposMark2MarkAnchorHamzaErabAbove_01_01" 294.91 1460.65 mark 0
AnchorPoint: "GposMark2MarkAnchorHamzaErabBelow_01_01" 294.91 2002.44 mark 0
AnchorPoint: "GposMark2MarkAnchorShaddaErabAbove_01_02" 294.91 2152.44 basemark 0
AnchorPoint: "GposMark2MarkAnchorShaddaErabBelow_01_02" 294.91 1310.65 basemark 0
LayerCount: 2
Fore
SplineSet
396.360351562 2002.44042969 m 1,0,-1
 427.51953125 1984.40039062 l 1,1,-1
 419.3203125 2002.44042969 l 1,2,-1
 450.479492188 1984.40039062 l 1,3,-1
 442.280273438 2002.44042969 l 1,4,5
 458.551757812 1994.53613281 458.551757812 1994.53613281 524.280273438 1953.24023438 c 0,6,7
 555.552734375 1935.37011719 555.552734375 1935.37011719 560.360351562 1928.63964844 c 0,8,9
 567.0859375 1920.41894531 567.0859375 1920.41894531 576.015625 1874.13476562 c 0,10,11
 578.782226562 1861.69140625 578.782226562 1861.69140625 581.6796875 1854.83984375 c 0,12,13
 583.3203125 1850.74023438 583.3203125 1850.74023438 589.879882812 1845.8203125 c 0,14,15
 596.294921875 1839.7109375 596.294921875 1839.7109375 598.080078125 1836.79980469 c 0,16,17
 602.306640625 1825.17773438 602.306640625 1825.17773438 607.990234375 1800.76660156 c 0,18,19
 611.265625 1786.95410156 611.265625 1786.95410156 612.83984375 1781.04003906 c 0,20,21
 642.8203125 1642.67089844 642.8203125 1642.67089844 587.693359375 1559.86914062 c 0,22,23
 557.158203125 1516.69628906 557.158203125 1516.69628906 507.879882812 1502.24023438 c 1,24,25
 458.452148438 1490.44726562 458.452148438 1490.44726562 419.3203125 1510.44042969 c 0,26,27
 411.07421875 1514.87988281 411.07421875 1514.87988281 397.764648438 1524.56835938 c 0,28,29
 376.581054688 1539.13476562 376.581054688 1539.13476562 363.559570312 1543.24023438 c 1,30,31
 350.018554688 1518.78808594 350.018554688 1518.78808594 311.080078125 1500.59960938 c 0,32,33
 231.171875 1460.64648438 231.171875 1460.64648438 139.338867188 1491.02832031 c 0,34,35
 122.55859375 1496.89550781 122.55859375 1496.89550781 109.360351562 1503.87988281 c 0,36,37
 103.58984375 1507.48632812 103.58984375 1507.48632812 93.3955078125 1515.90429688 c 0,38,39
 79.8837890625 1526.52246094 79.8837890625 1526.52246094 73.2802734375 1530.12011719 c 0,40,41
 65.189453125 1534.16503906 65.189453125 1534.16503906 49.5576171875 1541.00488281 c 0,42,43
 -1.33984375 1564.71679688 -1.33984375 1564.71679688 -20.2001953125 1592.44042969 c 0,44,45
 -52.7041015625 1642.87304688 -52.7041015625 1642.87304688 -53 1726.91992188 c 0,46,47
 -51.890625 1846.24609375 -51.890625 1846.24609375 2.759765625 1922.08007812 c 0,48,49
 47.1875 1981.59375 47.1875 1981.59375 86.400390625 1997.51953125 c 1,50,-1
 81.4794921875 1981.12011719 l 1,51,-1
 109.360351562 1997.51953125 l 1,52,-1
 104.440429688 1981.12011719 l 1,53,-1
 132.3203125 1997.51953125 l 1,54,-1
 124.120117188 1971.28027344 l 1,55,-1
 132.3203125 1974.55957031 l 1,56,-1
 124.120117188 1948.3203125 l 1,57,-1
 132.3203125 1951.59960938 l 1,58,-1
 104.440429688 1861.40039062 l 1,59,60
 145.504882812 1901.20703125 145.504882812 1901.20703125 166.759765625 1908.95996094 c 1,61,62
 149.708007812 1857.54003906 149.708007812 1857.54003906 138.879882812 1818.75976562 c 0,63,64
 137.71875 1814.69433594 137.71875 1814.69433594 136.192382812 1804.75097656 c 0,65,66
 132.681640625 1785.7421875 132.681640625 1785.7421875 129.040039062 1779.40039062 c 0,67,68
 126.563476562 1777.01269531 126.563476562 1777.01269531 106.080078125 1763 c 1,69,70
 69.7158203125 1730.67675781 69.7158203125 1730.67675781 72.7548828125 1699.17578125 c 0,71,72
 73.142578125 1696.64160156 73.142578125 1696.64160156 73.2802734375 1695.75976562 c 0,73,74
 78.4423828125 1684.140625 78.4423828125 1684.140625 117.559570312 1669.51953125 c 1,75,76
 209.041992188 1645.65527344 209.041992188 1645.65527344 245.659179688 1681.953125 c 0,77,78
 250.747070312 1687.75097656 250.747070312 1687.75097656 253.6796875 1692.48046875 c 0,79,80
 259.362304688 1705.65136719 259.362304688 1705.65136719 248.759765625 1761.36035156 c 0,81,82
 246.610351562 1775.87304688 246.610351562 1775.87304688 240.888671875 1805.31152344 c 0,83,84
 229.2890625 1866.5859375 229.2890625 1866.5859375 229.080078125 1895.83984375 c 1,85,86
 224.341796875 1924.26660156 224.341796875 1924.26660156 227.440429688 1933.55957031 c 0,87,88
 230.533203125 1939.74707031 230.533203125 1939.74707031 265.85546875 1962.57128906 c 0,89,90
 270.940429688 1966.1015625 270.940429688 1966.1015625 273.360351562 1968 c 0,91,92
 277.475585938 1970.57226562 277.475585938 1970.57226562 286.140625 1976.76464844 c 0,93,94
 306.427734375 1990.66015625 306.427734375 1990.66015625 316 1994.24023438 c 1,95,-1
 316 1981.12011719 l 1,96,-1
 338.959960938 1994.24023438 l 1,97,-1
 338.959960938 1981.12011719 l 1,98,-1
 361.919921875 1994.24023438 l 1,99,-1
 370.120117188 1889.28027344 l 1,100,-1
 396.360351562 1905.6796875 l 1,101,102
 396.360351562 1876.65234375 396.360351562 1876.65234375 402.875976562 1816.32226562 c 0,103,104
 406.631835938 1781.0234375 406.631835938 1781.0234375 407.83984375 1764.63964844 c 0,105,106
 408.494140625 1756.13085938 408.494140625 1756.13085938 407.7109375 1737.49023438 c 0,107,108
 406.91796875 1708.92285156 406.91796875 1708.92285156 409.479492188 1697.40039062 c 0,109,110
 417.106445312 1671.47070312 417.106445312 1671.47070312 455.938476562 1686.0390625 c 0,111,112
 472.309570312 1693.26757812 472.309570312 1693.26757812 478.360351562 1702.3203125 c 0,113,114
 481.639648438 1708.87988281 481.639648438 1708.87988281 477.138671875 1720.76464844 c 2,115,-1
 476.719726562 1722 l 1,116,117
 473.784179688 1735.82519531 473.784179688 1735.82519531 463.599609375 1769.55957031 c 0,118,119
 437.596679688 1860.90429688 437.596679688 1860.90429688 396.360351562 1956.51953125 c 1,120,-1
 411.120117188 1948.3203125 l 1,121,-1
 396.360351562 1979.48046875 l 1,122,-1
 411.120117188 1971.28027344 l 1,123,-1
 396.360351562 2002.44042969 l 1,0,-1
81.4794921875 1981.12011719 m 1,124,-1
 79.83984375 1979.48046875 l 1,125,-1
 81.4794921875 1981.12011719 l 1,124,-1
104.440429688 1981.12011719 m 1,126,-1
 102.799804688 1979.48046875 l 1,127,-1
 104.440429688 1981.12011719 l 1,126,-1
317.639648438 1918.79980469 m 1,128,-1
 279.919921875 1894.20019531 l 1,129,130
 305.360351562 1754.03710938 305.360351562 1754.03710938 302.879882812 1700.6796875 c 1,131,132
 302.879882812 1656.31445312 302.879882812 1656.31445312 302.067382812 1653.69921875 c 0,133,134
 298.786132812 1645.52636719 298.786132812 1645.52636719 294.6796875 1640 c 1,135,-1
 294.6796875 1638.36035156 l 1,136,-1
 306.16015625 1628.51953125 l 1,137,-1
 314.360351562 1641.63964844 l 1,138,-1
 329.120117188 1628.51953125 l 1,139,-1
 337.3203125 1641.63964844 l 1,140,141
 378.333007812 1600.62695312 378.333007812 1600.62695312 393.3515625 1593.99316406 c 0,142,143
 403.994140625 1589.92871094 403.994140625 1589.92871094 412.759765625 1589.16015625 c 0,144,145
 436.236328125 1588.16210938 436.236328125 1588.16210938 470.16015625 1610.48046875 c 1,146,147
 489.873046875 1627.90820312 489.873046875 1627.90820312 496.400390625 1638.36035156 c 1,148,149
 468.958007812 1631.93847656 468.958007812 1631.93847656 437.360351562 1631.79980469 c 0,150,151
 395.244140625 1632.2421875 395.244140625 1632.2421875 384.879882812 1635.08007812 c 0,152,153
 337.97265625 1655.72851562 337.97265625 1655.72851562 330.759765625 1717.08007812 c 0,154,155
 329.24609375 1727.17089844 329.24609375 1727.17089844 326.3984375 1843.65039062 c 0,156,157
 324.94140625 1888.6796875 324.94140625 1888.6796875 317.639648438 1918.79980469 c 1,128,-1
483.280273438 1904.04003906 m 1,158,159
 482.48828125 1894.54003906 482.48828125 1894.54003906 499.981445312 1848.93457031 c 0,160,161
 502.000976562 1843.27636719 502.000976562 1843.27636719 502.959960938 1840.08007812 c 0,162,163
 524.2421875 1764.51757812 524.2421875 1764.51757812 530.83984375 1702.3203125 c 1,164,-1
 532.479492188 1702.3203125 l 1,165,166
 542.3203125 1758.08007812 542.3203125 1758.08007812 542.3203125 1758.08007812 c 0,167,168
 541.924804688 1783.01660156 541.924804688 1783.01660156 527.559570312 1840.08007812 c 0,169,170
 517.954101562 1878.50292969 517.954101562 1878.50292969 514.440429688 1882.71972656 c 0,171,172
 510.6328125 1887.06445312 510.6328125 1887.06445312 483.280273438 1904.04003906 c 1,158,159
50.3203125 1876.16015625 m 1,173,-1
 40.4794921875 1863.04003906 l 1,174,175
 49.16796875 1867.55371094 49.16796875 1867.55371094 50.3203125 1876.16015625 c 1,173,-1
56.8798828125 1789.24023438 m 1,176,-1
 55.240234375 1787.59960938 l 1,177,-1
 56.8798828125 1789.24023438 l 1,176,-1
55.240234375 1785.95996094 m 1,178,-1
 43.759765625 1763 l 1,179,-1
 45.400390625 1763 l 1,180,-1
 55.240234375 1785.95996094 l 1,178,-1
43.759765625 1759.71972656 m 1,181,-1
 42.1201171875 1759.71972656 l 1,182,-1
 43.759765625 1759.71972656 l 1,181,-1
17.51953125 1654.75976562 m 1,183,184
 17.51953125 1625.36132812 17.51953125 1625.36132812 71.5595703125 1595.09765625 c 0,185,186
 74.8935546875 1593.30761719 74.8935546875 1593.30761719 76.5595703125 1592.44042969 c 0,187,188
 152.677734375 1552.47753906 152.677734375 1552.47753906 228.75390625 1586.40625 c 0,189,190
 262.838867188 1602.80273438 262.838867188 1602.80273438 283.200195312 1630.16015625 c 1,191,192
 245.422851562 1615.40625 245.422851562 1615.40625 174.959960938 1615.40039062 c 0,193,194
 71.35546875 1615.40039062 71.35546875 1615.40039062 28.8544921875 1645.71679688 c 0,195,196
 22.2265625 1650.70507812 22.2265625 1650.70507812 17.51953125 1654.75976562 c 1,183,184
565.280273438 1625.24023438 m 1,197,-1
 557.080078125 1610.48046875 l 1,198,-1
 565.280273438 1625.24023438 l 1,197,-1
EndSplineSet
EndChar

StartChar: afii57458
Encoding: 1618 1618 318
AltUni2: 00fe7e.ffffffff.0
Width: 0
VWidth: 1639
GlyphClass: 2
Flags: HW
AnchorPoint: "GposMark2BaseAnchorHamzaErabAbove_01_01" 141.682 1463.92 mark 0
AnchorPoint: "GposMark2BaseAnchorHamzaErabBelow_01_01" 141.682 1882.72 mark 0
AnchorPoint: "GposMark2BaseAnchorClassErabAbove_01_02" 141.682 1463.92 mark 0
AnchorPoint: "GposMark2MarkAnchorHamzaErabAbove_01_01" 141.682 1463.92 mark 0
AnchorPoint: "GposMark2MarkAnchorHamzaErabBelow_01_01" 141.682 1882.72 mark 0
AnchorPoint: "GposMark2MarkAnchorShaddaErabAbove_01_02" 141.682 1463.92 mark 0
AnchorPoint: "GposMark2MarkAnchorShaddaErabBelow_01_02" 141.682 1882.72 mark 0
LayerCount: 2
Fore
SplineSet
-16.48046875 1828.59960938 m 1,0,1
 13.5361328125 1849.76660156 13.5361328125 1849.76660156 34.3603515625 1866.3203125 c 0,2,3
 55.1611328125 1881.1796875 55.1611328125 1881.1796875 58.9599609375 1882.71972656 c 0,4,5
 61.419921875 1882.71972656 61.419921875 1882.71972656 66.33984375 1881.08007812 c 0,6,7
 71.806640625 1879.69238281 71.806640625 1879.69238281 73.7197265625 1879.44042969 c 0,8,9
 77.9150390625 1879.44042969 77.9150390625 1879.44042969 87.30078125 1880.77050781 c 0,10,11
 104.490234375 1882.61621094 104.490234375 1882.61621094 111.440429688 1881.08007812 c 0,12,13
 115.755859375 1880.36035156 115.755859375 1880.36035156 125.057617188 1876.38183594 c 0,14,15
 137.509765625 1871.65722656 137.509765625 1871.65722656 142.599609375 1871.24023438 c 0,16,17
 145.059570312 1871.24023438 145.059570312 1871.24023438 149.979492188 1873.70019531 c 0,18,19
 155.446289062 1875.78222656 155.446289062 1875.78222656 157.360351562 1876.16015625 c 0,20,21
 159.67578125 1876.16015625 159.67578125 1876.16015625 163.389648438 1874.08691406 c 0,22,23
 167.611328125 1872.93847656 167.611328125 1872.93847656 168.83984375 1872.87988281 c 0,24,25
 171.548828125 1872.87988281 171.548828125 1872.87988281 175.748046875 1874.76757812 c 0,26,27
 179.362304688 1875.90429688 179.362304688 1875.90429688 180.3203125 1876.16015625 c 0,28,29
 182.63671875 1876.16015625 182.63671875 1876.16015625 186.349609375 1874.08691406 c 0,30,31
 190.571289062 1872.93847656 190.571289062 1872.93847656 191.799804688 1872.87988281 c 0,32,33
 193.953125 1872.87988281 193.953125 1872.87988281 197.592773438 1874.74511719 c 0,34,35
 202.9296875 1876.234375 202.9296875 1876.234375 204.919921875 1876.16015625 c 0,36,37
 222.915039062 1870.84765625 222.915039062 1870.84765625 241 1841.71972656 c 1,38,-1
 226.240234375 1835.16015625 l 1,39,-1
 241 1818.75976562 l 1,40,-1
 226.240234375 1812.20019531 l 1,41,42
 260.360351562 1783.95410156 260.360351562 1783.95410156 275.440429688 1753.16015625 c 1,43,-1
 272.16015625 1753.16015625 l 1,44,45
 282.010742188 1729.65332031 282.010742188 1729.65332031 285.280273438 1718.71972656 c 0,46,47
 285.938476562 1715.42773438 285.938476562 1715.42773438 286.200195312 1708.26367188 c 0,48,49
 287.112304688 1696.98046875 287.112304688 1696.98046875 288.559570312 1692.48046875 c 0,50,51
 292.428710938 1684.19042969 292.428710938 1684.19042969 301.213867188 1669.21777344 c 0,52,53
 317.87890625 1639.51953125 317.87890625 1639.51953125 321.360351562 1621.95996094 c 0,54,55
 329.36328125 1546.70800781 329.36328125 1546.70800781 224.599609375 1503.87988281 c 0,56,57
 127.124023438 1463.921875 127.124023438 1463.921875 72.080078125 1489.12011719 c 0,58,59
 58.365234375 1495.99121094 58.365234375 1495.99121094 50.759765625 1507.16015625 c 0,60,61
 40.296875 1521.25878906 40.296875 1521.25878906 39.2802734375 1521.91992188 c 0,62,63
 33.43359375 1524.04589844 33.43359375 1524.04589844 17.9599609375 1523.55957031 c 1,64,65
 -13.1474609375 1530.94726562 -13.1474609375 1530.94726562 -26.3203125 1544.87988281 c 1,66,67
 -45.8486328125 1569.63574219 -45.8486328125 1569.63574219 -46 1621.95996094 c 0,68,69
 -44.1845703125 1741.76855469 -44.1845703125 1741.76855469 19.599609375 1776.12011719 c 1,70,-1
 19.599609375 1777.75976562 l 1,71,-1
 -16.48046875 1781.04003906 l 1,72,-1
 -16.48046875 1782.6796875 l 1,73,-1
 9.759765625 1800.71972656 l 1,74,-1
 9.759765625 1802.36035156 l 1,75,-1
 -16.48046875 1804 l 1,76,-1
 -16.48046875 1805.63964844 l 1,77,-1
 9.759765625 1823.6796875 l 1,78,-1
 9.759765625 1825.3203125 l 1,79,-1
 -16.48046875 1826.95996094 l 1,80,-1
 -16.48046875 1828.59960938 l 1,0,1
180.3203125 1812.20019531 m 1,81,82
 164.010742188 1815.47167969 164.010742188 1815.47167969 134.400390625 1815.48046875 c 0,83,84
 131.940429688 1815.48046875 131.940429688 1815.48046875 127.01953125 1813.83984375 c 0,85,86
 121.553710938 1812.45214844 121.553710938 1812.45214844 119.639648438 1812.20019531 c 0,87,88
 115.963867188 1813.578125 115.963867188 1813.578125 108.6484375 1817.859375 c 0,89,90
 89.7724609375 1826.63769531 89.7724609375 1826.63769531 81.919921875 1820.40039062 c 1,91,-1
 111.440429688 1810.55957031 l 1,92,-1
 111.440429688 1808.91992188 l 1,93,-1
 90.1201171875 1794.16015625 l 1,94,-1
 111.440429688 1787.59960938 l 1,95,-1
 111.440429688 1785.95996094 l 1,96,-1
 90.1201171875 1771.20019531 l 1,97,98
 94.787109375 1771.20019531 94.787109375 1771.20019531 101.198242188 1773.53320312 c 0,99,100
 111.883789062 1774.74707031 111.883789062 1774.74707031 118 1769.55957031 c 1,101,-1
 119.639648438 1769.55957031 l 1,102,103
 131.611328125 1777.94726562 131.611328125 1777.94726562 140.959960938 1769.55957031 c 1,104,-1
 142.599609375 1769.55957031 l 1,105,106
 147.51953125 1772.83984375 147.51953125 1772.83984375 151.620117188 1774.48046875 c 128,-1,107
 155.719726562 1776.12011719 155.719726562 1776.12011719 159.8203125 1772.83984375 c 128,-1,108
 163.919921875 1769.55957031 163.919921875 1769.55957031 166.379882812 1767.91992188 c 128,-1,109
 168.83984375 1766.28027344 168.83984375 1766.28027344 173.759765625 1759.71972656 c 2,110,-1
 178.6796875 1753.16015625 l 1,111,112
 223.190429688 1701.23046875 223.190429688 1701.23046875 229.045898438 1682.69628906 c 0,113,114
 232.154296875 1670.57714844 232.154296875 1670.57714844 231.16015625 1661.3203125 c 1,115,-1
 232.799804688 1661.3203125 l 1,116,117
 247.806640625 1700.3359375 247.806640625 1700.3359375 172.603515625 1774.08984375 c 0,118,119
 167.357421875 1779.2578125 167.357421875 1779.2578125 165.559570312 1781.04003906 c 1,120,-1
 180.3203125 1787.59960938 l 1,121,-1
 165.559570312 1804 l 1,122,-1
 180.3203125 1812.20019531 l 1,81,82
129.479492188 1713.79980469 m 1,123,-1
 106.51953125 1694.12011719 l 1,124,-1
 129.479492188 1713.79980469 l 1,123,-1
103.240234375 1692.48046875 m 1,125,-1
 96.6796875 1685.91992188 l 1,126,-1
 103.240234375 1692.48046875 l 1,125,-1
88.4794921875 1679.36035156 m 1,127,128
 65.65625 1663.67675781 65.65625 1663.67675781 55.6796875 1643.28027344 c 1,129,-1
 88.4794921875 1679.36035156 l 1,127,128
163.919921875 1671.16015625 m 1,130,131
 128.543945312 1647.75878906 128.543945312 1647.75878906 111.440429688 1625.24023438 c 1,132,133
 158.536132812 1620.00683594 158.536132812 1620.00683594 173.884765625 1639.45507812 c 0,134,135
 176.23046875 1643.7265625 176.23046875 1643.7265625 177.040039062 1646.55957031 c 0,136,137
 177.040039062 1649.83984375 177.040039062 1649.83984375 176.219726562 1653.12011719 c 128,-1,138
 175.400390625 1656.40039062 175.400390625 1656.40039062 173.759765625 1658.86035156 c 128,-1,139
 172.120117188 1661.3203125 172.120117188 1661.3203125 168.01953125 1666.24023438 c 2,140,-1
 163.919921875 1671.16015625 l 1,130,131
263.959960938 1594.08007812 m 1,141,142
 200.993164062 1547.68359375 200.993164062 1547.68359375 175.802734375 1540.15625 c 0,143,144
 167.387695312 1537.86328125 167.387695312 1537.86328125 160.639648438 1536.6796875 c 1,145,-1
 160.639648438 1535.04003906 l 1,146,147
 262.78515625 1535.04003906 262.78515625 1535.04003906 265.977539062 1576.07421875 c 0,148,149
 266.086914062 1585.31542969 266.086914062 1585.31542969 263.959960938 1594.08007812 c 1,141,142
21.240234375 1592.44042969 m 1,150,151
 28.5322265625 1563.27246094 28.5322265625 1563.27246094 81.0234375 1573.20996094 c 0,152,153
 87.623046875 1574.67773438 87.623046875 1574.67773438 91.759765625 1576.04003906 c 1,154,-1
 91.759765625 1577.6796875 l 1,155,156
 61.361328125 1578.24902344 61.361328125 1578.24902344 21.240234375 1592.44042969 c 1,150,151
EndSplineSet
EndChar

StartChar: uni0654
Encoding: 1620 1620 320
Width: 72
VWidth: 1639
GlyphClass: 2
Flags: HW
AnchorPoint: "GposMark2BaseAnchorClassErabAbove_01_02" 183.94 1480.92 mark 0
AnchorPoint: "GposMark2MarkAnchorHamzaErabAbove_01_01" 183.94 2273.8 basemark 0
AnchorPoint: "GposMark2MarkAnchorHamzaErabBelow_01_01" 183.94 1330.92 basemark 0
LayerCount: 2
Fore
SplineSet
63.400390625 1756.44042969 m 1,0,1
 16.279296875 1771.3203125 16.279296875 1771.3203125 -4.23046875 1817.25390625 c 0,2,3
 -7.2060546875 1824.59960938 -7.2060546875 1824.59960938 -8.759765625 1830.24023438 c 0,4,5
 -10.8037109375 1840.72460938 -10.8037109375 1840.72460938 -10.400390625 1895.83984375 c 0,6,7
 -8.853515625 1993.60839844 -8.853515625 1993.60839844 122.440429688 2094.28027344 c 1,8,9
 163.989257812 2123.47070312 163.989257812 2123.47070312 217.559570312 2123.79980469 c 0,10,11
 250.84375 2123.07910156 250.84375 2123.07910156 260.200195312 2118.87988281 c 0,12,13
 289.974609375 2104.50585938 289.974609375 2104.50585938 304.467773438 2051.55859375 c 0,14,15
 313.982421875 2018.89550781 313.982421875 2018.89550781 322.51953125 2005.71972656 c 0,16,17
 353.373046875 1956.75390625 353.373046875 1956.75390625 353.6796875 1874.51953125 c 1,18,-1
 368.440429688 1879.44042969 l 1,19,-1
 360.240234375 1854.83984375 l 1,20,-1
 368.440429688 1856.48046875 l 1,21,-1
 360.240234375 1831.87988281 l 1,22,-1
 368.440429688 1833.51953125 l 1,23,-1
 347.120117188 1772.83984375 l 1,24,-1
 402.879882812 1790.87988281 l 1,25,26
 393.395507812 1760.45214844 393.395507812 1760.45214844 379.919921875 1725.28027344 c 1,27,28
 374.59375 1703.5 374.59375 1703.5 370.080078125 1699.04003906 c 0,29,30
 360.83984375 1692.25878906 360.83984375 1692.25878906 325.799804688 1687.55957031 c 1,31,32
 248.015625 1667.68554688 248.015625 1667.68554688 224.120117188 1654.75976562 c 0,33,34
 165.793945312 1621.94238281 165.793945312 1621.94238281 94.5595703125 1541.59960938 c 1,35,36
 55.2021484375 1493.93457031 55.2021484375 1493.93457031 47 1480.91992188 c 1,37,-1
 45.3603515625 1480.91992188 l 1,38,-1
 45.3603515625 1566.20019531 l 1,39,-1
 12.5595703125 1523.55957031 l 1,40,-1
 10.919921875 1523.55957031 l 1,41,-1
 10.919921875 1553.08007812 l 1,42,-1
 9.2802734375 1553.08007812 l 1,43,-1
 -10.400390625 1523.55957031 l 1,44,-1
 -12.0400390625 1523.55957031 l 1,45,-1
 -12.0400390625 1553.08007812 l 1,46,-1
 -13.6796875 1553.08007812 l 1,47,-1
 -33.3603515625 1523.55957031 l 1,48,-1
 -35 1523.55957031 l 1,49,-1
 -35 1618.6796875 l 2,50,51
 -34.4482421875 1656.63476562 -34.4482421875 1656.63476562 -33.3603515625 1659.6796875 c 0,52,53
 -21.888671875 1680.85742188 -21.888671875 1680.85742188 28.947265625 1722.77148438 c 0,54,55
 52.78125 1743.046875 52.78125 1743.046875 63.400390625 1756.44042969 c 1,0,1
242.16015625 2046.71972656 m 1,56,57
 226.0703125 2068.24804688 226.0703125 2068.24804688 214.280273438 2071.3203125 c 0,58,59
 195.323242188 2074.35644531 195.323242188 2074.35644531 161.799804688 2041.79980469 c 1,60,61
 183.655273438 2046.859375 183.655273438 2046.859375 242.16015625 2046.71972656 c 1,56,57
178.200195312 1986.04003906 m 1,62,63
 139.833007812 1972.51660156 139.833007812 1972.51660156 97.83984375 1936.83984375 c 1,64,65
 67.53515625 1907.66796875 67.53515625 1907.66796875 96.2001953125 1892.55957031 c 1,66,67
 106.720703125 1911.17285156 106.720703125 1911.17285156 155.350585938 1960.20117188 c 0,68,69
 169.578125 1974.54492188 169.578125 1974.54492188 178.200195312 1986.04003906 c 1,62,63
215.919921875 1945.04003906 m 1,70,71
 142.475585938 1914.49511719 142.475585938 1914.49511719 119.16015625 1879.44042969 c 1,72,73
 169.810546875 1850.56933594 169.810546875 1850.56933594 215.919921875 1849.91992188 c 0,74,75
 226.177734375 1849.91992188 226.177734375 1849.91992188 245.404296875 1855.16015625 c 0,76,77
 259.685546875 1859.05273438 259.685546875 1859.05273438 266.759765625 1859.75976562 c 1,78,-1
 217.559570312 1913.87988281 l 1,79,-1
 219.200195312 1928.63964844 l 1,80,-1
 215.919921875 1945.04003906 l 1,70,71
271.6796875 1879.44042969 m 1,81,-1
 268.400390625 1861.40039062 l 1,82,-1
 283.16015625 1864.6796875 l 1,83,-1
 271.6796875 1879.44042969 l 1,81,-1
294.639648438 1879.44042969 m 1,84,-1
 291.360351562 1867.95996094 l 1,85,-1
 294.639648438 1879.44042969 l 1,84,-1
360.240234375 1854.83984375 m 1,86,-1
 358.599609375 1853.20019531 l 1,87,-1
 360.240234375 1854.83984375 l 1,86,-1
56.83984375 1843.36035156 m 1,88,89
 56.83984375 1840.08007812 56.83984375 1840.08007812 58.4794921875 1837.62011719 c 128,-1,90
 60.1201171875 1835.16015625 60.1201171875 1835.16015625 62.580078125 1832.70019531 c 128,-1,91
 65.0400390625 1830.24023438 65.0400390625 1830.24023438 66.6796875 1828.59960938 c 128,-1,92
 68.3203125 1826.95996094 68.3203125 1826.95996094 72.419921875 1824.5 c 2,93,-1
 76.51953125 1822.04003906 l 1,94,95
 101.197265625 1803.70410156 101.197265625 1803.70410156 145.400390625 1785.95996094 c 1,96,-1
 129 1769.55957031 l 1,97,-1
 145.400390625 1763 l 1,98,-1
 129 1746.59960938 l 1,99,100
 140.068359375 1742.97558594 140.068359375 1742.97558594 173.280273438 1754.79980469 c 0,101,102
 185.580078125 1758.08007812 185.580078125 1758.08007812 209.360351562 1765.45996094 c 0,103,104
 233.733398438 1772.95410156 233.733398438 1772.95410156 245.440429688 1776.12011719 c 0,105,106
 249.911132812 1777.23828125 249.911132812 1777.23828125 259.672851562 1778.72070312 c 0,107,108
 279.098632812 1782.21875 279.098632812 1782.21875 286.440429688 1785.95996094 c 0,109,110
 294.639648438 1789.24023438 294.639648438 1789.24023438 297.424804688 1807.984375 c 2,111,-1
 297.919921875 1810.55957031 l 1,112,113
 140.259765625 1791.25488281 140.259765625 1791.25488281 65.5712890625 1837.61035156 c 0,114,115
 60.3408203125 1840.96972656 60.3408203125 1840.96972656 56.83984375 1843.36035156 c 1,88,89
360.240234375 1831.87988281 m 1,116,-1
 358.599609375 1830.24023438 l 1,117,-1
 360.240234375 1831.87988281 l 1,116,-1
153.599609375 1674.44042969 m 1,118,-1
 151.959960938 1672.79980469 l 1,119,-1
 153.599609375 1674.44042969 l 1,118,-1
147.040039062 1669.51953125 m 1,120,121
 99.142578125 1636.6484375 99.142578125 1636.6484375 76.51953125 1603.91992188 c 1,122,123
 124.416015625 1638.90429688 124.416015625 1638.90429688 147.040039062 1669.51953125 c 1,120,121
EndSplineSet
EndChar

StartChar: uni0655
Encoding: 1621 1621 321
Width: 73
VWidth: 1639
GlyphClass: 2
Flags: HW
AnchorPoint: "GposMark2BaseAnchorClassErabBelow_01_02" -36.0601 -119.72 mark 0
LayerCount: 2
Fore
SplineSet
-156.599609375 -487.080078125 m 1,0,1
 -203.720703125 -472.19921875 -203.720703125 -472.19921875 -224.23046875 -426.265625 c 0,2,3
 -227.206054688 -418.919921875 -227.206054688 -418.919921875 -228.759765625 -413.280273438 c 0,4,5
 -230.803710938 -402.794921875 -230.803710938 -402.794921875 -230.400390625 -347.6796875 c 0,6,7
 -228.853515625 -249.912109375 -228.853515625 -249.912109375 -97.5595703125 -149.240234375 c 1,8,9
 -56.0107421875 -120.048828125 -56.0107421875 -120.048828125 -2.4404296875 -119.719726562 c 0,10,11
 30.84375 -120.44140625 30.84375 -120.44140625 40.2001953125 -124.639648438 c 0,12,13
 69.974609375 -139.013671875 69.974609375 -139.013671875 84.4677734375 -191.961914062 c 0,14,15
 93.982421875 -224.624023438 93.982421875 -224.624023438 102.51953125 -237.799804688 c 0,16,17
 133.373046875 -286.765625 133.373046875 -286.765625 133.6796875 -369 c 1,18,-1
 148.440429688 -364.080078125 l 1,19,-1
 140.240234375 -388.6796875 l 1,20,-1
 148.440429688 -387.040039062 l 1,21,-1
 140.240234375 -411.639648438 l 1,22,-1
 148.440429688 -410 l 1,23,-1
 127.120117188 -470.6796875 l 1,24,-1
 182.879882812 -452.639648438 l 1,25,26
 173.395507812 -483.067382812 173.395507812 -483.067382812 159.919921875 -518.240234375 c 1,27,28
 154.59375 -540.01953125 154.59375 -540.01953125 150.080078125 -544.48046875 c 0,29,30
 140.83984375 -551.260742188 140.83984375 -551.260742188 105.799804688 -555.959960938 c 1,31,32
 28.015625 -575.833984375 28.015625 -575.833984375 4.1201171875 -588.759765625 c 0,33,34
 -54.2060546875 -621.578125 -54.2060546875 -621.578125 -125.440429688 -701.919921875 c 1,35,36
 -164.797851562 -749.584960938 -164.797851562 -749.584960938 -173 -762.599609375 c 1,37,-1
 -174.639648438 -762.599609375 l 1,38,-1
 -174.639648438 -677.3203125 l 1,39,-1
 -207.440429688 -719.959960938 l 1,40,-1
 -209.080078125 -719.959960938 l 1,41,-1
 -209.080078125 -690.440429688 l 1,42,-1
 -210.719726562 -690.440429688 l 1,43,-1
 -230.400390625 -719.959960938 l 1,44,-1
 -232.040039062 -719.959960938 l 1,45,-1
 -232.040039062 -690.440429688 l 1,46,-1
 -233.6796875 -690.440429688 l 1,47,-1
 -253.360351562 -719.959960938 l 1,48,-1
 -255 -719.959960938 l 1,49,-1
 -255 -624.83984375 l 2,50,51
 -254.448242188 -586.885742188 -254.448242188 -586.885742188 -253.360351562 -583.83984375 c 0,52,53
 -241.888671875 -562.663085938 -241.888671875 -562.663085938 -191.052734375 -520.749023438 c 0,54,55
 -167.21875 -500.47265625 -167.21875 -500.47265625 -156.599609375 -487.080078125 c 1,0,1
22.16015625 -196.799804688 m 1,56,57
 6.0703125 -175.272460938 6.0703125 -175.272460938 -5.7197265625 -172.200195312 c 0,58,59
 -24.6767578125 -169.1640625 -24.6767578125 -169.1640625 -58.2001953125 -201.719726562 c 1,60,61
 -36.3447265625 -196.66015625 -36.3447265625 -196.66015625 22.16015625 -196.799804688 c 1,56,57
-41.7998046875 -257.48046875 m 1,62,63
 -80.1669921875 -271.002929688 -80.1669921875 -271.002929688 -122.16015625 -306.6796875 c 1,64,65
 -152.46484375 -335.852539062 -152.46484375 -335.852539062 -123.799804688 -350.959960938 c 1,66,67
 -113.279296875 -332.346679688 -113.279296875 -332.346679688 -64.6494140625 -283.319335938 c 0,68,69
 -50.421875 -268.975585938 -50.421875 -268.975585938 -41.7998046875 -257.48046875 c 1,62,63
-4.080078125 -298.48046875 m 1,70,71
 -77.5244140625 -329.025390625 -77.5244140625 -329.025390625 -100.83984375 -364.080078125 c 1,72,73
 -50.189453125 -392.950195312 -50.189453125 -392.950195312 -4.080078125 -393.599609375 c 0,74,75
 6.177734375 -393.599609375 6.177734375 -393.599609375 25.404296875 -388.359375 c 0,76,77
 40.2275390625 -384.580078125 40.2275390625 -384.580078125 46.759765625 -383.759765625 c 1,78,-1
 -2.4404296875 -329.639648438 l 1,79,-1
 -0.7998046875 -314.879882812 l 1,80,-1
 -4.080078125 -298.48046875 l 1,70,71
51.6796875 -364.080078125 m 1,81,-1
 48.400390625 -382.120117188 l 1,82,-1
 63.16015625 -378.83984375 l 1,83,-1
 51.6796875 -364.080078125 l 1,81,-1
74.6396484375 -364.080078125 m 1,84,-1
 71.3603515625 -375.559570312 l 1,85,-1
 74.6396484375 -364.080078125 l 1,84,-1
140.240234375 -388.6796875 m 1,86,-1
 138.599609375 -390.3203125 l 1,87,-1
 140.240234375 -388.6796875 l 1,86,-1
-163.16015625 -400.16015625 m 1,88,89
 -163.16015625 -403.440429688 -163.16015625 -403.440429688 -161.520507812 -405.900390625 c 128,-1,90
 -159.879882812 -408.360351562 -159.879882812 -408.360351562 -157.419921875 -410.8203125 c 128,-1,91
 -154.959960938 -413.280273438 -154.959960938 -413.280273438 -153.3203125 -414.919921875 c 128,-1,92
 -151.6796875 -416.559570312 -151.6796875 -416.559570312 -147.580078125 -419.01953125 c 2,93,-1
 -143.48046875 -421.48046875 l 1,94,95
 -118.802734375 -439.815429688 -118.802734375 -439.815429688 -74.599609375 -457.559570312 c 1,96,-1
 -91 -473.959960938 l 1,97,-1
 -74.599609375 -480.51953125 l 1,98,-1
 -91 -496.919921875 l 1,99,100
 -79.931640625 -500.544921875 -79.931640625 -500.544921875 -46.7197265625 -488.719726562 c 0,101,102
 -34.419921875 -485.440429688 -34.419921875 -485.440429688 -10.6396484375 -478.059570312 c 0,103,104
 13.7333984375 -470.565429688 13.7333984375 -470.565429688 25.4404296875 -467.400390625 c 0,105,106
 29.9111328125 -466.282226562 29.9111328125 -466.282226562 39.6728515625 -464.799804688 c 0,107,108
 59.0986328125 -461.301757812 59.0986328125 -461.301757812 66.4404296875 -457.559570312 c 0,109,110
 74.6396484375 -454.280273438 74.6396484375 -454.280273438 77.4248046875 -435.53515625 c 2,111,-1
 77.919921875 -432.959960938 l 1,112,113
 -79.740234375 -452.265625 -79.740234375 -452.265625 -154.428710938 -405.909179688 c 0,114,115
 -159.659179688 -402.549804688 -159.659179688 -402.549804688 -163.16015625 -400.16015625 c 1,88,89
140.240234375 -411.639648438 m 1,116,-1
 138.599609375 -413.280273438 l 1,117,-1
 140.240234375 -411.639648438 l 1,116,-1
-66.400390625 -569.080078125 m 1,118,-1
 -68.0400390625 -570.719726562 l 1,119,-1
 -66.400390625 -569.080078125 l 1,118,-1
-72.9599609375 -574 m 1,120,121
 -120.857421875 -606.87109375 -120.857421875 -606.87109375 -143.48046875 -639.599609375 c 1,122,123
 -95.583984375 -604.615234375 -95.583984375 -604.615234375 -72.9599609375 -574 c 1,120,121
EndSplineSet
EndChar

StartChar: uni0656
Encoding: 1622 1622 322
Width: 61
VWidth: 1639
GlyphClass: 2
Flags: HW
AnchorPoint: "GposMark2BaseAnchorClassErabBelow_01_02" -29.5435 -119.72 mark 0
LayerCount: 2
Fore
SplineSet
-38.7470703125 -119.719726562 m 1,0,-1
 -35.466796875 -137.759765625 l 1,1,-1
 -14.146484375 -119.719726562 l 1,2,-1
 -12.5068359375 -137.759765625 l 1,3,-1
 8.8134765625 -119.719726562 l 1,4,-1
 15.373046875 -231.240234375 l 1,5,-1
 43.2529296875 -208.280273438 l 1,6,7
 43.2529296875 -238.192382812 43.2529296875 -238.192382812 47.5205078125 -297.026367188 c 0,8,9
 50.72265625 -342.079101562 50.72265625 -342.079101562 51.453125 -364.080078125 c 0,10,11
 53.4599609375 -492.998046875 53.4599609375 -492.998046875 30.1328125 -636.3203125 c 1,12,13
 17.5322265625 -726.677734375 17.5322265625 -726.677734375 10.453125 -749.48046875 c 1,14,15
 -12.8232421875 -718.852539062 -12.8232421875 -718.852539062 -6.2060546875 -638.485351562 c 0,16,17
 -4.3916015625 -614.944335938 -4.3916015625 -614.944335938 -4.306640625 -603.51953125 c 1,18,-1
 -5.947265625 -603.51953125 l 1,19,20
 -6.4140625 -650.426757812 -6.4140625 -650.426757812 -23.9873046875 -706.83984375 c 1,21,-1
 -38.7470703125 -674.040039062 l 1,22,-1
 -40.38671875 -674.040039062 l 1,23,-1
 -46.947265625 -706.83984375 l 1,24,-1
 -61.70703125 -674.040039062 l 1,25,-1
 -63.3466796875 -674.040039062 l 1,26,-1
 -69.9072265625 -706.83984375 l 1,27,28
 -93.8251953125 -674.94921875 -93.8251953125 -674.94921875 -87.6064453125 -592.047851562 c 0,29,30
 -86.599609375 -578.6328125 -86.599609375 -578.6328125 -86.306640625 -570.719726562 c 0,31,32
 -80.736328125 -424.090820312 -80.736328125 -424.090820312 -94.5068359375 -326.360351562 c 1,33,34
 -109.068359375 -248.326171875 -109.068359375 -248.326171875 -109.266601562 -221.400390625 c 0,35,36
 -110.907226562 -211.559570312 -110.907226562 -211.559570312 -110.907226562 -209.919921875 c 128,-1,37
 -110.907226562 -208.280273438 -110.907226562 -208.280273438 -111.7265625 -196.799804688 c 128,-1,38
 -112.546875 -185.3203125 -112.546875 -185.3203125 -110.907226562 -185.3203125 c 0,39,40
 -109.266601562 -178.759765625 -109.266601562 -178.759765625 -95.04296875 -168.373046875 c 0,41,42
 -94.5068359375 -167.280273438 -94.5068359375 -167.280273438 -92.8671875 -166.459960938 c 2,43,-1
 -91.2265625 -165.639648438 l 1,44,45
 -54.732421875 -135.509765625 -54.732421875 -135.509765625 -38.7470703125 -119.719726562 c 1,0,-1
-33.8271484375 -203.360351562 m 1,46,47
 -54.056640625 -213.362304688 -54.056640625 -213.362304688 -56.787109375 -227.959960938 c 0,48,49
 -57.2763671875 -238.216796875 -57.2763671875 -238.216796875 -48.5869140625 -283.719726562 c 0,50,51
 -47.57421875 -291.369140625 -47.57421875 -291.369140625 -38.7470703125 -385.400390625 c 0,52,53
 -38.1396484375 -393.907226562 -38.1396484375 -393.907226562 -39.6416015625 -413.3828125 c 0,54,55
 -41.6640625 -447.62890625 -41.6640625 -447.62890625 -37.1064453125 -460.83984375 c 1,56,-1
 -28.9072265625 -342.759765625 l 1,57,-1
 -33.8271484375 -203.360351562 l 1,46,47
EndSplineSet
EndChar

StartChar: uni0670
Encoding: 1648 1648 326
Width: 61
VWidth: 1639
GlyphClass: 2
Flags: HW
AnchorPoint: "GposMark2BaseAnchorHamzaErabAbove_01_01" 137.457 1482.56 mark 0
AnchorPoint: "GposMark2BaseAnchorHamzaErabBelow_01_01" 137.457 2112.32 mark 0
AnchorPoint: "GposMark2BaseAnchorClassErabAbove_01_02" 137.457 1482.56 mark 0
AnchorPoint: "GposMark2MarkAnchorHamzaErabAbove_01_01" 137.457 1482.56 mark 0
AnchorPoint: "GposMark2MarkAnchorHamzaErabBelow_01_01" 137.457 2112.32 mark 0
AnchorPoint: "GposMark2MarkAnchorShaddaErabAbove_01_02" 137.457 1482.56 mark 0
AnchorPoint: "GposMark2MarkAnchorShaddaErabBelow_01_02" 137.457 2112.32 mark 0
LayerCount: 2
Fore
SplineSet
128.252929688 2112.3203125 m 1,0,-1
 131.533203125 2094.28027344 l 1,1,-1
 152.853515625 2112.3203125 l 1,2,-1
 154.493164062 2094.28027344 l 1,3,-1
 175.813476562 2112.3203125 l 1,4,-1
 182.373046875 2000.79980469 l 1,5,-1
 210.252929688 2023.75976562 l 1,6,7
 210.252929688 1993.84765625 210.252929688 1993.84765625 214.520507812 1935.01367188 c 0,8,9
 217.72265625 1889.9609375 217.72265625 1889.9609375 218.453125 1867.95996094 c 0,10,11
 220.459960938 1739.04199219 220.459960938 1739.04199219 197.1328125 1595.71972656 c 1,12,13
 184.532226562 1505.36230469 184.532226562 1505.36230469 177.453125 1482.55957031 c 1,14,15
 154.176757812 1513.1875 154.176757812 1513.1875 160.793945312 1593.5546875 c 0,16,17
 162.608398438 1617.09570312 162.608398438 1617.09570312 162.693359375 1628.51953125 c 1,18,-1
 161.052734375 1628.51953125 l 1,19,20
 160.5859375 1581.61328125 160.5859375 1581.61328125 143.012695312 1525.20019531 c 1,21,-1
 128.252929688 1558 l 1,22,-1
 126.61328125 1558 l 1,23,-1
 120.052734375 1525.20019531 l 1,24,-1
 105.29296875 1558 l 1,25,-1
 103.653320312 1558 l 1,26,-1
 97.0927734375 1525.20019531 l 1,27,28
 73.1748046875 1557.09082031 73.1748046875 1557.09082031 79.3935546875 1639.9921875 c 0,29,30
 80.400390625 1653.40722656 80.400390625 1653.40722656 80.693359375 1661.3203125 c 0,31,32
 86.263671875 1807.94921875 86.263671875 1807.94921875 72.4931640625 1905.6796875 c 1,33,34
 57.931640625 1983.71386719 57.931640625 1983.71386719 57.7333984375 2010.63964844 c 0,35,36
 56.0927734375 2020.48046875 56.0927734375 2020.48046875 56.0927734375 2022.12011719 c 128,-1,37
 56.0927734375 2023.75976562 56.0927734375 2023.75976562 55.2734375 2035.24023438 c 128,-1,38
 54.453125 2046.71972656 54.453125 2046.71972656 56.0927734375 2046.71972656 c 0,39,40
 57.7333984375 2053.28027344 57.7333984375 2053.28027344 71.95703125 2063.66699219 c 0,41,42
 72.4931640625 2064.75976562 72.4931640625 2064.75976562 74.1328125 2065.58007812 c 2,43,-1
 75.7734375 2066.40039062 l 1,44,45
 112.267578125 2096.53027344 112.267578125 2096.53027344 128.252929688 2112.3203125 c 1,0,-1
133.172851562 2028.6796875 m 1,46,47
 112.943359375 2018.67773438 112.943359375 2018.67773438 110.212890625 2004.08007812 c 0,48,49
 109.723632812 1993.82324219 109.723632812 1993.82324219 118.413085938 1948.3203125 c 0,50,51
 119.42578125 1940.67089844 119.42578125 1940.67089844 128.252929688 1846.63964844 c 0,52,53
 128.860351562 1838.13183594 128.860351562 1838.13183594 127.358398438 1818.65722656 c 0,54,55
 125.3359375 1784.41113281 125.3359375 1784.41113281 129.893554688 1771.20019531 c 1,56,-1
 138.092773438 1889.28027344 l 1,57,-1
 133.172851562 2028.6796875 l 1,46,47
EndSplineSet
EndChar

StartChar: uni0674
Encoding: 1652 1652 327
Width: 110
GlyphClass: 2
Flags: HW
AnchorPoint: "GposMark2BaseAnchorClassErabAbove_01_02" 359.5 1014 mark 0
AnchorPoint: "GposMark2MarkAnchorHamzaErabAbove_01_01" 359.5 1579 basemark 0
AnchorPoint: "GposMark2MarkAnchorHamzaErabBelow_01_01" 359.5 864 basemark 0
LayerCount: 2
Fore
SplineSet
533 1178 m 2,0,1
 528 1160 528 1160 521 1145 c 128,-1,2
 514 1130 514 1130 509 1129 c 0,3,4
 461 1118 461 1118 421 1109 c 128,-1,5
 381 1100 381 1100 363 1095 c 0,6,7
 317 1082 317 1082 274 1062 c 128,-1,8
 231 1042 231 1042 196 1018 c 1,9,10
 192 1014 192 1014 188 1014 c 0,11,12
 185 1014 185 1014 180 1018 c 128,-1,13
 175 1022 175 1022 175 1025 c 256,14,15
 175 1028 175 1028 180 1032 c 1,16,-1
 180 1031 l 1,17,18
 191 1051 191 1051 217 1076 c 128,-1,19
 243 1101 243 1101 283 1136 c 1,20,21
 195 1171 195 1171 195 1233 c 0,22,23
 195 1282 195 1282 269 1355 c 1,24,25
 346 1429 346 1429 410 1429 c 0,26,27
 421 1429 421 1429 433.5 1425.5 c 128,-1,28
 446 1422 446 1422 456 1415.5 c 128,-1,29
 466 1409 466 1409 472.5 1400.5 c 128,-1,30
 479 1392 479 1392 479 1382 c 0,31,32
 479 1368 479 1368 475.5 1353.5 c 128,-1,33
 472 1339 472 1339 466 1327 c 128,-1,34
 460 1315 460 1315 452.5 1307.5 c 128,-1,35
 445 1300 445 1300 437 1300 c 0,36,37
 433 1300 433 1300 425.5 1307.5 c 128,-1,38
 418 1315 418 1315 408 1323.5 c 128,-1,39
 398 1332 398 1332 385.5 1339.5 c 128,-1,40
 373 1347 373 1347 359 1347 c 256,41,42
 345 1347 345 1347 329 1339.5 c 128,-1,43
 313 1332 313 1332 299 1321.5 c 128,-1,44
 285 1311 285 1311 276 1299 c 128,-1,45
 267 1287 267 1287 267 1277 c 0,46,47
 267 1259 267 1259 279 1244 c 128,-1,48
 291 1229 291 1229 309.5 1218 c 128,-1,49
 328 1207 328 1207 352 1201 c 128,-1,50
 376 1195 376 1195 400 1195 c 0,51,52
 403 1195 403 1195 424 1200 c 128,-1,53
 445 1205 445 1205 470 1210.5 c 128,-1,54
 495 1216 495 1216 517 1221 c 128,-1,55
 539 1226 539 1226 544 1226 c 1,56,-1
 533 1178 l 2,0,1
EndSplineSet
EndChar

StartChar: afii57388
Encoding: 1548 1548 329
Width: 582
VWidth: 1639
GlyphClass: 2
Flags: W
LayerCount: 2
Fore
SplineSet
290.959960938 405.080078125 m 1,0,-1
 287.6796875 385.400390625 l 1,1,-1
 315.560546875 405.080078125 l 1,2,-1
 310.640625 385.400390625 l 1,3,-1
 338.520507812 405.080078125 l 1,4,-1
 331.959960938 378.83984375 l 1,5,-1
 338.520507812 382.120117188 l 1,6,-1
 331.959960938 355.879882812 l 1,7,-1
 338.520507812 359.16015625 l 1,8,-1
 315.560546875 273.879882812 l 1,9,-1
 372.959960938 316.51953125 l 1,10,-1
 354.919921875 252.559570312 l 1,11,-1
 345.080078125 216.48046875 l 1,12,-1
 312.280273438 193.51953125 l 1,13,-1
 312.280273438 191.879882812 l 1,14,15
 329.170898438 179.211914062 329.170898438 179.211914062 335.025390625 137.35546875 c 0,16,17
 337.421875 122.72265625 337.421875 122.72265625 340.16015625 114.799804688 c 0,16,17
 343.305664062 106.149414062 343.305664062 106.149414062 353.446289062 92.5146484375 c 0,18,19
 364.586914062 76.5048828125 364.586914062 76.5048828125 368.040039062 67.240234375 c 0,18,19
 385.8125 -5.9140625 385.8125 -5.9140625 350 -68.8798828125 c 1,20,21
 323.612304688 -108.322265625 323.612304688 -108.322265625 292.600585938 -111.51953125 c 1,22,23
 260.37890625 -112.647460938 260.37890625 -112.647460938 235.200195312 -88.5595703125 c 0,24,25
 233.327148438 -86.6875 233.327148438 -86.6875 229.491210938 -80.9033203125 c 0,26,27
 222.166992188 -71.3193359375 222.166992188 -71.3193359375 218.799804688 -68.8798828125 c 0,26,27
 215.520507812 -68.0595703125 215.520507812 -68.0595703125 208.140625 -68.0595703125 c 0,28,29
 200.354492188 -67.736328125 200.354492188 -67.736328125 197.48046875 -67.240234375 c 0,28,29
 176.262695312 -64.083984375 176.262695312 -64.083984375 156.48046875 -47.5595703125 c 0,30,31
 104.645507812 1.462890625 104.645507812 1.462890625 104 95.1201171875 c 0,32,33
 104.403320312 161.266601562 104.403320312 161.266601562 112.200195312 193.51953125 c 0,34,35
 138.508789062 283.278320312 138.508789062 283.278320312 253.17578125 375.3984375 c 0,36,37
 266.422851562 385.998046875 266.422851562 385.998046875 290.959960938 405.080078125 c 1,0,-1
331.959960938 378.83984375 m 1,36,-1
 330.3203125 377.200195312 l 1,37,-1
 331.959960938 378.83984375 l 1,36,-1
331.959960938 355.879882812 m 1,38,-1
 330.3203125 354.240234375 l 1,39,-1
 331.959960938 355.879882812 l 1,38,-1
266.360351562 227.959960938 m 1,40,-1
 243.400390625 211.559570312 l 1,41,-1
 243.400390625 209.919921875 l 1,42,43
 257.739257812 212.000976562 257.739257812 212.000976562 266.360351562 227.959960938 c 1,40,-1
163.040039062 141.040039062 m 1,44,45
 131.006835938 94.9912109375 131.006835938 94.9912109375 188.099609375 15.3271484375 c 0,46,47
 190.106445312 12.5869140625 190.106445312 12.5869140625 190.919921875 11.48046875 c 0,46,47
 220.440429688 -22.9599609375 220.440429688 -22.9599609375 236.83984375 -16.400390625 c 1,48,49
 256.961914062 -4.9208984375 256.961914062 -4.9208984375 272.919921875 26.240234375 c 0,50,51
 311.182617188 107 311.182617188 107 263.080078125 150.879882812 c 0,52,53
 239.404296875 171.173828125 239.404296875 171.173828125 212.057617188 143.348632812 c 0,54,55
 201.311523438 130.874023438 201.311523438 130.874023438 199.120117188 118.080078125 c 1,54,-1
 187.640625 141.040039062 l 1,55,-1
 186 141.040039062 l 1,56,-1
 176.16015625 118.080078125 l 1,57,-1
 164.6796875 141.040039062 l 1,58,-1
 163.040039062 141.040039062 l 1,44,45
EndSplineSet
EndChar

StartChar: afii57403
Encoding: 1563 1563 334
Width: 582
VWidth: 1639
GlyphClass: 2
Flags: W
LayerCount: 2
Fore
SplineSet
290.966796875 818.360351562 m 1,0,-1
 287.686523438 798.6796875 l 1,1,-1
 315.567382812 818.360351562 l 1,2,-1
 310.647460938 798.6796875 l 1,3,-1
 338.52734375 818.360351562 l 1,4,-1
 331.966796875 792.120117188 l 1,5,-1
 338.52734375 795.400390625 l 1,6,-1
 331.966796875 769.16015625 l 1,7,-1
 338.52734375 772.440429688 l 1,8,-1
 315.567382812 687.16015625 l 1,9,-1
 372.966796875 729.799804688 l 1,10,-1
 354.926757812 665.83984375 l 1,11,-1
 345.086914062 629.759765625 l 1,12,-1
 312.287109375 606.799804688 l 1,13,-1
 312.287109375 605.16015625 l 1,14,15
 329.177734375 592.4921875 329.177734375 592.4921875 335.032226562 550.635742188 c 0,16,17
 337.428710938 536.002929688 337.428710938 536.002929688 340.166992188 528.080078125 c 0,16,17
 343.3125 519.428710938 343.3125 519.428710938 353.453125 505.794921875 c 0,18,19
 364.59375 489.784179688 364.59375 489.784179688 368.046875 480.51953125 c 0,18,19
 385.819335938 407.366210938 385.819335938 407.366210938 350.006835938 344.400390625 c 1,20,21
 323.619140625 304.958007812 323.619140625 304.958007812 292.607421875 301.759765625 c 1,22,23
 260.385742188 300.6328125 260.385742188 300.6328125 235.20703125 324.719726562 c 0,24,25
 233.333984375 326.592773438 233.333984375 326.592773438 229.498046875 332.376953125 c 0,26,27
 222.173828125 341.9609375 222.173828125 341.9609375 218.806640625 344.400390625 c 0,26,27
 215.52734375 345.219726562 215.52734375 345.219726562 208.147460938 345.219726562 c 0,28,29
 200.361328125 345.54296875 200.361328125 345.54296875 197.487304688 346.040039062 c 0,28,29
 176.26953125 349.1953125 176.26953125 349.1953125 156.487304688 365.719726562 c 0,30,31
 104.65234375 414.7421875 104.65234375 414.7421875 104.006835938 508.400390625 c 0,32,33
 104.41015625 574.546875 104.41015625 574.546875 112.20703125 606.799804688 c 0,34,35
 138.515625 696.55859375 138.515625 696.55859375 253.182617188 788.678710938 c 0,36,37
 266.4296875 799.278320312 266.4296875 799.278320312 290.966796875 818.360351562 c 1,0,-1
331.966796875 792.120117188 m 1,36,-1
 330.327148438 790.48046875 l 1,37,-1
 331.966796875 792.120117188 l 1,36,-1
331.966796875 769.16015625 m 1,38,-1
 330.327148438 767.51953125 l 1,39,-1
 331.966796875 769.16015625 l 1,38,-1
266.3671875 641.240234375 m 1,40,-1
 243.407226562 624.83984375 l 1,41,-1
 243.407226562 623.200195312 l 1,42,43
 257.74609375 625.28125 257.74609375 625.28125 266.3671875 641.240234375 c 1,40,-1
163.046875 554.3203125 m 1,44,45
 131.013671875 508.271484375 131.013671875 508.271484375 188.106445312 428.607421875 c 0,46,47
 190.11328125 425.866210938 190.11328125 425.866210938 190.926757812 424.759765625 c 0,46,47
 220.447265625 390.3203125 220.447265625 390.3203125 236.846679688 396.879882812 c 1,48,49
 256.96875 408.359375 256.96875 408.359375 272.926757812 439.51953125 c 0,50,51
 311.189453125 520.280273438 311.189453125 520.280273438 263.086914062 564.16015625 c 0,52,53
 239.411132812 584.454101562 239.411132812 584.454101562 212.064453125 556.627929688 c 0,54,55
 201.318359375 544.153320312 201.318359375 544.153320312 199.126953125 531.360351562 c 1,54,-1
 187.647460938 554.3203125 l 1,55,-1
 186.006835938 554.3203125 l 1,56,-1
 176.166992188 531.360351562 l 1,57,-1
 164.686523438 554.3203125 l 1,58,-1
 163.046875 554.3203125 l 1,44,45
174.52734375 186.959960938 m 1,59,60
 282.79296875 202.5390625 282.79296875 202.5390625 317.20703125 139.400390625 c 0,61,62
 321.306640625 130.379882812 321.306640625 130.379882812 322.126953125 111.51953125 c 0,63,64
 323.584960938 92.173828125 323.584960938 92.173828125 327.046875 83.6396484375 c 0,63,64
 329.418945312 75.734375 329.418945312 75.734375 340.368164062 62.84375 c 0,65,66
 352.116210938 47.775390625 352.116210938 47.775390625 354.926757812 39.3603515625 c 0,65,66
 372.873046875 -14.4765625 372.873046875 -14.4765625 330.564453125 -54.1845703125 c 0,67,68
 312.74609375 -70.9072265625 312.74609375 -70.9072265625 289.327148438 -75.4404296875 c 1,67,68
 246.483398438 -80.3642578125 246.483398438 -80.3642578125 218.806640625 -59.0400390625 c 0,69,70
 215.061523438 -56.0439453125 215.061523438 -56.0439453125 208.284179688 -47.3515625 c 0,71,72
 199.635742188 -37.2763671875 199.635742188 -37.2763671875 195.846679688 -34.4404296875 c 0,71,72
 191.301757812 -31.712890625 191.301757812 -31.712890625 179.3515625 -31.302734375 c 0,73,74
 169.724609375 -30.529296875 169.724609375 -30.529296875 166.327148438 -29.51953125 c 0,73,74
 128.947265625 -17.17578125 128.947265625 -17.17578125 112.20703125 16.400390625 c 0,75,76
 104.021484375 36.09375 104.021484375 36.09375 104.006835938 68.8798828125 c 0,77,78
 103.307617188 171.765625 103.307617188 171.765625 174.52734375 186.959960938 c 1,59,60
215.52734375 137.759765625 m 0,79,80
 185.868164062 139.61328125 185.868164062 139.61328125 161.881835938 101.775390625 c 0,81,82
 154.383789062 88.638671875 154.383789062 88.638671875 153.20703125 78.7197265625 c 0,81,82
 153.20703125 48.435546875 153.20703125 48.435546875 189.169921875 25.0205078125 c 0,83,84
 203.559570312 15.65234375 203.559570312 15.65234375 215.52734375 16.400390625 c 0,83,84
 245.17578125 16.400390625 245.17578125 16.400390625 267.473632812 52.623046875 c 0,85,86
 275.040039062 66.275390625 275.040039062 66.275390625 276.20703125 77.080078125 c 0,85,86
 276.20703125 104.356445312 276.20703125 104.356445312 241.461914062 127.997070312 c 0,87,88
 227.11328125 137.759765625 227.11328125 137.759765625 215.52734375 137.759765625 c 0,79,80
EndSplineSet
EndChar

StartChar: afii57407
Encoding: 1567 1567 335
Width: 1182
VWidth: 1639
GlyphClass: 2
Flags: W
LayerCount: 2
Fore
SplineSet
556.640625 288.639648438 m 1,0,1
 547.541992188 296.083007812 547.541992188 296.083007812 558.280273438 313.240234375 c 0,2,3
 572.057617188 337.854492188 572.057617188 337.854492188 591.080078125 385.400390625 c 0,4,5
 594.336914062 393.665039062 594.336914062 393.665039062 610.759765625 447.719726562 c 1,6,7
 612.400390625 454.280273438 l 2,8,9
 614.040039062 460.83984375 614.040039062 460.83984375 614.040039062 461.66015625 c 0,10,11
 614.040039062 462.48046875 614.040039062 462.48046875 614.860351562 469.040039062 c 0,12,13
 615.6796875 475.599609375 615.6796875 475.599609375 614.040039062 475.599609375 c 0,8,9
 611.16796875 483.780273438 611.16796875 483.780273438 597.640625 496.919921875 c 0,10,11
 568.666015625 524.977539062 568.666015625 524.977539062 536.959960938 541.200195312 c 0,12,13
 487.137695312 564.280273438 487.137695312 564.280273438 346.719726562 636.3203125 c 0,14,15
 209.533203125 704.913085938 209.533203125 704.913085938 159.591796875 768.630859375 c 0,16,17
 138.262695312 796.668945312 138.262695312 796.668945312 125.3203125 826.559570312 c 0,16,17
 104.145507812 878.326171875 104.145507812 878.326171875 104 957.759765625 c 0,18,19
 105.266601562 1152.78613281 105.266601562 1152.78613281 264.719726562 1326.75976562 c 0,20,21
 335.3203125 1402.08789062 335.3203125 1402.08789062 400.83984375 1433.36035156 c 0,22,23
 499.459960938 1478.30957031 499.459960938 1478.30957031 627.16015625 1467.79980469 c 1,24,25
 764.155273438 1453.48730469 764.155273438 1453.48730469 860.08984375 1342.99511719 c 0,26,27
 881.982421875 1317.22558594 881.982421875 1317.22558594 897.759765625 1290.6796875 c 0,26,27
 904.216796875 1280.70117188 904.216796875 1280.70117188 926.247070312 1218.79003906 c 0,28,29
 929.549804688 1209.88867188 929.549804688 1209.88867188 932.200195312 1203.75976562 c 0,28,29
 960.080078125 1138.16015625 960.080078125 1138.16015625 960.080078125 1138.16015625 c 0,30,31
 990.180664062 1039.64941406 990.180664062 1039.64941406 955.423828125 957.204101562 c 0,32,33
 951.794921875 949.03125 951.794921875 949.03125 948.600585938 943 c 0,32,33
 939.049804688 926.286132812 939.049804688 926.286132812 894.984375 901.241210938 c 0,34,35
 890.374023438 898.555664062 890.374023438 898.555664062 887.919921875 897.080078125 c 0,34,35
 795.533203125 844.345703125 795.533203125 844.345703125 750.16015625 820 c 1,36,-1
 797.719726562 869.200195312 l 1,37,-1
 846.919921875 936.440429688 l 1,38,-1
 715.719726562 862.639648438 l 1,39,-1
 743.600585938 890.51953125 l 1,40,-1
 692.759765625 862.639648438 l 1,41,-1
 717.360351562 888.879882812 l 1,42,-1
 669.799804688 862.639648438 l 1,43,-1
 717.360351562 911.83984375 l 1,44,-1
 669.799804688 885.599609375 l 1,45,-1
 717.360351562 934.799804688 l 1,46,-1
 669.799804688 908.559570312 l 1,47,48
 675.540039062 915.120117188 675.540039062 915.120117188 688.66015625 927.419921875 c 0,49,50
 702.154296875 940.352539062 702.154296875 940.352539062 707.520507812 946.280273438 c 0,49,50
 737.041015625 980.198242188 737.041015625 980.198242188 774.759765625 1038.12011719 c 0,51,52
 808.662109375 1092.65429688 808.662109375 1092.65429688 823.959960938 1139.79980469 c 1,53,54
 830.911132812 1170.60644531 830.911132812 1170.60644531 828.879882812 1180.79980469 c 0,55,56
 820.629882812 1214.39453125 820.629882812 1214.39453125 774.759765625 1231.63964844 c 1,57,58
 715.61328125 1250.60058594 715.61328125 1250.60058594 643.560546875 1243.12011719 c 1,59,60
 469.045898438 1220.97460938 469.045898438 1220.97460938 323.759765625 1070.91992188 c 0,61,62
 285.586914062 1031.98730469 285.586914062 1031.98730469 253.240234375 975.799804688 c 0,63,64
 234.291992188 945.962890625 234.291992188 945.962890625 233.560546875 938.080078125 c 0,65,66
 233.560546875 934.799804688 233.560546875 934.799804688 236.83984375 931.51953125 c 0,67,68
 240.120117188 928.240234375 240.120117188 928.240234375 243.400390625 925.780273438 c 0,69,70
 246.6796875 923.3203125 246.6796875 923.3203125 252.419921875 919.219726562 c 2,71,-1
 258.16015625 915.120117188 l 2,67,68
 301.642578125 882.9375 301.642578125 882.9375 341.799804688 862.639648438 c 0,69,70
 379.520507812 842.139648438 379.520507812 842.139648438 457.419921875 805.240234375 c 0,71,72
 535.821289062 767.9921875 535.821289062 767.9921875 573.040039062 747.83984375 c 0,71,72
 649.008789062 707.40625 649.008789062 707.40625 673.080078125 683.879882812 c 0,73,74
 689.297851562 667.662109375 689.297851562 667.662109375 705.79296875 614.395507812 c 0,75,76
 710.97265625 598.620117188 710.97265625 598.620117188 715.719726562 588.759765625 c 0,75,76
 719.171875 579.787109375 719.171875 579.787109375 727.833007812 562.971679688 c 0,77,78
 739.787109375 539.000976562 739.787109375 539.000976562 743.600585938 526.440429688 c 0,77,78
 753.703125 484.172851562 753.703125 484.172851562 750.16015625 387.040039062 c 0,79,80
 743.423828125 245.453125 743.423828125 245.453125 733.759765625 175.48046875 c 0,81,82
 730.385742188 153.544921875 730.385742188 153.544921875 720.213867188 110.752929688 c 0,83,84
 710.69921875 70.2041015625 710.69921875 70.2041015625 707.520507812 50.83984375 c 1,83,-1
 705.879882812 50.83984375 l 1,84,85
 705.12890625 78.5556640625 705.12890625 78.5556640625 681.280273438 126.280273438 c 1,86,-1
 673.080078125 93.48046875 l 1,87,-1
 671.440429688 93.48046875 l 1,88,-1
 661.600585938 137.759765625 l 1,89,-1
 659.959960938 137.759765625 l 1,90,-1
 650.120117188 93.48046875 l 1,91,-1
 648.48046875 93.48046875 l 1,92,-1
 638.640625 137.759765625 l 1,93,-1
 637 137.759765625 l 1,94,-1
 627.16015625 93.48046875 l 1,95,-1
 625.520507812 93.48046875 l 1,96,97
 624.604492188 138.7421875 624.604492188 138.7421875 579.600585938 208.280273438 c 0,98,99
 577.435546875 211.52734375 577.435546875 211.52734375 569.521484375 220.587890625 c 0,100,101
 552.036132812 241.6484375 552.036132812 241.6484375 550.080078125 249.280273438 c 0,100,101
 550.662109375 251.598632812 550.662109375 251.598632812 556.640625 265.6796875 c 1,102,103
 548.640625 271.217773438 548.640625 271.217773438 556.640625 288.639648438 c 1,0,1
827.240234375 1280.83984375 m 1,104,105
 798.75390625 1319.93652344 798.75390625 1319.93652344 750.16015625 1354.63964844 c 0,106,107
 663.874023438 1416.71191406 663.874023438 1416.71191406 577.959960938 1421.87988281 c 0,108,109
 550.080078125 1423.51953125 550.080078125 1423.51953125 493.444335938 1405.71875 c 0,110,111
 375.056640625 1365.06933594 375.056640625 1365.06933594 276.200195312 1241.48046875 c 0,112,113
 237.221679688 1190.62109375 237.221679688 1190.62109375 200.759765625 1128.3203125 c 1,114,115
 179.942382812 1085.21386719 179.942382812 1085.21386719 179.440429688 1075.83984375 c 1,116,117
 300.657226562 1254.95117188 300.657226562 1254.95117188 483.387695312 1314.99414062 c 0,118,119
 581.012695312 1346.30859375 581.012695312 1346.30859375 678 1334.95996094 c 0,118,119
 717.8359375 1330.13183594 717.8359375 1330.13183594 814.333007812 1286.56054688 c 0,120,121
 822.022460938 1283.11621094 822.022460938 1283.11621094 827.240234375 1280.83984375 c 1,104,105
881.360351562 1179.16015625 m 1,120,121
 879.365234375 1171.40820312 879.365234375 1171.40820312 879.719726562 1151.28027344 c 1,122,123
 876.055664062 1118.078125 876.055664062 1118.078125 871.520507812 1103.71972656 c 0,124,125
 866.767578125 1084.70800781 866.767578125 1084.70800781 829.409179688 1008.62207031 c 0,126,127
 826.116210938 1001.80175781 826.116210938 1001.80175781 823.959960938 997.120117188 c 1,126,127
 882.921875 1015.54589844 882.921875 1015.54589844 889.4375 1105.03808594 c 0,128,129
 890.267578125 1119.33886719 890.267578125 1119.33886719 889.560546875 1131.59960938 c 0,128,129
 888.740234375 1139.79980469 888.740234375 1139.79980469 885.459960938 1155.37988281 c 0,130,131
 882.225585938 1171.57617188 882.225585938 1171.57617188 881.360351562 1179.16015625 c 1,120,121
719 936.440429688 m 1,130,-1
 717.360351562 934.799804688 l 1,131,-1
 719 936.440429688 l 1,130,-1
156.48046875 928.240234375 m 0,132,133
 154.83984375 928.240234375 154.83984375 928.240234375 155.66015625 921.6796875 c 0,134,135
 156.48046875 915.120117188 156.48046875 915.120117188 156.48046875 913.48046875 c 0,136,137
 156.48046875 911.83984375 156.48046875 911.83984375 158.940429688 905.280273438 c 0,138,139
 161.400390625 898.719726562 161.400390625 898.719726562 162.219726562 897.900390625 c 0,140,141
 163.040039062 897.080078125 163.040039062 897.080078125 165.5 890.51953125 c 2,142,-1
 167.959960938 883.959960938 l 2,134,135
 194.241210938 818.296875 194.241210938 818.296875 245.040039062 774.080078125 c 0,136,137
 310.791015625 715.32421875 310.791015625 715.32421875 478.544921875 639.267578125 c 0,138,139
 504.400390625 627.528320312 504.400390625 627.528320312 517.280273438 621.559570312 c 0,138,139
 629.807617188 569.963867188 629.807617188 569.963867188 658.3203125 524.799804688 c 0,140,141
 664.525390625 513.307617188 664.525390625 513.307617188 663.240234375 472.3203125 c 0,142,143
 662.646484375 407.133789062 662.646484375 407.133789062 641.919921875 350.959960938 c 0,144,145
 639.004882812 343.379882812 639.004882812 343.379882812 630.146484375 326.3203125 c 0,146,147
 613.92578125 293.872070312 613.92578125 293.872070312 612.400390625 280.440429688 c 0,146,147
 612.400390625 273.879882812 612.400390625 273.879882812 619.603515625 263.87890625 c 2,148,-1
 620.600585938 262.400390625 l 2,148,149
 637.138671875 235.446289062 637.138671875 235.446289062 643.560546875 221.400390625 c 1,150,-1
 645.200195312 221.400390625 l 1,151,152
 662.811523438 296.135742188 662.811523438 296.135742188 669.799804688 475.599609375 c 1,153,154
 672.022460938 589.989257812 672.022460938 589.989257812 630.440429688 634.6796875 c 0,155,156
 600.854492188 665.044921875 600.854492188 665.044921875 527.120117188 701.919921875 c 0,157,158
 489.947265625 722.329101562 489.947265625 722.329101562 413.008789062 757.963867188 c 0,159,160
 316.366210938 802.938476562 316.366210938 802.938476562 271.280273438 829.83984375 c 1,159,160
 184.66015625 885.276367188 184.66015625 885.276367188 160.932617188 921.056640625 c 0,161,162
 158.134765625 925.467773438 158.134765625 925.467773438 156.48046875 928.240234375 c 0,132,133
719 913.48046875 m 1,161,-1
 717.360351562 911.83984375 l 1,162,-1
 719 913.48046875 l 1,161,-1
723.919921875 893.799804688 m 1,163,-1
 720.640625 890.51953125 l 1,164,-1
 723.919921875 893.799804688 l 1,163,-1
746.879882812 893.799804688 m 1,165,-1
 743.600585938 890.51953125 l 1,166,-1
 746.879882812 893.799804688 l 1,165,-1
719 890.51953125 m 1,167,-1
 717.360351562 888.879882812 l 1,168,-1
 719 890.51953125 l 1,167,-1
576.3203125 32.7998046875 m 1,169,170
 675.47265625 41.111328125 675.47265625 41.111328125 705.879882812 -16.400390625 c 0,171,172
 707.936523438 -20.923828125 707.936523438 -20.923828125 711.111328125 -58.25390625 c 0,173,174
 712.301757812 -67.009765625 712.301757812 -67.009765625 714.080078125 -72.16015625 c 0,173,174
 717.5859375 -79.171875 717.5859375 -79.171875 727.557617188 -90.751953125 c 0,175,176
 740.528320312 -107.083007812 740.528320312 -107.083007812 743.600585938 -116.440429688 c 0,175,176
 761.428710938 -169.926757812 761.428710938 -169.926757812 719.7578125 -209.258789062 c 0,177,178
 699.454101562 -226.9140625 699.454101562 -226.9140625 674.719726562 -231.240234375 c 0,177,178
 634.455078125 -235.739257812 634.455078125 -235.739257812 607.48046875 -214.83984375 c 0,179,180
 604.100585938 -212.13671875 604.100585938 -212.13671875 597.833007812 -204.419921875 c 0,181,182
 587.8203125 -193.336914062 587.8203125 -193.336914062 582.879882812 -190.240234375 c 0,181,182
 578.780273438 -188.599609375 578.780273438 -188.599609375 568.940429688 -187.780273438 c 0,183,184
 558.778320312 -186.526367188 558.778320312 -186.526367188 555 -185.3203125 c 0,183,184
 519.384765625 -173.524414062 519.384765625 -173.524414062 500.879882812 -141.040039062 c 1,185,186
 492.69140625 -119.662109375 492.69140625 -119.662109375 492.6796875 -80.3603515625 c 0,187,188
 493.001953125 -39.447265625 493.001953125 -39.447265625 494.3203125 -32.7998046875 c 0,189,190
 513.077148438 23.763671875 513.077148438 23.763671875 576.3203125 32.7998046875 c 1,169,170
602.560546875 -18.0400390625 m 0,191,192
 572.614257812 -18.0400390625 572.614257812 -18.0400390625 550.11328125 -54.0029296875 c 0,193,194
 541.8046875 -68.9267578125 541.8046875 -68.9267578125 541.879882812 -80.3603515625 c 0,193,194
 545.424804688 -104.366210938 545.424804688 -104.366210938 571.400390625 -124.639648438 c 0,195,196
 590.321289062 -138.450195312 590.321289062 -138.450195312 604.200195312 -139.400390625 c 1,197,198
 633.754882812 -137.4296875 633.754882812 -137.4296875 656.563476562 -102.149414062 c 0,199,200
 664.287109375 -88.724609375 664.287109375 -88.724609375 664.879882812 -78.7197265625 c 0,199,200
 664.879882812 -51.9892578125 664.879882812 -51.9892578125 630.37890625 -28.0751953125 c 0,201,202
 614.271484375 -18.005859375 614.271484375 -18.005859375 602.560546875 -18.0400390625 c 0,191,192
EndSplineSet
EndChar

StartChar: afii57409
Encoding: 1569 1569 336
AltUni2: 00fe80.ffffffff.0
Width: 669
VWidth: 1639
GlyphClass: 2
Flags: HW
AnchorPoint: "GposMark2BaseAnchorHamzaErabAbove_01_01" 256.66 639.029 basechar 0
AnchorPoint: "GposMark2BaseAnchorHamzaErabBelow_01_01" 256.66 -338.6 basechar 0
LayerCount: 2
Fore
SplineSet
124.639648438 103.3203125 m 1,0,1
 90.7392578125 126.822265625 90.7392578125 126.822265625 72.16015625 150.879882812 c 1,2,3
 51.1572265625 184.249023438 51.1572265625 184.249023438 50.83984375 227.959960938 c 0,4,5
 51.234375 274.553710938 51.234375 274.553710938 54.1201171875 287 c 0,6,7
 75.6474609375 353.694335938 75.6474609375 353.694335938 173.83984375 434.599609375 c 0,8,9
 227.599609375 480.416992188 227.599609375 480.416992188 267.319335938 488.719726562 c 0,10,11
 271.745117188 489.029296875 271.745117188 489.029296875 313.240234375 488.719726562 c 0,12,13
 358.490234375 487.688476562 358.490234375 487.688476562 373.919921875 477.240234375 c 0,14,15
 397.508789062 461.157226562 397.508789062 461.157226562 409.684570312 412.49609375 c 0,16,17
 414.946289062 392.877929688 414.946289062 392.877929688 419.83984375 382.120117188 c 0,18,19
 422.522460938 376.084960938 422.522460938 376.084960938 429.569335938 364.500976562 c 0,20,21
 439.814453125 346.809570312 439.814453125 346.809570312 442.799804688 337.83984375 c 0,22,23
 463.271484375 276.751953125 463.271484375 276.751953125 452.639648438 209.919921875 c 1,24,-1
 478.879882812 219.759765625 l 1,25,-1
 464.120117188 191.879882812 l 1,26,-1
 478.879882812 196.799804688 l 1,27,-1
 464.120117188 168.919921875 l 1,28,-1
 478.879882812 173.83984375 l 1,29,-1
 444.439453125 109.879882812 l 1,30,-1
 513.319335938 131.200195312 l 1,31,32
 506.759765625 118.080078125 506.759765625 118.080078125 492.819335938 91.83984375 c 0,33,34
 478.638671875 65.0537109375 478.638671875 65.0537109375 472.319335938 52.48046875 c 0,35,36
 455.168945312 25.2841796875 455.168945312 25.2841796875 454.279296875 24.599609375 c 0,37,38
 451 21.3203125 451 21.3203125 443.620117188 20.5 c 128,-1,39
 436.240234375 19.6796875 436.240234375 19.6796875 423.939453125 20.5 c 2,40,-1
 411.639648438 21.3203125 l 1,41,42
 374.318359375 16.6181640625 374.318359375 16.6181640625 331.279296875 3.2802734375 c 1,43,44
 186.737304688 -51.7744140625 186.737304688 -51.7744140625 82 -188.599609375 c 1,45,-1
 80.359375 -188.599609375 l 1,46,-1
 86.919921875 -101.6796875 l 1,47,-1
 47.5595703125 -145.959960938 l 1,48,-1
 45.919921875 -145.959960938 l 1,49,-1
 45.919921875 -121.360351562 l 1,50,-1
 24.599609375 -145.959960938 l 1,51,-1
 22.9599609375 -145.959960938 l 1,52,-1
 22.9599609375 -121.360351562 l 1,53,-1
 1.6396484375 -145.959960938 l 1,54,-1
 0 -145.959960938 l 1,55,56
 0.150390625 -92.57421875 0.150390625 -92.57421875 4.919921875 -39.3603515625 c 1,57,58
 5.3466796875 -14.3740234375 5.3466796875 -14.3740234375 8.2001953125 -3.2802734375 c 0,59,60
 9.83984375 0 9.83984375 0 12.2998046875 4.099609375 c 128,-1,61
 14.759765625 8.2001953125 14.759765625 8.2001953125 18.859375 13.1201171875 c 128,-1,62
 22.9599609375 18.0400390625 22.9599609375 18.0400390625 24.599609375 19.6796875 c 128,-1,63
 26.240234375 21.3203125 26.240234375 21.3203125 31.9794921875 27.0595703125 c 2,64,-1
 37.7197265625 32.7998046875 l 2,65,66
 92.6396484375 86.80859375 92.6396484375 86.80859375 124.639648438 103.3203125 c 1,0,1
352.599609375 403.440429688 m 1,67,68
 322.40234375 465.512695312 322.40234375 465.512695312 250.743164062 414.548828125 c 0,69,70
 236.174804688 403.723632812 236.174804688 403.723632812 224.6796875 391.959960938 c 1,71,72
 275.799804688 403.365234375 275.799804688 403.365234375 352.599609375 403.440429688 c 1,67,68
372.279296875 341.120117188 m 1,73,-1
 370.639648438 336.200195312 l 1,74,-1
 372.279296875 336.200195312 l 1,75,-1
 372.279296875 341.120117188 l 1,73,-1
241.080078125 334.559570312 m 1,76,77
 200.5859375 317.180664062 200.5859375 317.180664062 165.639648438 285.360351562 c 1,78,79
 144.802734375 260.55859375 144.802734375 260.55859375 159.080078125 252.559570312 c 1,80,81
 168.17578125 254.153320312 168.17578125 254.153320312 182.040039062 272.240234375 c 0,82,83
 190.229492188 281.918945312 190.229492188 281.918945312 208.731445312 300.016601562 c 0,84,85
 231.568359375 322.749023438 231.568359375 322.749023438 241.080078125 334.559570312 c 1,76,77
373.919921875 326.360351562 m 1,86,-1
 370.639648438 326.360351562 l 1,87,88
 370.639648438 323.4140625 370.639648438 323.4140625 369.138671875 316.197265625 c 0,89,90
 367.03125 298.444335938 367.03125 298.444335938 372.279296875 293.559570312 c 1,91,-1
 373.919921875 326.360351562 l 1,86,-1
314.879882812 305.040039062 m 1,92,93
 260.134765625 300.66015625 260.134765625 300.66015625 208.157226562 251.356445312 c 0,94,95
 197.948242188 241.150390625 197.948242188 241.150390625 191.879882812 232.879882812 c 1,96,97
 274.997070312 197.258789062 274.997070312 197.258789062 286.403320312 194.43359375 c 0,98,99
 293.34765625 192.826171875 293.34765625 192.826171875 298.479492188 191.879882812 c 0,100,101
 334.65234375 187.147460938 334.65234375 187.147460938 401.799804688 208.280273438 c 1,102,-1
 388.6796875 221.400390625 l 1,103,-1
 385.399414062 206.639648438 l 1,104,-1
 367.359375 224.6796875 l 1,105,-1
 362.439453125 206.639648438 l 1,106,-1
 326.359375 246 l 1,107,-1
 309.959960938 265.6796875 l 1,108,-1
 313.240234375 278.799804688 l 1,109,-1
 314.879882812 305.040039062 l 1,92,93
113.16015625 208.280273438 m 1,110,-1
 132.83984375 180.400390625 l 1,111,-1
 209.919921875 124.639648438 l 1,112,-1
 190.240234375 116.440429688 l 1,113,-1
 209.919921875 101.6796875 l 1,114,-1
 190.240234375 93.48046875 l 1,115,-1
 209.919921875 78.7197265625 l 1,116,117
 151.4765625 61.673828125 151.4765625 61.673828125 103.619140625 7.798828125 c 0,118,119
 97.4033203125 0.482421875 97.4033203125 0.482421875 93.4794921875 -4.919921875 c 1,120,121
 198.688476562 66.1669921875 198.688476562 66.1669921875 216.46484375 75.3720703125 c 0,122,123
 247.674804688 91.1435546875 247.674804688 91.1435546875 277.16015625 100.040039062 c 1,124,125
 317.06640625 109.618164062 317.06640625 109.618164062 336.200195312 109.879882812 c 0,126,127
 369.143554688 110.485351562 369.143554688 110.485351562 373.919921875 113.16015625 c 0,128,129
 385.24609375 121.75390625 385.24609375 121.75390625 395.240234375 150.879882812 c 1,130,131
 266.579101562 119.279296875 266.579101562 119.279296875 148.791992188 184.946289062 c 0,132,133
 129.133789062 196.220703125 129.133789062 196.220703125 113.16015625 208.280273438 c 1,110,-1
464.120117188 191.879882812 m 1,134,-1
 462.479492188 190.240234375 l 1,135,-1
 464.120117188 191.879882812 l 1,134,-1
464.120117188 168.919921875 m 1,136,-1
 462.479492188 167.280273438 l 1,137,-1
 464.120117188 168.919921875 l 1,136,-1
EndSplineSet
EndChar

StartChar: afii57410
Encoding: 1570 1570 337
AltUni2: 00fe81.ffffffff.0
Width: 400
VWidth: 1639
GlyphClass: 2
Flags: W
LayerCount: 2
Fore
SplineSet
375.0703125 1785.95996094 m 1,0,-1
 393.110351562 1767.91992188 l 1,1,-1
 398.030273438 1785.95996094 l 1,2,-1
 416.0703125 1767.91992188 l 1,3,-1
 420.990234375 1785.95996094 l 1,4,5
 432.506835938 1776.14550781 432.506835938 1776.14550781 463.629882812 1736.75976562 c 0,6,7
 465.309570312 1734.52050781 465.309570312 1734.52050781 469.931640625 1729.53417969 c 0,8,9
 479.235351562 1718.63378906 479.235351562 1718.63378906 481.669921875 1713.79980469 c 0,8,9
 482.54296875 1711.18066406 482.54296875 1711.18066406 480.443359375 1706.59375 c 0,10,11
 478.712890625 1701.21679688 478.712890625 1701.21679688 478.389648438 1699.04003906 c 0,10,11
 477.522460938 1697.30371094 477.522460938 1697.30371094 479.596679688 1693.58984375 c 0,12,13
 481.302734375 1689.11132812 481.302734375 1689.11132812 481.669921875 1687.55957031 c 0,12,13
 481.669921875 1684.68359375 481.669921875 1684.68359375 479.26953125 1680.40820312 c 0,14,15
 477.888671875 1674.82421875 477.888671875 1674.82421875 478.389648438 1672.79980469 c 0,14,15
 482.997070312 1664.79003906 482.997070312 1664.79003906 506.270507812 1638.36035156 c 1,16,17
 516.110351562 1621.95996094 516.110351562 1621.95996094 516.110351562 1621.95996094 c 1,18,19
 514.921875 1615.2734375 514.921875 1615.2734375 502.990234375 1600.63964844 c 1,20,21
 482.75 1570.734375 482.75 1570.734375 471.830078125 1558 c 0,22,23
 373.028320312 1438.70410156 373.028320312 1438.70410156 268.469726562 1441.55957031 c 1,24,25
 217.876953125 1444.93945312 217.876953125 1444.93945312 101.190429688 1487.48046875 c 0,26,27
 59.4091796875 1502.52539062 59.4091796875 1502.52539062 48.7099609375 1505.51953125 c 0,28,29
 28.45703125 1509.63867188 28.45703125 1509.63867188 25.75 1508.79980469 c 0,30,31
 15.2890625 1504.49609375 15.2890625 1504.49609375 -2.1298828125 1477.63964844 c 0,32,33
 -28.9814453125 1439.37988281 -28.9814453125 1439.37988281 -44.76953125 1403.83984375 c 0,34,35
 -47.650390625 1398.07910156 -47.650390625 1398.07910156 -51.537109375 1385.21582031 c 0,36,37
 -57.138671875 1368.18261719 -57.138671875 1368.18261719 -61.169921875 1361.20019531 c 1,36,-1
 -84.1298828125 1435 l 1,37,-1
 -95.6103515625 1403.83984375 l 1,38,-1
 -105.450195312 1438.28027344 l 1,39,-1
 -107.08984375 1438.28027344 l 1,40,-1
 -118.5703125 1403.83984375 l 1,41,-1
 -128.41015625 1438.28027344 l 1,42,-1
 -130.049804688 1438.28027344 l 1,43,-1
 -141.530273438 1403.83984375 l 1,44,45
 -160.296875 1449.61621094 -160.296875 1449.61621094 -166.129882812 1505.51953125 c 0,46,47
 -166.129882812 1510.11230469 -166.129882812 1510.11230469 -167.1796875 1520.34570312 c 0,48,49
 -168.435546875 1535.90917969 -168.435546875 1535.90917969 -167.76953125 1541.59960938 c 0,48,49
 -163.359375 1554.95800781 -163.359375 1554.95800781 -128.41015625 1594.08007812 c 1,50,51
 -49.01171875 1690.16015625 -49.01171875 1690.16015625 37.23046875 1697.40039062 c 0,52,53
 113.181640625 1702.63769531 113.181640625 1702.63769531 242.377929688 1648.625 c 0,54,55
 283.763671875 1631.37597656 283.763671875 1631.37597656 299.629882812 1625.24023438 c 1,54,55
 303.18359375 1634.12304688 303.18359375 1634.12304688 315.161132812 1650.04394531 c 0,56,57
 325.391601562 1663.64257812 325.391601562 1663.64257812 329.150390625 1671.16015625 c 0,56,57
 352.42578125 1718.27148438 352.42578125 1718.27148438 375.0703125 1785.95996094 c 1,0,-1
409.509765625 1700.6796875 m 1,58,59
 401.904296875 1690.47363281 401.904296875 1690.47363281 379.990234375 1635.08007812 c 1,60,-1
 411.150390625 1671.16015625 l 1,61,-1
 419.350585938 1685.91992188 l 1,62,-1
 409.509765625 1700.6796875 l 1,58,59
317.669921875 1576.04003906 m 1,63,64
 270.40625 1564.54296875 270.40625 1564.54296875 168.801757812 1610.97363281 c 0,65,66
 144.271484375 1622.18359375 144.271484375 1622.18359375 132.350585938 1626.87988281 c 0,65,66
 78.677734375 1649.24316406 78.677734375 1649.24316406 65.1103515625 1648.20019531 c 0,67,68
 39.4091796875 1647.26953125 39.4091796875 1647.26953125 4.4296875 1625.24023438 c 1,69,70
 -19.5048828125 1612.40820312 -19.5048828125 1612.40820312 -31.6494140625 1599 c 1,71,72
 12.7333984375 1595.30175781 12.7333984375 1595.30175781 124.1015625 1554.97753906 c 0,73,74
 130.06640625 1552.83105469 130.06640625 1552.83105469 133.990234375 1551.44042969 c 0,73,74
 193.407226562 1532.14746094 193.407226562 1532.14746094 215.990234375 1531.75976562 c 1,75,76
 257.598632812 1534.54003906 257.598632812 1534.54003906 317.669921875 1574.40039062 c 1,77,-1
 317.669921875 1576.04003906 l 1,63,64
379.990234375 1633.44042969 m 1,78,-1
 378.350585938 1631.79980469 l 1,79,-1
 379.990234375 1633.44042969 l 1,78,-1
388.190429688 1548.16015625 m 1,80,-1
 368.509765625 1531.75976562 l 1,81,82
 380.2734375 1535.52929688 380.2734375 1535.52929688 388.190429688 1548.16015625 c 1,80,-1
-13.6103515625 1543.24023438 m 1,83,84
 -24.529296875 1541.59570312 -24.529296875 1541.59570312 -43.1298828125 1512.08007812 c 1,85,-1
 -13.6103515625 1543.24023438 l 1,83,84
78.23046875 1438.28027344 m 1,86,-1
 102.830078125 1418.59960938 l 1,87,-1
 101.190429688 1438.28027344 l 1,88,-1
 125.790039062 1418.59960938 l 1,89,-1
 124.150390625 1438.28027344 l 1,90,91
 132.9296875 1432.42675781 132.9296875 1432.42675781 212.754882812 1365.92675781 c 0,92,93
 218.645507812 1361.06835938 218.645507812 1361.06835938 222.549804688 1357.91992188 c 0,92,93
 225.83984375 1354.62988281 225.83984375 1354.62988281 235.2265625 1347.50097656 c 0,94,95
 254.689453125 1331.52539062 254.689453125 1331.52539062 258.629882812 1323.48046875 c 0,94,95
 260.362304688 1319.14941406 260.362304688 1319.14941406 259.482421875 1280.36621094 c 0,96,97
 259.337890625 1274.02050781 259.337890625 1274.02050781 260.270507812 1269.36035156 c 0,96,97
 262.2265625 1262.83691406 262.2265625 1262.83691406 283.428710938 1247.22753906 c 0,98,99
 292.1328125 1239.32714844 292.1328125 1239.32714844 294.709960938 1233.28027344 c 0,98,99
 295.391601562 1229.0234375 295.391601562 1229.0234375 294.709960938 1189 c 0,100,101
 294.709960938 1176.70019531 294.709960938 1176.70019531 295.530273438 1151.28027344 c 0,102,103
 296.31640625 1125.35839844 296.31640625 1125.35839844 296.350585938 1113.55957031 c 0,102,103
 296.385742188 1036.4296875 296.385742188 1036.4296875 299.629882812 883.959960938 c 0,104,105
 300.450195312 837.219726562 300.450195312 837.219726562 301.270507812 742.919921875 c 0,106,107
 302.109375 648.0859375 302.109375 648.0859375 302.91015625 601.879882812 c 0,106,107
 309.29296875 278.53125 309.29296875 278.53125 291.4296875 119.719726562 c 0,108,109
 271.087890625 -49.7255859375 271.087890625 -49.7255859375 212.709960938 -134.48046875 c 1,110,111
 180.56640625 -174.795898438 180.56640625 -174.795898438 132.350585938 -209.919921875 c 0,112,113
 84.8701171875 -243.879882812 84.8701171875 -243.879882812 71.669921875 -249.280273438 c 1,114,-1
 48.7099609375 -200.080078125 l 1,115,-1
 37.23046875 -206.639648438 l 1,116,-1
 33.9501953125 -196.799804688 l 1,117,-1
 14.2705078125 -206.639648438 l 1,118,-1
 10.990234375 -196.799804688 l 1,119,-1
 -8.689453125 -206.639648438 l 1,120,121
 -14.140625 -193.920898438 -14.140625 -193.920898438 -29.1826171875 -167.387695312 c 0,122,123
 -55.072265625 -120.643554688 -55.072265625 -120.643554688 -59.5302734375 -98.400390625 c 1,122,-1
 -51.330078125 -96.759765625 l 1,123,-1
 -59.5302734375 -75.4404296875 l 1,124,-1
 -51.330078125 -73.7998046875 l 1,125,-1
 -59.5302734375 -52.48046875 l 1,126,127
 -35.4736328125 -48.7197265625 -35.4736328125 -48.7197265625 15.91015625 -22.9599609375 c 0,128,129
 53.3447265625 -3.74609375 53.3447265625 -3.74609375 79.8701171875 18.0400390625 c 0,130,131
 121.657226562 55.84375 121.657226562 55.84375 140.549804688 101.6796875 c 0,132,133
 160.461914062 152.704101562 160.461914062 152.704101562 152.431640625 279.286132812 c 0,134,135
 150.78515625 306.203125 150.78515625 306.203125 150.389648438 321.440429688 c 0,134,135
 149.360351562 370.853515625 149.360351562 370.853515625 140.853515625 470.809570312 c 0,136,137
 135.8125 530.46875 135.8125 530.46875 133.990234375 559.240234375 c 0,136,137
 128.25 650.259765625 128.25 650.259765625 115.950195312 831.48046875 c 0,138,139
 103.620117188 1013.25292969 103.620117188 1013.25292969 97.91015625 1103.71972656 c 0,138,139
 78.23046875 1371.36816406 78.23046875 1371.36816406 78.23046875 1438.28027344 c 1,86,-1
132.350585938 1348.08007812 m 1,140,141
 131.493164062 1343.86621094 131.493164062 1343.86621094 132.350585938 1316.91992188 c 0,142,143
 133.169921875 1305.44042969 133.169921875 1305.44042969 134.810546875 1281.66015625 c 0,144,145
 136.48828125 1257.38183594 136.48828125 1257.38183594 137.270507812 1246.40039062 c 2,144,-1
 153.669921875 1005.3203125 l 2,145,146
 192.515625 438.825195312 192.515625 438.825195312 196.2265625 330.13671875 c 0,147,148
 199.559570312 230.873046875 199.559570312 230.873046875 199.58984375 142.6796875 c 1,147,-1
 201.23046875 142.6796875 l 1,148,149
 202.166992188 159.548828125 202.166992188 159.548828125 208.325195312 193.286132812 c 0,150,151
 212.944335938 218.588867188 212.944335938 218.588867188 214.350585938 231.240234375 c 0,150,151
 221.618164062 302.572265625 221.618164062 302.572265625 224.190429688 375.559570312 c 0,152,153
 228.06640625 471.700195312 228.06640625 471.700195312 220.587890625 862.639648438 c 0,154,155
 219.2890625 932.17578125 219.2890625 932.17578125 219.270507812 985.639648438 c 0,154,155
 219.127929688 1155.54199219 219.127929688 1155.54199219 214.350585938 1210.3203125 c 0,156,157
 213.748046875 1217.54882812 213.748046875 1217.54882812 215.225585938 1235.43261719 c 0,158,159
 217.239257812 1267.84375 217.239257812 1267.84375 212.709960938 1279.20019531 c 0,158,159
 211.0703125 1284.12011719 211.0703125 1284.12011719 206.969726562 1287.40039062 c 0,160,161
 202.870117188 1290.6796875 202.870117188 1290.6796875 195.490234375 1296.41992188 c 2,162,-1
 188.110351562 1302.16015625 l 2,160,161
 179.08984375 1309.54003906 179.08984375 1309.54003906 160.23046875 1325.12011719 c 0,162,163
 140.883789062 1341.08984375 140.883789062 1341.08984375 132.350585938 1348.08007812 c 1,140,141
158.58984375 4.919921875 m 1,162,163
 78.375 -63.8349609375 78.375 -63.8349609375 40.37109375 -80.3623046875 c 0,164,165
 22.546875 -87.7802734375 22.546875 -87.7802734375 6.0703125 -91.83984375 c 1,164,-1
 25.75 -137.759765625 l 1,165,166
 35.6259765625 -133.796875 35.6259765625 -133.796875 66.75 -109.879882812 c 0,167,168
 141.57421875 -52.9697265625 141.57421875 -52.9697265625 158.58984375 4.919921875 c 1,162,163
EndSplineSet
AlternateSubs2: "gsub_alternate_dfl_aalt_arab_FAR_Lookup_01_Subtable_01" uniFE82 afii57410
Substitution2: "gsub_single_rtl_fina_arab_FAR_Lookup_01_Subtable_01" uniFE82
PairPos2: "gpos_pair_dfl_kern_arab_FAR_Lookup_01_Subtable_01" gafarabic dx=0 dy=0 dh=0 dv=0 dx=0 dy=0 dh=0 dv=0
EndChar

StartChar: uniFE83
Encoding: 1571 1571 339
AltUni2: 00fe83.ffffffff.0
Width: 516
VWidth: 1639
GlyphClass: 2
Flags: W
LayerCount: 2
Fore
SplineSet
171.279296875 1438.28027344 m 1,0,-1
 195.879882812 1420.24023438 l 1,1,-1
 194.239257812 1438.28027344 l 1,2,-1
 218.83984375 1420.24023438 l 1,3,-1
 217.19921875 1438.28027344 l 1,4,5
 236.788085938 1428.01953125 236.788085938 1428.01953125 301.556640625 1370.49121094 c 0,6,7
 308.112304688 1364.74902344 308.112304688 1364.74902344 312.319335938 1361.20019531 c 0,6,7
 315.809570312 1358.20800781 315.809570312 1358.20800781 324.51171875 1351.76953125 c 0,8,9
 345.708984375 1335.25 345.708984375 1335.25 351.6796875 1326.75976562 c 0,8,9
 355.452148438 1320.47265625 355.452148438 1320.47265625 353.838867188 1284.87597656 c 0,10,11
 353.984375 1272.41796875 353.984375 1272.41796875 356.599609375 1266.08007812 c 0,10,11
 358.4609375 1262.35644531 358.4609375 1262.35644531 377.706054688 1247.625 c 0,12,13
 385.241210938 1240.43847656 385.241210938 1240.43847656 387.759765625 1234.91992188 c 0,12,13
 389.834960938 1225.03320312 389.834960938 1225.03320312 389.399414062 1172.59960938 c 0,14,15
 389.520507812 1061.95214844 389.520507812 1061.95214844 391.040039062 1041.40039062 c 0,16,17
 394.44921875 1004.82324219 394.44921875 1004.82324219 394.319335938 838.040039062 c 1,18,19
 397.581054688 650.510742188 397.581054688 650.510742188 397.599609375 559.240234375 c 0,20,21
 397.599609375 525.529296875 397.599609375 525.529296875 398.501953125 457.931640625 c 0,22,23
 401.534179688 208.837890625 401.534179688 208.837890625 381.19921875 86.919921875 c 0,22,23
 354.798828125 -60.8515625 354.798828125 -60.8515625 307.399414062 -132.83984375 c 1,24,25
 257.66796875 -204.377929688 257.66796875 -204.377929688 166.359375 -249.280273438 c 1,26,-1
 143.399414062 -200.080078125 l 1,27,-1
 131.919921875 -206.639648438 l 1,28,-1
 127 -196.799804688 l 1,29,-1
 108.959960938 -206.639648438 l 1,30,-1
 104.040039062 -196.799804688 l 1,31,-1
 86 -206.639648438 l 1,32,-1
 53.19921875 -139.400390625 l 1,33,-1
 35.16015625 -98.400390625 l 1,34,-1
 43.359375 -96.759765625 l 1,35,-1
 35.16015625 -75.4404296875 l 1,36,-1
 43.359375 -73.7998046875 l 1,37,-1
 35.16015625 -52.48046875 l 1,38,39
 144.155273438 -27.8017578125 144.155273438 -27.8017578125 206.078125 51.087890625 c 0,40,41
 234.396484375 88.548828125 234.396484375 88.548828125 241.799804688 127.919921875 c 0,40,41
 254.61328125 204.8046875 254.61328125 204.8046875 239.6640625 390.724609375 c 0,42,43
 237.90234375 412.893554688 237.90234375 412.893554688 236.879882812 428.040039062 c 0,42,43
 231.959960938 504.299804688 231.959960938 504.299804688 221.299804688 657.639648438 c 0,44,45
 210.610351562 811.518554688 210.610351562 811.518554688 205.719726562 887.240234375 c 0,44,45
 201.620117188 952.01953125 201.620117188 952.01953125 192.599609375 1080.75976562 c 0,46,47
 183.551757812 1210.05566406 183.551757812 1210.05566406 179.479492188 1274.28027344 c 0,46,47
 178.66015625 1290.6796875 178.66015625 1290.6796875 176.19921875 1324.29980469 c 0,48,49
 173.73828125 1358.43164062 173.73828125 1358.43164062 172.919921875 1374.3203125 c 0,48,49
 172.557617188 1432.65527344 172.557617188 1432.65527344 171.279296875 1438.28027344 c 1,0,-1
225.399414062 1349.71972656 m 1,50,51
 222.161132812 1341.33203125 222.161132812 1341.33203125 227.040039062 1310.36035156 c 1,52,53
 231.955078125 1238.23925781 231.955078125 1238.23925781 231.959960938 1238.20019531 c 0,54,55
 236.0546875 1197.41601562 236.0546875 1197.41601562 248.359375 995.48046875 c 1,56,57
 287.305664062 437.250976562 287.305664062 437.250976562 291.099609375 325.049804688 c 0,58,59
 294.25 230.256835938 294.25 230.256835938 294.279296875 145.959960938 c 1,58,-1
 295.919921875 145.959960938 l 1,59,-1
 315.599609375 316.51953125 l 1,60,-1
 317.239257812 578.919921875 l 1,61,-1
 312.319335938 988.919921875 l 1,62,-1
 309.040039062 1193.91992188 l 1,63,-1
 307.399414062 1259.51953125 l 1,64,-1
 305.759765625 1280.83984375 l 1,65,-1
 281.16015625 1302.16015625 l 1,66,-1
 225.399414062 1349.71972656 l 1,50,51
294.279296875 144.3203125 m 1,67,-1
 292.639648438 137.759765625 l 1,68,-1
 294.279296875 137.759765625 l 1,69,-1
 294.279296875 144.3203125 l 1,67,-1
253.279296875 4.919921875 m 1,70,71
 241.791992188 -3.033203125 241.791992188 -3.033203125 221.5625 -22.8564453125 c 0,72,73
 203.3671875 -40.3359375 203.3671875 -40.3359375 194.239257812 -47.5595703125 c 0,72,73
 176.952148438 -58.71484375 176.952148438 -58.71484375 99.1201171875 -93.48046875 c 1,74,-1
 120.439453125 -137.759765625 l 1,75,76
 136.83984375 -131.200195312 136.83984375 -131.200195312 163.735351562 -107.4609375 c 2,77,-1
 164.719726562 -106.599609375 l 1,77,78
 226.396484375 -56.4462890625 226.396484375 -56.4462890625 253.279296875 4.919921875 c 1,70,71
102.399414062 1795.79980469 m 1,0,1
 55.2783203125 1810.68066406 55.2783203125 1810.68066406 34.76953125 1856.61425781 c 0,2,3
 31.7939453125 1863.95996094 31.7939453125 1863.95996094 30.2392578125 1869.59960938 c 0,2,3
 28.1953125 1880.08496094 28.1953125 1880.08496094 28.599609375 1935.20019531 c 0,4,5
 30.146484375 2032.96777344 30.146484375 2032.96777344 161.439453125 2133.63964844 c 1,6,7
 202.989257812 2162.83105469 202.989257812 2162.83105469 256.559570312 2163.16015625 c 0,8,9
 289.84375 2162.43847656 289.84375 2162.43847656 299.19921875 2158.24023438 c 0,10,11
 328.973632812 2143.86621094 328.973632812 2143.86621094 343.467773438 2090.91796875 c 0,12,13
 352.982421875 2058.25585938 352.982421875 2058.25585938 361.51953125 2045.08007812 c 0,12,13
 392.373046875 1996.11425781 392.373046875 1996.11425781 392.6796875 1913.87988281 c 1,14,-1
 407.439453125 1918.79980469 l 1,15,-1
 399.239257812 1894.20019531 l 1,16,-1
 407.439453125 1895.83984375 l 1,17,-1
 399.239257812 1871.24023438 l 1,18,-1
 407.439453125 1872.87988281 l 1,19,-1
 386.120117188 1812.20019531 l 1,20,-1
 441.879882812 1830.24023438 l 1,21,22
 432.395507812 1799.8125 432.395507812 1799.8125 418.919921875 1764.63964844 c 1,23,24
 413.59375 1742.86035156 413.59375 1742.86035156 409.080078125 1738.40039062 c 0,25,26
 399.83984375 1731.61914062 399.83984375 1731.61914062 364.799804688 1726.91992188 c 1,27,28
 287.014648438 1707.04589844 287.014648438 1707.04589844 263.120117188 1694.12011719 c 0,29,30
 204.793945312 1661.30175781 204.793945312 1661.30175781 133.559570312 1580.95996094 c 1,31,32
 94.2021484375 1533.29492188 94.2021484375 1533.29492188 86 1520.28027344 c 1,33,-1
 84.359375 1520.28027344 l 1,34,-1
 84.359375 1605.55957031 l 1,35,-1
 51.5595703125 1562.91992188 l 1,36,-1
 49.919921875 1562.91992188 l 1,37,-1
 49.919921875 1592.44042969 l 1,38,-1
 48.279296875 1592.44042969 l 1,39,-1
 28.599609375 1562.91992188 l 1,40,-1
 26.9599609375 1562.91992188 l 1,41,-1
 26.9599609375 1592.44042969 l 1,42,-1
 25.3193359375 1592.44042969 l 1,43,-1
 5.6396484375 1562.91992188 l 1,44,-1
 4 1562.91992188 l 1,45,-1
 4 1658.04003906 l 2,46,47
 4.5517578125 1695.99511719 4.5517578125 1695.99511719 5.6396484375 1699.04003906 c 0,48,49
 17.1103515625 1720.21777344 17.1103515625 1720.21777344 67.947265625 1762.13085938 c 0,50,51
 91.615234375 1781.64453125 91.615234375 1781.64453125 102.399414062 1795.79980469 c 1,0,1
281.16015625 2086.08007812 m 1,50,51
 265.069335938 2107.60839844 265.069335938 2107.60839844 253.279296875 2110.6796875 c 0,52,53
 234.323242188 2113.71679688 234.323242188 2113.71679688 200.799804688 2081.16015625 c 1,54,55
 222.655273438 2086.21972656 222.655273438 2086.21972656 281.16015625 2086.08007812 c 1,50,51
217.19921875 2025.40039062 m 1,56,57
 178.833007812 2011.87695312 178.833007812 2011.87695312 136.83984375 1976.20019531 c 1,58,59
 106.534179688 1947.02734375 106.534179688 1947.02734375 135.19921875 1931.91992188 c 1,60,61
 145.719726562 1950.53320312 145.719726562 1950.53320312 194.350585938 1999.56054688 c 0,62,63
 208.578125 2013.90429688 208.578125 2013.90429688 217.19921875 2025.40039062 c 1,56,57
254.919921875 1984.40039062 m 1,62,63
 181.475585938 1953.85546875 181.475585938 1953.85546875 158.16015625 1918.79980469 c 1,64,65
 208.810546875 1889.9296875 208.810546875 1889.9296875 254.919921875 1889.28027344 c 0,66,67
 265.177734375 1889.28027344 265.177734375 1889.28027344 284.404296875 1894.52050781 c 0,68,69
 299.227539062 1898.29980469 299.227539062 1898.29980469 305.759765625 1899.12011719 c 1,68,-1
 256.559570312 1953.24023438 l 1,69,-1
 258.19921875 1968 l 1,70,-1
 254.919921875 1984.40039062 l 1,62,63
310.6796875 1918.79980469 m 1,71,-1
 307.399414062 1900.75976562 l 1,72,-1
 322.16015625 1904.04003906 l 1,73,-1
 310.6796875 1918.79980469 l 1,71,-1
333.639648438 1918.79980469 m 1,74,-1
 330.359375 1907.3203125 l 1,75,-1
 333.639648438 1918.79980469 l 1,74,-1
399.239257812 1894.20019531 m 1,76,-1
 397.599609375 1892.55957031 l 1,77,-1
 399.239257812 1894.20019531 l 1,76,-1
95.83984375 1882.71972656 m 1,78,79
 95.83984375 1879.44042969 95.83984375 1879.44042969 97.4794921875 1876.98046875 c 0,80,81
 99.1201171875 1874.51953125 99.1201171875 1874.51953125 101.580078125 1872.05957031 c 0,82,83
 104.040039062 1869.59960938 104.040039062 1869.59960938 105.6796875 1867.95996094 c 0,84,85
 107.319335938 1866.3203125 107.319335938 1866.3203125 111.419921875 1863.86035156 c 2,86,-1
 115.51953125 1861.40039062 l 1,80,81
 140.197265625 1843.06445312 140.197265625 1843.06445312 184.399414062 1825.3203125 c 1,82,-1
 168 1808.91992188 l 1,83,-1
 184.399414062 1802.36035156 l 1,84,-1
 168 1785.95996094 l 1,85,86
 179.068359375 1782.33496094 179.068359375 1782.33496094 212.279296875 1794.16015625 c 0,87,88
 224.580078125 1797.44042969 224.580078125 1797.44042969 248.359375 1804.8203125 c 0,89,90
 272.733398438 1812.31445312 272.733398438 1812.31445312 284.439453125 1815.48046875 c 0,89,90
 288.911132812 1816.59765625 288.911132812 1816.59765625 298.672851562 1818.08007812 c 0,91,92
 318.098632812 1821.57910156 318.098632812 1821.57910156 325.439453125 1825.3203125 c 0,91,92
 333.639648438 1828.59960938 333.639648438 1828.59960938 336.424804688 1847.34472656 c 2,93,-1
 336.919921875 1849.91992188 l 1,93,94
 179.258789062 1830.61425781 179.258789062 1830.61425781 104.571289062 1876.97070312 c 0,95,96
 99.3408203125 1880.33007812 99.3408203125 1880.33007812 95.83984375 1882.71972656 c 1,78,79
399.239257812 1871.24023438 m 1,95,-1
 397.599609375 1869.59960938 l 1,96,-1
 399.239257812 1871.24023438 l 1,95,-1
192.599609375 1713.79980469 m 1,97,-1
 190.959960938 1712.16015625 l 1,98,-1
 192.599609375 1713.79980469 l 1,97,-1
186.040039062 1708.87988281 m 1,99,100
 138.141601562 1676.00878906 138.141601562 1676.00878906 115.51953125 1643.28027344 c 1,101,102
 163.416015625 1678.26464844 163.416015625 1678.26464844 186.040039062 1708.87988281 c 1,99,100
EndSplineSet
AlternateSubs2: "gsub_alternate_dfl_aalt_arab_FAR_Lookup_01_Subtable_01" uniFE84 uniFE83
Substitution2: "gsub_single_rtl_fina_arab_FAR_Lookup_01_Subtable_01" uniFE84
EndChar

